<?xml version="1.0" encoding="UTF-8" standalone="no"?><!DOCTYPE svg PUBLIC "-//W3C//DTD SVG 1.1//EN" "http://www.w3.org/Graphics/SVG/1.1/DTD/svg11.dtd"><svg width="100%" height="100%" viewBox="0 0 267 116" version="1.1" xmlns="http://www.w3.org/2000/svg" xmlns:xlink="http://www.w3.org/1999/xlink" xml:space="preserve" xmlns:serif="http://www.serif.com/" style="fill-rule:evenodd;clip-rule:evenodd;stroke-linejoin:round;stroke-miterlimit:2;"><rect id="t-b-break" x="0.255" y="0.235" width="266.667" height="115.333" style="fill:none;"/><clipPath id="_clip1"><rect x="0.255" y="0.235" width="266.667" height="115.333"/></clipPath><g clip-path="url(#_clip1)"><g><g><path d="M2.828,46.51l0,-45.551l23.345,0l0,7.727l-13.904,0l0,11.341l12.549,0l0,7.727l-12.549,0l0,18.756l-9.441,0Z"/><path d="M47.373,28.19l0,18.32l-9.441,0l0,-45.551l12.463,0c2.866,0 5.016,0.197 6.449,0.592c3.033,0.831 5.141,2.71 6.325,5.639c0.706,1.745 1.06,4.165 1.06,7.26c0,3.988 -0.421,6.906 -1.262,8.755c-0.842,1.849 -2.405,3.271 -4.689,4.268l8.646,19.037l-10.469,0l-7.338,-18.32l-1.744,0Zm-0.25,-7.197l2.649,0c2.539,0.011 3.663,-0.416 4.307,-1.246c0.81,-1.039 1.215,-2.638 1.215,-4.799c0,-2.43 -0.348,-4.112 -1.043,-5.047c-0.696,-0.935 -1.946,-1.408 -4.261,-1.402l-2.867,0l0,12.494Z"/><path d="M77.839,31.649l0,-15.828c0,-5.777 1.719,-8.859 3.506,-11.123c1.357,-1.719 3.466,-3.012 5.585,-3.677c1.641,-0.519 3.77,-0.779 6.387,-0.779c3.656,0 6.475,0.518 8.381,1.683c1.577,0.963 2.888,1.847 4.146,3.787c1.44,2.221 2.917,5.143 2.92,10.109l0,15.828c-0.033,6.046 -1.844,8.817 -3.506,11.123c-1.267,1.786 -3.466,3.011 -5.585,3.676c-1.641,0.519 -3.759,0.779 -6.356,0.779c-3.676,0 -6.481,-0.561 -8.412,-1.682c-1.994,-1.143 -3.665,-2.328 -4.646,-4.107c-1.119,-2.029 -2.157,-3.812 -2.42,-9.789Zm20.978,-12.585l-7.94,20.093c0.726,0.312 1.57,0.468 2.44,0.468c2.098,0 3.649,-1.027 4.526,-2.711c0.552,-1.06 1.077,-2.522 0.974,-6.044l0,-11.806Zm-2.521,-10.463c-0.828,-0.504 -1.884,-0.756 -2.979,-0.756c-2.119,0 -3.653,1.041 -4.557,2.71c-0.536,0.99 -0.939,2.398 -0.974,6.045l0,13.536l8.51,-21.535Z"/><path d="M122.023,46.51l0,-45.009l8.62,0l8.572,22.997l8.604,-22.997l8.62,0l0,45.009l-9.404,0l0,-24.628l-4.833,13.856l-5.942,0l-4.833,-13.856l0,24.628l-9.404,0Z"/></g><g><path d="M0.255,100.793l8.63,0c0.062,2.597 0.431,4.44 1.106,5.531c0.675,1.09 1.792,1.635 3.35,1.635c1.641,0 2.814,-0.462 3.52,-1.386c0.707,-0.924 1.06,-2.456 1.06,-4.596c0,-1.828 -0.395,-3.136 -1.184,-3.925c-0.457,-0.457 -0.925,-0.795 -1.402,-1.013c-0.478,-0.218 -1.88,-0.701 -4.207,-1.449c-3.323,-1.059 -5.784,-2.492 -7.384,-4.3c-1.828,-2.056 -2.742,-5.016 -2.742,-8.879c0,-9.119 4.061,-13.678 12.183,-13.678c5.317,0 8.994,1.963 11.029,5.888c0.956,1.828 1.475,4.518 1.558,8.07l-8.63,0c-0.187,-2.513 -0.525,-4.201 -1.013,-5.063c-0.488,-0.862 -1.366,-1.293 -2.633,-1.293c-2.326,0 -3.489,1.89 -3.489,5.671c0,1.62 0.41,2.861 1.23,3.723c0.821,0.862 2.353,1.667 4.596,2.415c2.285,0.747 3.89,1.334 4.814,1.76c0.924,0.426 1.812,0.981 2.664,1.667c2.409,1.911 3.614,5.245 3.614,10.001c0,2.347 -0.244,4.331 -0.732,5.951c-0.488,1.62 -1.283,3.033 -2.384,4.238c-2.243,2.534 -5.691,3.801 -10.344,3.801c-5.691,0 -9.575,-2.077 -11.653,-6.232c-0.934,-1.869 -1.454,-4.715 -1.557,-8.537Z"/><path d="M57.308,100.793l8.63,0c-0.104,4.279 -0.851,7.478 -2.243,9.597c-2.223,3.448 -5.92,5.172 -11.092,5.172c-5.172,0 -8.869,-1.61 -11.092,-4.83c-1.579,-2.284 -2.368,-6.21 -2.368,-11.777l0,-13.678c0,-3.219 0.218,-5.754 0.654,-7.602c1.392,-5.962 5.578,-8.942 12.557,-8.942c5.504,0 9.316,1.963 11.434,5.888c0.997,1.828 1.548,4.518 1.652,8.07l-8.662,0c-0.187,-2.492 -0.566,-4.175 -1.137,-5.047c-0.571,-0.873 -1.563,-1.309 -2.976,-1.309c-1.62,0 -2.705,0.649 -3.256,1.947c-0.55,1.299 -0.825,3.869 -0.825,7.712l0,12.276c0,3.842 0.291,6.418 0.872,7.727c0.582,1.308 1.724,1.962 3.427,1.962c1.517,0 2.618,-0.555 3.303,-1.666c0.685,-1.112 1.059,-2.945 1.122,-5.5Z"/><path d="M88.189,96.525l0,18.32l-9.441,0l0,-25.145l0,-20.406l12.463,0c2.867,0 5.016,0.197 6.45,0.592c3.032,0.83 5.14,2.71 6.324,5.639c0.707,1.745 1.06,4.165 1.06,7.26c0,3.988 -0.421,6.906 -1.262,8.755c-0.841,1.848 -2.404,3.271 -4.689,4.268l8.646,19.037l-10.469,0l-7.337,-18.32l-1.745,0Zm-0.249,-7.197l2.648,0c2.157,-0.06 3.634,-0.416 4.307,-1.247c0.83,-1.023 1.216,-2.638 1.216,-4.798c0,-2.43 -0.348,-4.113 -1.044,-5.047c-0.696,-0.935 -1.98,-1.404 -4.261,-1.402l-2.866,0l0,12.494Z"/><path d="M138.245,106.152l-9.549,0l-1.901,8.693l-10.188,0l12.891,-45.551l7.914,0l12.922,45.551l-10.188,0l-1.901,-8.693Zm-1.113,-7.477l-3.677,-16.794l-3.645,16.794l7.322,0Z"/><path d="M168.209,114.615l0,-37.538l-10.73,0l0,-7.819l31.012,0l0,7.819l-10.729,0l0,37.538l-9.553,0Z"/><path d="M216.841,100.793l8.63,0c-0.104,4.279 -0.851,7.478 -2.243,9.597c-2.223,3.448 -5.92,5.172 -11.092,5.172c-5.172,0 -8.869,-1.61 -11.092,-4.83c-1.578,-2.284 -2.368,-6.21 -2.368,-11.777l0,-13.678c0,-3.219 0.218,-5.754 0.654,-7.602c1.392,-5.962 5.578,-8.942 12.557,-8.942c5.504,0 9.316,1.963 11.434,5.888c0.997,1.828 1.548,4.518 1.652,8.07l-8.662,0c-0.187,-2.492 -0.566,-4.175 -1.137,-5.047c-0.571,-0.873 -1.563,-1.309 -2.976,-1.309c-1.62,0 -2.705,0.649 -3.256,1.947c-0.55,1.299 -0.825,3.869 -0.825,7.712l0,12.276c0,3.842 0.291,6.418 0.872,7.727c0.582,1.308 1.724,1.962 3.427,1.962c1.517,0 2.618,-0.555 3.303,-1.666c0.686,-1.112 1.059,-2.945 1.122,-5.5Z"/><path d="M239.495,114.845l0,-45.551l9.441,0l0,18.756l8.545,0l0,-18.756l9.44,0l0,45.551l-9.44,0l0,-19.068l-8.545,0l0,19.068l-9.441,0Z"/></g></g></g></svg>