<?xml version="1.0" encoding="UTF-8" standalone="no"?><!DOCTYPE svg PUBLIC "-//W3C//DTD SVG 1.1//EN" "http://www.w3.org/Graphics/SVG/1.1/DTD/svg11.dtd"><svg width="100%" height="100%" viewBox="0 0 289 50" version="1.1" xmlns="http://www.w3.org/2000/svg" xmlns:xlink="http://www.w3.org/1999/xlink" xml:space="preserve" xmlns:serif="http://www.serif.com/" style="fill-rule:evenodd;clip-rule:evenodd;stroke-linejoin:round;stroke-miterlimit:2;"><rect id="t-b-padding" x="0.051" y="0.212" width="288" height="49.133" style="fill:none;"/><g><path d="M10.718,38.258l0,-26.959l13.816,0l0,4.573l-8.229,0l0,6.712l7.427,0l0,4.573l-7.427,0l0,11.101l-5.587,0Z" style="fill-rule:nonzero;"/><path d="M37.081,27.415l0,10.843l-5.587,0l0,-26.959l7.376,0c1.696,0 2.968,0.117 3.817,0.35c1.794,0.492 3.042,1.604 3.743,3.338c0.418,1.032 0.627,2.465 0.627,4.296c0,2.361 -0.249,4.088 -0.747,5.182c-0.498,1.094 -1.423,1.936 -2.775,2.526l5.117,11.267l-6.196,0l-4.342,-10.843l-1.033,0Zm-0.148,-4.259l1.568,0c1.503,0.006 2.168,-0.246 2.549,-0.738c0.48,-0.615 0.719,-1.561 0.719,-2.84c0,-1.438 -0.206,-2.434 -0.617,-2.987c-0.412,-0.553 -1.152,-0.833 -2.522,-0.83l-1.697,0l0,7.395Z" style="fill-rule:nonzero;"/><path d="M55.112,29.462l0,-9.367c0,-3.419 1.018,-5.243 2.075,-6.583c0.803,-1.018 2.052,-1.783 3.306,-2.176c0.971,-0.308 2.231,-0.461 3.78,-0.461c2.163,0 3.832,0.306 4.96,0.995c0.933,0.571 1.709,1.094 2.454,2.242c0.852,1.314 1.726,3.044 1.728,5.983l0,9.367c-0.019,3.579 -1.092,5.219 -2.075,6.583c-0.75,1.058 -2.052,1.783 -3.306,2.176c-0.971,0.308 -2.225,0.461 -3.761,0.461c-2.176,0 -3.836,-0.332 -4.979,-0.996c-1.18,-0.676 -2.169,-1.377 -2.75,-2.43c-0.662,-1.201 -1.276,-2.256 -1.432,-5.794Zm12.416,-7.448l-4.7,11.892c0.43,0.185 0.93,0.277 1.445,0.277c1.241,0 2.159,-0.608 2.678,-1.604c0.327,-0.628 0.638,-1.493 0.577,-3.578l0,-6.987Zm-1.492,-6.192c-0.49,-0.299 -1.115,-0.448 -1.763,-0.448c-1.254,0 -2.162,0.616 -2.697,1.604c-0.317,0.586 -0.556,1.42 -0.577,3.578l0,8.011l5.037,-12.745Z" style="fill-rule:nonzero;"/><path d="M81.262,38.258l0,-26.638l5.102,0l5.073,13.61l5.092,-13.61l5.102,0l0,26.638l-5.566,0l0,-14.576l-2.86,8.201l-3.517,0l-2.861,-8.201l0,14.576l-5.565,0Z" style="fill-rule:nonzero;"/><path d="M119.561,29.942l5.108,0c0.037,1.536 0.255,2.627 0.654,3.273c0.4,0.645 1.061,0.968 1.983,0.968c0.971,0 1.665,-0.274 2.083,-0.821c0.418,-0.547 0.627,-1.453 0.627,-2.72c0,-1.081 -0.233,-1.856 -0.7,-2.323c-0.271,-0.271 -0.548,-0.47 -0.83,-0.599c-0.283,-0.129 -1.113,-0.415 -2.49,-0.858c-1.967,-0.627 -3.423,-1.475 -4.37,-2.545c-1.082,-1.217 -1.623,-2.968 -1.623,-5.255c0,-5.397 2.404,-8.095 7.21,-8.095c3.147,0 5.323,1.162 6.528,3.485c0.566,1.082 0.873,2.674 0.922,4.776l-5.108,0c-0.11,-1.487 -0.31,-2.486 -0.599,-2.996c-0.289,-0.511 -0.808,-0.766 -1.558,-0.766c-1.377,0 -2.066,1.119 -2.066,3.356c0,0.959 0.243,1.694 0.729,2.204c0.485,0.51 1.392,0.986 2.72,1.429c1.352,0.443 2.302,0.79 2.849,1.042c0.547,0.252 1.072,0.581 1.576,0.986c1.426,1.131 2.139,3.104 2.139,5.92c0,1.389 -0.144,2.563 -0.433,3.522c-0.289,0.959 -0.759,1.795 -1.411,2.508c-1.327,1.499 -3.368,2.249 -6.122,2.249c-3.368,0 -5.667,-1.229 -6.896,-3.688c-0.553,-1.106 -0.861,-2.79 -0.922,-5.052Z" style="fill-rule:nonzero;"/><path d="M153.327,29.942l5.108,0c-0.062,2.532 -0.504,4.425 -1.328,5.679c-1.315,2.041 -3.503,3.061 -6.564,3.061c-3.061,0 -5.25,-0.953 -6.565,-2.858c-0.934,-1.352 -1.401,-3.676 -1.401,-6.97l0,-8.095c0,-1.906 0.129,-3.406 0.387,-4.5c0.823,-3.528 3.301,-5.292 7.431,-5.292c3.258,0 5.514,1.162 6.768,3.485c0.59,1.082 0.915,2.674 0.977,4.776l-5.126,0c-0.111,-1.475 -0.335,-2.471 -0.674,-2.987c-0.338,-0.517 -0.925,-0.775 -1.761,-0.775c-0.958,0 -1.601,0.384 -1.927,1.153c-0.325,0.768 -0.488,2.289 -0.488,4.564l0,7.265c0,2.274 0.172,3.799 0.516,4.573c0.344,0.775 1.02,1.162 2.029,1.162c0.897,0 1.549,-0.329 1.954,-0.987c0.406,-0.657 0.627,-1.742 0.664,-3.254Z" style="fill-rule:nonzero;"/><path d="M171.604,27.415l0,10.843l-5.588,0l0,-14.882l0,-12.077l7.376,0c1.697,0 2.969,0.117 3.817,0.35c1.795,0.492 3.043,1.604 3.744,3.338c0.418,1.032 0.627,2.465 0.627,4.296c0,2.361 -0.249,4.088 -0.747,5.182c-0.498,1.094 -1.423,1.936 -2.775,2.526l5.117,11.267l-6.196,0l-4.343,-10.843l-1.032,0Zm-0.148,-4.259l1.568,0c1.276,-0.036 2.15,-0.246 2.549,-0.738c0.491,-0.605 0.719,-1.561 0.719,-2.84c0,-1.438 -0.206,-2.434 -0.618,-2.987c-0.411,-0.553 -1.171,-0.831 -2.521,-0.83l-1.697,0l0,7.395Z" style="fill-rule:nonzero;"/><path d="M201.229,33.113l-5.652,0l-1.124,5.145l-6.03,0l7.629,-26.959l4.684,0l7.648,26.959l-6.03,0l-1.125,-5.145Zm-0.659,-4.425l-2.176,-9.939l-2.157,9.939l4.333,0Z" style="fill-rule:nonzero;"/><path d="M218.963,38.122l0,-22.217l-6.351,0l0,-4.627l18.354,0l0,4.627l-6.35,0l0,22.217l-5.653,0Z" style="fill-rule:nonzero;"/><path d="M247.745,29.942l5.108,0c-0.062,2.532 -0.504,4.425 -1.328,5.679c-1.315,2.041 -3.503,3.061 -6.564,3.061c-3.061,0 -5.25,-0.953 -6.565,-2.858c-0.934,-1.352 -1.402,-3.676 -1.402,-6.97l0,-8.095c0,-1.906 0.13,-3.406 0.388,-4.5c0.823,-3.528 3.3,-5.292 7.431,-5.292c3.258,0 5.514,1.162 6.767,3.485c0.591,1.082 0.916,2.674 0.978,4.776l-5.127,0c-0.11,-1.475 -0.334,-2.471 -0.673,-2.987c-0.338,-0.517 -0.925,-0.775 -1.761,-0.775c-0.958,0 -1.601,0.384 -1.927,1.153c-0.325,0.768 -0.488,2.289 -0.488,4.564l0,7.265c0,2.274 0.172,3.799 0.516,4.573c0.344,0.775 1.02,1.162 2.028,1.162c0.898,0 1.549,-0.329 1.955,-0.987c0.406,-0.657 0.627,-1.742 0.664,-3.254Z" style="fill-rule:nonzero;"/><path d="M261.153,38.258l0,-26.959l5.587,0l0,11.101l5.057,0l0,-11.101l5.588,0l0,26.959l-5.588,0l0,-11.285l-5.057,0l0,11.285l-5.587,0Z" style="fill-rule:nonzero;"/></g></svg>