<?xml version="1.0" encoding="UTF-8" standalone="no"?><!DOCTYPE svg PUBLIC "-//W3C//DTD SVG 1.1//EN" "http://www.w3.org/Graphics/SVG/1.1/DTD/svg11.dtd"><svg width="100%" height="100%" viewBox="0 0 289 137" version="1.1" xmlns="http://www.w3.org/2000/svg" xmlns:xlink="http://www.w3.org/1999/xlink" xml:space="preserve" xmlns:serif="http://www.serif.com/" style="fill-rule:evenodd;clip-rule:evenodd;stroke-linejoin:round;stroke-miterlimit:2;"><rect id="t-b-break-padding" x="0.32" y="0.263" width="288" height="136.667" style="fill:none;"/><g><g><path d="M13.56,57.205l0,-45.552l23.345,0l0,7.727l-13.904,0l0,11.342l12.549,0l0,7.726l-12.549,0l0,18.757l-9.441,0Z" style="fill-rule:nonzero;"/><path d="M58.105,38.885l0,18.32l-9.441,0l0,-45.552l12.463,0c2.866,0 5.016,0.198 6.449,0.592c3.033,0.831 5.141,2.711 6.325,5.64c0.706,1.745 1.059,4.164 1.059,7.259c0,3.989 -0.42,6.907 -1.261,8.756c-0.842,1.848 -2.405,3.271 -4.69,4.268l8.647,19.037l-10.469,0l-7.338,-18.32l-1.744,0Zm-0.25,-7.198l2.649,0c2.539,0.012 3.663,-0.415 4.307,-1.246c0.81,-1.038 1.215,-2.638 1.215,-4.798c0,-2.43 -0.348,-4.113 -1.043,-5.048c-0.696,-0.934 -1.946,-1.408 -4.261,-1.402l-2.867,0l0,12.494Z" style="fill-rule:nonzero;"/><path d="M88.571,42.343l0,-15.828c0,-5.777 1.719,-8.859 3.506,-11.123c1.357,-1.719 3.466,-3.012 5.585,-3.676c1.641,-0.52 3.77,-0.779 6.387,-0.779c3.656,0 6.475,0.518 8.381,1.682c1.577,0.963 2.888,1.847 4.146,3.787c1.44,2.221 2.917,5.144 2.92,10.109l0,15.828c-0.033,6.046 -1.844,8.818 -3.506,11.123c-1.267,1.787 -3.466,3.012 -5.585,3.677c-1.641,0.519 -3.759,0.779 -6.356,0.779c-3.676,0 -6.481,-0.561 -8.412,-1.683c-1.994,-1.142 -3.665,-2.328 -4.646,-4.107c-1.119,-2.028 -2.157,-3.812 -2.42,-9.789Zm20.978,-12.585l-7.94,20.093c0.726,0.312 1.57,0.468 2.44,0.468c2.098,0 3.649,-1.027 4.526,-2.71c0.552,-1.06 1.077,-2.523 0.974,-6.045l0,-11.806Zm-2.521,-10.462c-0.828,-0.505 -1.884,-0.757 -2.979,-0.757c-2.119,0 -3.653,1.041 -4.557,2.711c-0.536,0.99 -0.939,2.398 -0.974,6.044l0,13.537l8.51,-21.535Z" style="fill-rule:nonzero;"/><path d="M132.755,57.205l0,-45.009l8.62,0l8.572,22.997l8.604,-22.997l8.62,0l0,45.009l-9.404,0l0,-24.629l-4.833,13.857l-5.942,0l-4.833,-13.857l0,24.629l-9.404,0Z" style="fill-rule:nonzero;"/></g><g><path d="M10.987,111.488l8.63,0c0.062,2.596 0.431,4.44 1.106,5.53c0.675,1.091 1.792,1.636 3.35,1.636c1.641,0 2.814,-0.462 3.52,-1.386c0.707,-0.925 1.06,-2.457 1.06,-4.596c0,-1.828 -0.395,-3.137 -1.184,-3.926c-0.457,-0.457 -0.925,-0.794 -1.402,-1.012c-0.478,-0.219 -1.88,-0.702 -4.207,-1.449c-3.323,-1.06 -5.784,-2.493 -7.384,-4.3c-1.828,-2.056 -2.742,-5.016 -2.742,-8.88c0,-9.118 4.061,-13.678 12.183,-13.678c5.317,0 8.994,1.963 11.029,5.889c0.956,1.828 1.475,4.518 1.558,8.07l-8.63,0c-0.187,-2.514 -0.525,-4.201 -1.013,-5.063c-0.488,-0.862 -1.366,-1.293 -2.633,-1.293c-2.326,0 -3.489,1.89 -3.489,5.67c0,1.62 0.41,2.861 1.23,3.723c0.821,0.863 2.353,1.667 4.596,2.415c2.285,0.748 3.89,1.335 4.814,1.761c0.924,0.425 1.812,0.981 2.664,1.666c2.409,1.911 3.614,5.245 3.614,10.002c0,2.347 -0.244,4.331 -0.732,5.951c-0.488,1.62 -1.283,3.032 -2.384,4.237c-2.243,2.534 -5.691,3.801 -10.344,3.801c-5.691,0 -9.575,-2.077 -11.653,-6.231c-0.934,-1.869 -1.454,-4.715 -1.557,-8.537Z" style="fill-rule:nonzero;"/><path d="M68.04,111.488l8.63,0c-0.104,4.279 -0.851,7.478 -2.243,9.596c-2.223,3.448 -5.92,5.172 -11.092,5.172c-5.172,0 -8.869,-1.609 -11.092,-4.829c-1.579,-2.285 -2.368,-6.211 -2.368,-11.777l0,-13.678c0,-3.22 0.218,-5.754 0.654,-7.603c1.392,-5.961 5.578,-8.942 12.557,-8.942c5.504,0 9.316,1.963 11.434,5.889c0.997,1.828 1.548,4.518 1.652,8.07l-8.662,0c-0.187,-2.493 -0.566,-4.175 -1.137,-5.048c-0.571,-0.872 -1.563,-1.308 -2.976,-1.308c-1.62,0 -2.705,0.649 -3.256,1.947c-0.55,1.298 -0.825,3.869 -0.825,7.711l0,12.276c0,3.843 0.29,6.419 0.872,7.727c0.582,1.309 1.724,1.963 3.427,1.963c1.517,0 2.618,-0.556 3.303,-1.667c0.685,-1.111 1.059,-2.944 1.122,-5.499Z" style="fill-rule:nonzero;"/><path d="M98.921,107.219l0,18.321l-9.441,0l0,-25.145l0,-20.407l12.463,0c2.866,0 5.016,0.197 6.45,0.592c3.032,0.831 5.14,2.711 6.324,5.64c0.707,1.744 1.06,4.164 1.06,7.259c0,3.988 -0.421,6.907 -1.262,8.755c-0.841,1.849 -2.404,3.272 -4.689,4.269l8.646,19.037l-10.469,0l-7.337,-18.321l-1.745,0Zm-0.249,-7.197l2.648,0c2.157,-0.06 3.634,-0.415 4.307,-1.246c0.83,-1.023 1.216,-2.638 1.216,-4.798c0,-2.431 -0.348,-4.113 -1.044,-5.048c-0.696,-0.934 -1.98,-1.403 -4.261,-1.402l-2.866,0l0,12.494Z" style="fill-rule:nonzero;"/><path d="M148.977,116.847l-9.549,0l-1.901,8.693l-10.188,0l12.891,-45.552l7.914,0l12.922,45.552l-10.188,0l-1.901,-8.693Zm-1.114,-7.478l-3.676,-16.793l-3.645,16.793l7.321,0Z" style="fill-rule:nonzero;"/><path d="M178.941,125.31l0,-37.539l-10.73,0l0,-7.819l31.012,0l0,7.819l-10.729,0l0,37.539l-9.553,0Z" style="fill-rule:nonzero;"/><path d="M227.573,111.488l8.63,0c-0.104,4.279 -0.851,7.478 -2.243,9.596c-2.223,3.448 -5.92,5.172 -11.092,5.172c-5.172,0 -8.869,-1.609 -11.092,-4.829c-1.579,-2.285 -2.368,-6.211 -2.368,-11.777l0,-13.678c0,-3.22 0.218,-5.754 0.654,-7.603c1.392,-5.961 5.578,-8.942 12.557,-8.942c5.504,0 9.316,1.963 11.434,5.889c0.997,1.828 1.548,4.518 1.652,8.07l-8.662,0c-0.187,-2.493 -0.566,-4.175 -1.137,-5.048c-0.571,-0.872 -1.563,-1.308 -2.976,-1.308c-1.62,0 -2.705,0.649 -3.256,1.947c-0.55,1.298 -0.825,3.869 -0.825,7.711l0,12.276c0,3.843 0.291,6.419 0.872,7.727c0.582,1.309 1.724,1.963 3.427,1.963c1.517,0 2.618,-0.556 3.303,-1.667c0.686,-1.111 1.059,-2.944 1.122,-5.499Z" style="fill-rule:nonzero;"/><path d="M250.227,125.54l0,-45.552l9.441,0l0,18.757l8.545,0l0,-18.757l9.44,0l0,45.552l-9.44,0l0,-19.068l-8.545,0l0,19.068l-9.441,0Z" style="fill-rule:nonzero;"/></g></g></svg>