<?xml version="1.0" encoding="UTF-8" standalone="no"?><!DOCTYPE svg PUBLIC "-//W3C//DTD SVG 1.1//EN" "http://www.w3.org/Graphics/SVG/1.1/DTD/svg11.dtd"><svg width="100%" height="100%" viewBox="0 0 267 29" version="1.1" xmlns="http://www.w3.org/2000/svg" xmlns:xlink="http://www.w3.org/1999/xlink" xml:space="preserve" xmlns:serif="http://www.serif.com/" style="fill-rule:evenodd;clip-rule:evenodd;stroke-linejoin:round;stroke-miterlimit:2;"><rect id="t-b" x="0.126" y="0.203" width="266.667" height="27.8" style="fill:none;"/><clipPath id="_clip1"><rect x="0.126" y="0.203" width="266.667" height="27.8"/></clipPath><g clip-path="url(#_clip1)"><g><path d="M0.126,27.583l0,-26.96l13.816,0l0,4.573l-8.229,0l0,6.713l7.427,0l0,4.573l-7.427,0l0,11.101l-5.587,0Z"/><path d="M26.489,16.74l0,10.843l-5.587,0l0,-26.96l7.376,0c1.696,0 2.969,0.117 3.817,0.351c1.795,0.491 3.042,1.604 3.743,3.337c0.418,1.033 0.627,2.465 0.627,4.297c0,2.36 -0.249,4.087 -0.747,5.181c-0.498,1.095 -1.423,1.937 -2.775,2.527l5.117,11.267l-6.195,0l-4.343,-10.843l-1.033,0Zm-0.147,-4.26l1.567,0c1.503,0.007 2.168,-0.246 2.549,-0.737c0.48,-0.615 0.72,-1.562 0.72,-2.84c0,-1.438 -0.206,-2.434 -0.618,-2.987c-0.412,-0.554 -1.152,-0.834 -2.522,-0.83l-1.696,0l0,7.394Z"/><path d="M44.521,18.787l0,-9.368c0,-3.419 1.017,-5.243 2.074,-6.583c0.803,-1.017 2.052,-1.782 3.306,-2.176c0.971,-0.307 2.231,-0.461 3.78,-0.461c2.164,0 3.832,0.307 4.96,0.996c0.933,0.57 1.709,1.093 2.454,2.241c0.852,1.315 1.726,3.045 1.728,5.983l0,9.368c-0.019,3.578 -1.091,5.218 -2.075,6.583c-0.75,1.057 -2.051,1.782 -3.305,2.176c-0.971,0.307 -2.225,0.461 -3.762,0.461c-2.176,0 -3.836,-0.332 -4.979,-0.996c-1.18,-0.676 -2.169,-1.378 -2.749,-2.431c-0.663,-1.2 -1.277,-2.256 -1.432,-5.793Zm12.415,-7.449l-4.699,11.892c0.429,0.185 0.929,0.277 1.444,0.277c1.242,0 2.159,-0.607 2.678,-1.604c0.327,-0.627 0.638,-1.493 0.577,-3.577l0,-6.988Zm-1.492,-6.192c-0.49,-0.298 -1.115,-0.447 -1.763,-0.447c-1.254,0 -2.162,0.616 -2.697,1.604c-0.317,0.586 -0.556,1.419 -0.576,3.577l0,8.012l5.036,-12.746Z"/><path d="M70.67,27.583l0,-26.639l5.102,0l5.073,13.611l5.092,-13.611l5.102,0l0,26.639l-5.566,0l0,-14.577l-2.86,8.201l-3.517,0l-2.86,-8.201l0,14.577l-5.566,0Z"/><path d="M108.969,19.266l5.108,0c0.037,1.537 0.255,2.628 0.654,3.273c0.4,0.646 1.061,0.968 1.983,0.968c0.971,0 1.666,-0.273 2.083,-0.82c0.418,-0.547 0.627,-1.454 0.627,-2.72c0,-1.082 -0.233,-1.856 -0.7,-2.324c-0.271,-0.27 -0.547,-0.47 -0.83,-0.599c-0.283,-0.129 -1.113,-0.415 -2.489,-0.857c-1.967,-0.627 -3.424,-1.476 -4.371,-2.545c-1.082,-1.217 -1.622,-2.969 -1.622,-5.255c0,-5.397 2.403,-8.096 7.21,-8.096c3.147,0 5.323,1.162 6.527,3.486c0.566,1.081 0.873,2.673 0.922,4.776l-5.108,0c-0.11,-1.488 -0.31,-2.487 -0.599,-2.997c-0.289,-0.51 -0.808,-0.765 -1.558,-0.765c-1.377,0 -2.065,1.118 -2.065,3.356c0,0.959 0.242,1.693 0.728,2.203c0.486,0.511 1.392,0.987 2.72,1.43c1.352,0.442 2.302,0.789 2.849,1.041c0.547,0.252 1.073,0.581 1.577,0.987c1.426,1.131 2.139,3.104 2.139,5.919c0,1.389 -0.145,2.563 -0.434,3.522c-0.289,0.959 -0.759,1.795 -1.41,2.508c-1.328,1.5 -3.369,2.25 -6.122,2.25c-3.369,0 -5.668,-1.23 -6.897,-3.688c-0.553,-1.107 -0.861,-2.791 -0.922,-5.053Z"/><path d="M142.735,19.266l5.108,0c-0.061,2.533 -0.504,4.426 -1.328,5.68c-1.315,2.04 -3.503,3.061 -6.564,3.061c-3.061,0 -5.249,-0.953 -6.565,-2.858c-0.934,-1.353 -1.401,-3.676 -1.401,-6.971l0,-8.095c0,-1.905 0.129,-3.405 0.387,-4.499c0.824,-3.528 3.301,-5.293 7.431,-5.293c3.258,0 5.514,1.162 6.768,3.486c0.59,1.081 0.916,2.673 0.977,4.776l-5.126,0c-0.111,-1.476 -0.335,-2.471 -0.673,-2.988c-0.338,-0.516 -0.925,-0.774 -1.761,-0.774c-0.959,0 -1.602,0.384 -1.927,1.152c-0.326,0.769 -0.489,2.29 -0.489,4.564l0,7.266c0,2.274 0.172,3.798 0.516,4.573c0.345,0.774 1.021,1.161 2.029,1.161c0.897,0 1.549,-0.328 1.954,-0.986c0.406,-0.658 0.627,-1.743 0.664,-3.255Z"/><path d="M161.012,16.74l0,10.843l-5.587,0l0,-14.882l0,-12.078l7.376,0c1.696,0 2.968,0.117 3.817,0.351c1.794,0.491 3.042,1.604 3.743,3.337c0.418,1.033 0.627,2.465 0.627,4.297c0,2.36 -0.249,4.087 -0.747,5.181c-0.498,1.095 -1.423,1.937 -2.775,2.527l5.117,11.267l-6.196,0l-4.342,-10.843l-1.033,0Zm-0.148,-4.26l1.568,0c1.276,-0.035 2.15,-0.246 2.549,-0.737c0.491,-0.606 0.719,-1.562 0.719,-2.84c0,-1.438 -0.206,-2.434 -0.617,-2.987c-0.412,-0.554 -1.172,-0.831 -2.522,-0.83l-1.697,0l0,7.394Z"/><path d="M190.637,22.438l-5.651,0l-1.125,5.145l-6.03,0l7.629,-26.96l4.684,0l7.648,26.96l-6.03,0l-1.125,-5.145Zm-0.659,-4.426l-2.176,-9.939l-2.157,9.939l4.333,0Z"/><path d="M208.371,27.446l0,-22.216l-6.35,0l0,-4.628l18.354,0l0,4.628l-6.35,0l0,22.216l-5.654,0Z"/><path d="M237.153,19.266l5.108,0c-0.061,2.533 -0.504,4.426 -1.328,5.68c-1.315,2.04 -3.503,3.061 -6.564,3.061c-3.061,0 -5.25,-0.953 -6.565,-2.858c-0.934,-1.353 -1.401,-3.676 -1.401,-6.971l0,-8.095c0,-1.905 0.129,-3.405 0.387,-4.499c0.824,-3.528 3.301,-5.293 7.431,-5.293c3.258,0 5.514,1.162 6.768,3.486c0.59,1.081 0.916,2.673 0.977,4.776l-5.126,0c-0.111,-1.476 -0.335,-2.471 -0.673,-2.988c-0.338,-0.516 -0.925,-0.774 -1.761,-0.774c-0.959,0 -1.602,0.384 -1.927,1.152c-0.326,0.769 -0.489,2.29 -0.489,4.564l0,7.266c0,2.274 0.172,3.798 0.516,4.573c0.345,0.774 1.021,1.161 2.029,1.161c0.897,0 1.549,-0.328 1.954,-0.986c0.406,-0.658 0.627,-1.743 0.664,-3.255Z"/><path d="M250.561,27.583l0,-26.96l5.587,0l0,11.101l5.058,0l0,-11.101l5.587,0l0,26.96l-5.587,0l0,-11.286l-5.058,0l0,11.286l-5.587,0Z"/></g></g></svg>