<?xml version="1.0" encoding="UTF-8" standalone="no"?><!DOCTYPE svg PUBLIC "-//W3C//DTD SVG 1.1//EN" "http://www.w3.org/Graphics/SVG/1.1/DTD/svg11.dtd"><svg width="100%" height="100%" viewBox="0 0 289 50" version="1.1" xmlns="http://www.w3.org/2000/svg" xmlns:xlink="http://www.w3.org/1999/xlink" xml:space="preserve" xmlns:serif="http://www.serif.com/" style="fill-rule:evenodd;clip-rule:evenodd;stroke-linejoin:round;stroke-miterlimit:2;"><rect id="t-w-padding" x="0.191" y="0.16" width="288" height="49.133" style="fill:none;"/><g><path d="M10.857,38.206l0,-26.959l13.817,0l0,4.573l-8.229,0l0,6.712l7.427,0l0,4.573l-7.427,0l0,11.101l-5.588,0Z" style="fill:#fff;fill-rule:nonzero;"/><path d="M37.22,27.364l0,10.842l-5.587,0l0,-26.959l7.376,0c1.697,0 2.969,0.117 3.817,0.35c1.795,0.492 3.043,1.605 3.744,3.338c0.417,1.033 0.626,2.465 0.626,4.296c0,2.361 -0.248,4.088 -0.746,5.182c-0.498,1.094 -1.423,1.936 -2.776,2.526l5.118,11.267l-6.196,0l-4.343,-10.842l-1.033,0Zm-0.147,-4.26l1.567,0c1.503,0.007 2.169,-0.246 2.55,-0.738c0.479,-0.614 0.719,-1.561 0.719,-2.839c0,-1.439 -0.206,-2.435 -0.618,-2.988c-0.412,-0.553 -1.152,-0.833 -2.522,-0.83l-1.696,0l0,7.395Z" style="fill:#fff;fill-rule:nonzero;"/><path d="M55.252,29.41l0,-9.367c0,-3.419 1.017,-5.243 2.075,-6.583c0.803,-1.018 2.051,-1.783 3.305,-2.176c0.971,-0.307 2.231,-0.461 3.78,-0.461c2.164,0 3.832,0.306 4.961,0.996c0.933,0.57 1.709,1.093 2.453,2.241c0.852,1.314 1.727,3.044 1.728,5.983l0,9.367c-0.019,3.579 -1.091,5.219 -2.075,6.583c-0.749,1.058 -2.051,1.783 -3.305,2.176c-0.971,0.308 -2.225,0.461 -3.762,0.461c-2.176,0 -3.835,-0.332 -4.979,-0.995c-1.18,-0.677 -2.168,-1.378 -2.749,-2.431c-0.662,-1.201 -1.277,-2.256 -1.432,-5.794Zm12.415,-7.448l-4.699,11.892c0.43,0.185 0.929,0.277 1.444,0.277c1.242,0 2.16,-0.608 2.679,-1.604c0.326,-0.627 0.637,-1.493 0.576,-3.578l0,-6.987Zm-1.492,-6.192c-0.49,-0.298 -1.115,-0.448 -1.763,-0.448c-1.254,0 -2.162,0.616 -2.697,1.604c-0.317,0.586 -0.556,1.42 -0.576,3.578l0,8.011l5.036,-12.745Z" style="fill:#fff;fill-rule:nonzero;"/><path d="M81.401,38.206l0,-26.638l5.102,0l5.074,13.611l5.091,-13.611l5.102,0l0,26.638l-5.565,0l0,-14.576l-2.861,8.201l-3.516,0l-2.861,-8.201l0,14.576l-5.566,0Z" style="fill:#fff;fill-rule:nonzero;"/><path d="M119.7,29.89l5.108,0c0.037,1.536 0.255,2.627 0.655,3.273c0.399,0.645 1.06,0.968 1.982,0.968c0.971,0 1.666,-0.274 2.084,-0.821c0.418,-0.547 0.627,-1.453 0.627,-2.719c0,-1.082 -0.234,-1.857 -0.701,-2.324c-0.27,-0.27 -0.547,-0.47 -0.83,-0.599c-0.282,-0.129 -1.112,-0.415 -2.489,-0.858c-1.967,-0.627 -3.424,-1.475 -4.37,-2.544c-1.082,-1.217 -1.623,-2.969 -1.623,-5.256c0,-5.397 2.403,-8.095 7.21,-8.095c3.147,0 5.323,1.162 6.528,3.485c0.565,1.082 0.872,2.674 0.922,4.776l-5.108,0c-0.111,-1.487 -0.311,-2.486 -0.6,-2.996c-0.288,-0.51 -0.808,-0.766 -1.558,-0.766c-1.377,0 -2.065,1.119 -2.065,3.356c0,0.959 0.243,1.694 0.728,2.204c0.486,0.51 1.393,0.987 2.72,1.429c1.353,0.443 2.302,0.79 2.849,1.042c0.547,0.252 1.073,0.581 1.577,0.987c1.426,1.131 2.139,3.104 2.139,5.919c0,1.389 -0.145,2.563 -0.433,3.522c-0.289,0.959 -0.76,1.795 -1.411,2.508c-1.328,1.499 -3.368,2.249 -6.122,2.249c-3.369,0 -5.667,-1.229 -6.897,-3.688c-0.553,-1.106 -0.86,-2.79 -0.922,-5.052Z" style="fill:#fff;fill-rule:nonzero;"/><path d="M153.467,29.89l5.107,0c-0.061,2.532 -0.504,4.425 -1.327,5.679c-1.316,2.041 -3.504,3.061 -6.565,3.061c-3.061,0 -5.249,-0.952 -6.565,-2.858c-0.934,-1.352 -1.401,-3.676 -1.401,-6.97l0,-8.095c0,-1.906 0.129,-3.406 0.387,-4.5c0.824,-3.528 3.301,-5.292 7.432,-5.292c3.257,0 5.513,1.162 6.767,3.485c0.59,1.082 0.916,2.674 0.977,4.776l-5.126,0c-0.111,-1.475 -0.335,-2.471 -0.673,-2.987c-0.338,-0.516 -0.925,-0.775 -1.761,-0.775c-0.959,0 -1.601,0.385 -1.927,1.153c-0.326,0.768 -0.489,2.29 -0.489,4.564l0,7.265c0,2.274 0.172,3.799 0.517,4.573c0.344,0.775 1.02,1.162 2.028,1.162c0.897,0 1.549,-0.329 1.955,-0.987c0.405,-0.657 0.627,-1.742 0.664,-3.254Z" style="fill:#fff;fill-rule:nonzero;"/><path d="M171.743,27.364l0,10.842l-5.587,0l0,-14.882l0,-12.077l7.376,0c1.696,0 2.969,0.117 3.817,0.35c1.795,0.492 3.043,1.605 3.743,3.338c0.418,1.033 0.627,2.465 0.627,4.296c0,2.361 -0.249,4.088 -0.747,5.182c-0.497,1.094 -1.423,1.936 -2.775,2.526l5.117,11.267l-6.195,0l-4.343,-10.842l-1.033,0Zm-0.147,-4.26l1.567,0c1.276,-0.035 2.151,-0.246 2.549,-0.738c0.491,-0.605 0.72,-1.561 0.72,-2.839c0,-1.439 -0.206,-2.435 -0.618,-2.988c-0.412,-0.553 -1.172,-0.831 -2.522,-0.83l-1.696,0l0,7.395Z" style="fill:#fff;fill-rule:nonzero;"/><path d="M201.369,33.061l-5.652,0l-1.125,5.145l-6.03,0l7.63,-26.959l4.683,0l7.648,26.959l-6.03,0l-1.124,-5.145Zm-0.66,-4.425l-2.175,-9.939l-2.158,9.939l4.333,0Z" style="fill:#fff;fill-rule:nonzero;"/><path d="M219.102,38.07l0,-22.217l-6.35,0l0,-4.627l18.354,0l0,4.627l-6.35,0l0,22.217l-5.654,0Z" style="fill:#fff;fill-rule:nonzero;"/><path d="M247.885,29.89l5.107,0c-0.061,2.532 -0.504,4.425 -1.327,5.679c-1.316,2.041 -3.504,3.061 -6.565,3.061c-3.061,0 -5.249,-0.952 -6.565,-2.858c-0.934,-1.352 -1.401,-3.676 -1.401,-6.97l0,-8.095c0,-1.906 0.129,-3.406 0.387,-4.5c0.824,-3.528 3.301,-5.292 7.432,-5.292c3.257,0 5.513,1.162 6.767,3.485c0.59,1.082 0.916,2.674 0.977,4.776l-5.126,0c-0.111,-1.475 -0.335,-2.471 -0.673,-2.987c-0.338,-0.516 -0.925,-0.775 -1.761,-0.775c-0.959,0 -1.601,0.385 -1.927,1.153c-0.326,0.768 -0.489,2.29 -0.489,4.564l0,7.265c0,2.274 0.172,3.799 0.517,4.573c0.344,0.775 1.02,1.162 2.028,1.162c0.897,0 1.549,-0.329 1.955,-0.987c0.405,-0.657 0.627,-1.742 0.664,-3.254Z" style="fill:#fff;fill-rule:nonzero;"/><path d="M261.292,38.206l0,-26.959l5.588,0l0,11.101l5.057,0l0,-11.101l5.587,0l0,26.959l-5.587,0l0,-11.285l-5.057,0l0,11.285l-5.588,0Z" style="fill:#fff;fill-rule:nonzero;"/></g></svg>