<?xml version="1.0" encoding="UTF-8" standalone="no"?><!DOCTYPE svg PUBLIC "-//W3C//DTD SVG 1.1//EN" "http://www.w3.org/Graphics/SVG/1.1/DTD/svg11.dtd"><svg width="100%" height="100%" viewBox="0 0 267 116" version="1.1" xmlns="http://www.w3.org/2000/svg" xmlns:xlink="http://www.w3.org/1999/xlink" xml:space="preserve" xmlns:serif="http://www.serif.com/" style="fill-rule:evenodd;clip-rule:evenodd;stroke-linejoin:round;stroke-miterlimit:2;"><rect id="t-w-break" x="0.16" y="0.237" width="266.667" height="115.333" style="fill:none;"/><clipPath id="_clip1"><rect x="0.16" y="0.237" width="266.667" height="115.333"/></clipPath><g clip-path="url(#_clip1)"><g><g><path d="M2.734,46.512l0,-45.552l23.344,0l0,7.727l-13.904,0l0,11.341l12.549,0l0,7.727l-12.549,0l0,18.757l-9.44,0Z" style="fill:#fff;"/><path d="M47.278,28.191l0,18.321l-9.441,0l0,-45.552l12.463,0c2.867,0 5.017,0.197 6.45,0.592c3.032,0.831 5.141,2.711 6.325,5.639c0.706,1.745 1.059,4.165 1.059,7.26c0,3.988 -0.421,6.906 -1.262,8.755c-0.841,1.849 -2.404,3.272 -4.689,4.269l8.646,19.037l-10.468,0l-7.338,-18.321l-1.745,0Zm-0.249,-7.197l2.648,0c2.539,0.011 3.664,-0.415 4.308,-1.246c0.81,-1.039 1.215,-2.638 1.215,-4.798c0,-2.431 -0.348,-4.113 -1.044,-5.048c-0.696,-0.935 -1.946,-1.408 -4.261,-1.402l-2.866,0l0,12.494Z" style="fill:#fff;"/><path d="M77.745,31.65l0,-15.828c0,-5.777 1.719,-8.859 3.505,-11.123c1.357,-1.719 3.467,-3.012 5.585,-3.677c1.641,-0.519 3.77,-0.779 6.388,-0.779c3.655,0 6.475,0.518 8.381,1.683c1.576,0.963 2.887,1.847 4.145,3.787c1.44,2.221 2.918,5.144 2.92,10.109l0,15.828c-0.032,6.046 -1.844,8.817 -3.505,11.123c-1.267,1.786 -3.467,3.012 -5.585,3.676c-1.641,0.52 -3.76,0.779 -6.356,0.779c-3.677,0 -6.481,-0.561 -8.413,-1.682c-1.994,-1.143 -3.664,-2.328 -4.646,-4.107c-1.119,-2.029 -2.156,-3.812 -2.419,-9.789Zm20.977,-12.585l-7.94,20.093c0.726,0.312 1.57,0.468 2.441,0.468c2.098,0 3.648,-1.027 4.525,-2.711c0.552,-1.059 1.077,-2.522 0.974,-6.044l0,-11.806Zm-2.52,-10.463c-0.828,-0.504 -1.885,-0.756 -2.979,-0.756c-2.119,0 -3.653,1.041 -4.557,2.71c-0.536,0.99 -0.94,2.398 -0.974,6.045l0,13.536l8.51,-21.535Z" style="fill:#fff;"/><path d="M121.928,46.512l0,-45.01l8.621,0l8.572,22.998l8.603,-22.998l8.62,0l0,45.01l-9.403,0l0,-24.629l-4.834,13.857l-5.942,0l-4.833,-13.857l0,24.629l-9.404,0Z" style="fill:#fff;"/></g><g><path d="M0.16,100.795l8.631,0c0.062,2.596 0.431,4.439 1.106,5.53c0.675,1.09 1.791,1.636 3.349,1.636c1.641,0 2.815,-0.463 3.521,-1.387c0.706,-0.924 1.059,-2.456 1.059,-4.596c0,-1.827 -0.394,-3.136 -1.184,-3.925c-0.457,-0.457 -0.924,-0.795 -1.402,-1.013c-0.478,-0.218 -1.88,-0.701 -4.206,-1.449c-3.323,-1.059 -5.785,-2.492 -7.384,-4.299c-1.828,-2.057 -2.742,-5.017 -2.742,-8.88c0,-9.119 4.061,-13.678 12.182,-13.678c5.318,0 8.994,1.963 11.03,5.889c0.955,1.827 1.475,4.517 1.558,8.069l-8.631,0c-0.187,-2.513 -0.524,-4.201 -1.012,-5.063c-0.488,-0.862 -1.366,-1.293 -2.633,-1.293c-2.327,0 -3.49,1.89 -3.49,5.671c0,1.62 0.411,2.861 1.231,3.723c0.82,0.862 2.352,1.667 4.596,2.415c2.284,0.748 3.889,1.334 4.813,1.76c0.925,0.426 1.813,0.982 2.664,1.667c2.41,1.911 3.615,5.245 3.615,10.001c0,2.348 -0.245,4.331 -0.733,5.951c-0.488,1.621 -1.282,3.033 -2.383,4.238c-2.243,2.534 -5.692,3.801 -10.344,3.801c-5.692,0 -9.576,-2.077 -11.653,-6.231c-0.935,-1.87 -1.454,-4.716 -1.558,-8.537Z" style="fill:#fff;"/><path d="M57.213,100.795l8.631,0c-0.104,4.278 -0.852,7.477 -2.244,9.596c-2.222,3.448 -5.919,5.172 -11.092,5.172c-5.172,0 -8.869,-1.61 -11.091,-4.829c-1.579,-2.285 -2.368,-6.211 -2.368,-11.778l0,-13.678c0,-3.219 0.218,-5.753 0.654,-7.602c1.392,-5.961 5.577,-8.942 12.556,-8.942c5.505,0 9.316,1.963 11.435,5.889c0.997,1.827 1.547,4.517 1.651,8.069l-8.661,0c-0.187,-2.492 -0.567,-4.175 -1.138,-5.047c-0.571,-0.873 -1.563,-1.309 -2.975,-1.309c-1.62,0 -2.706,0.649 -3.256,1.948c-0.551,1.298 -0.826,3.868 -0.826,7.711l0,12.276c0,3.842 0.291,6.418 0.873,7.727c0.581,1.308 1.724,1.963 3.427,1.963c1.516,0 2.617,-0.556 3.303,-1.667c0.685,-1.112 1.059,-2.945 1.121,-5.499Z" style="fill:#fff;"/><path d="M88.094,96.526l0,18.32l-9.44,0l0,-25.145l0,-20.406l12.463,0c2.866,0 5.016,0.197 6.449,0.592c3.033,0.831 5.141,2.71 6.325,5.639c0.706,1.745 1.059,4.165 1.059,7.26c0,3.988 -0.42,6.906 -1.262,8.755c-0.841,1.849 -2.404,3.271 -4.689,4.268l8.647,19.037l-10.469,0l-7.338,-18.32l-1.745,0Zm-0.249,-7.197l2.648,0c2.157,-0.06 3.634,-0.416 4.308,-1.247c0.83,-1.023 1.215,-2.638 1.215,-4.798c0,-2.43 -0.348,-4.112 -1.044,-5.047c-0.695,-0.935 -1.98,-1.404 -4.261,-1.402l-2.866,0l0,12.494Z" style="fill:#fff;"/><path d="M138.151,106.154l-9.55,0l-1.9,8.692l-10.189,0l12.892,-45.551l7.913,0l12.923,45.551l-10.189,0l-1.9,-8.692Zm-1.114,-7.478l-3.677,-16.794l-3.645,16.794l7.322,0Z" style="fill:#fff;"/><path d="M168.114,114.616l0,-37.538l-10.729,0l0,-7.819l31.011,0l0,7.819l-10.729,0l0,37.538l-9.553,0Z" style="fill:#fff;"/><path d="M216.746,100.795l8.631,0c-0.104,4.278 -0.852,7.477 -2.244,9.596c-2.222,3.448 -5.919,5.172 -11.091,5.172c-5.173,0 -8.87,-1.61 -11.092,-4.829c-1.579,-2.285 -2.368,-6.211 -2.368,-11.778l0,-13.678c0,-3.219 0.218,-5.753 0.654,-7.602c1.392,-5.961 5.577,-8.942 12.556,-8.942c5.505,0 9.316,1.963 11.435,5.889c0.997,1.827 1.547,4.517 1.651,8.069l-8.661,0c-0.187,-2.492 -0.566,-4.175 -1.138,-5.047c-0.571,-0.873 -1.563,-1.309 -2.975,-1.309c-1.62,0 -2.706,0.649 -3.256,1.948c-0.551,1.298 -0.826,3.868 -0.826,7.711l0,12.276c0,3.842 0.291,6.418 0.873,7.727c0.581,1.308 1.724,1.963 3.427,1.963c1.516,0 2.617,-0.556 3.303,-1.667c0.685,-1.112 1.059,-2.945 1.121,-5.499Z" style="fill:#fff;"/><path d="M239.401,114.846l0,-45.551l9.44,0l0,18.756l8.545,0l0,-18.756l9.441,0l0,45.551l-9.441,0l0,-19.068l-8.545,0l0,19.068l-9.44,0Z" style="fill:#fff;"/></g></g></g></svg>