<?xml version="1.0" encoding="UTF-8" standalone="no"?><!DOCTYPE svg PUBLIC "-//W3C//DTD SVG 1.1//EN" "http://www.w3.org/Graphics/SVG/1.1/DTD/svg11.dtd"><svg width="100%" height="100%" viewBox="0 0 267 28" version="1.1" xmlns="http://www.w3.org/2000/svg" xmlns:xlink="http://www.w3.org/1999/xlink" xml:space="preserve" xmlns:serif="http://www.serif.com/" style="fill-rule:evenodd;clip-rule:evenodd;stroke-linejoin:round;stroke-miterlimit:2;"><rect id="t-w" x="0.303" y="0.195" width="266.667" height="27.8" style="fill:none;"/><clipPath id="_clip1"><rect x="0.303" y="0.195" width="266.667" height="27.8"/></clipPath><g clip-path="url(#_clip1)"><g><path d="M0.303,27.575l0,-26.959l13.816,0l0,4.573l-8.229,0l0,6.712l7.427,0l0,4.573l-7.427,0l0,11.101l-5.587,0Z" style="fill:#fff;"/><path d="M26.666,16.732l0,10.843l-5.588,0l0,-26.959l7.376,0c1.697,0 2.969,0.116 3.817,0.35c1.795,0.492 3.043,1.604 3.744,3.338c0.418,1.032 0.627,2.464 0.627,4.296c0,2.36 -0.249,4.088 -0.747,5.182c-0.498,1.094 -1.423,1.936 -2.775,2.526l5.117,11.267l-6.196,0l-4.343,-10.843l-1.032,0Zm-0.148,-4.26l1.568,0c1.502,0.007 2.168,-0.245 2.549,-0.737c0.479,-0.615 0.719,-1.561 0.719,-2.84c0,-1.438 -0.206,-2.434 -0.618,-2.987c-0.411,-0.553 -1.151,-0.834 -2.521,-0.83l-1.697,0l0,7.394Z" style="fill:#fff;"/><path d="M44.697,18.779l0,-9.368c0,-3.419 1.017,-5.243 2.075,-6.583c0.803,-1.017 2.051,-1.782 3.305,-2.176c0.971,-0.307 2.232,-0.461 3.78,-0.461c2.164,0 3.833,0.307 4.961,0.996c0.933,0.57 1.709,1.093 2.453,2.242c0.853,1.314 1.727,3.044 1.728,5.982l0,9.368c-0.019,3.578 -1.091,5.218 -2.074,6.583c-0.75,1.057 -2.052,1.782 -3.306,2.176c-0.971,0.307 -2.225,0.461 -3.762,0.461c-2.175,0 -3.835,-0.332 -4.978,-0.996c-1.18,-0.676 -2.169,-1.378 -2.75,-2.431c-0.662,-1.2 -1.276,-2.255 -1.432,-5.793Zm12.415,-7.448l-4.699,11.892c0.43,0.184 0.93,0.277 1.444,0.277c1.242,0 2.16,-0.608 2.679,-1.605c0.327,-0.627 0.637,-1.493 0.576,-3.577l0,-6.987Zm-1.491,-6.192c-0.49,-0.299 -1.116,-0.448 -1.764,-0.448c-1.253,0 -2.161,0.616 -2.696,1.604c-0.318,0.586 -0.556,1.419 -0.577,3.577l0,8.012l5.037,-12.745Z" style="fill:#fff;"/><path d="M70.847,27.575l0,-26.639l5.101,0l5.074,13.611l5.092,-13.611l5.101,0l0,26.639l-5.565,0l0,-14.577l-2.861,8.201l-3.516,0l-2.861,-8.201l0,14.577l-5.565,0Z" style="fill:#fff;"/><path d="M109.146,19.258l5.107,0c0.037,1.537 0.256,2.628 0.655,3.273c0.4,0.646 1.06,0.969 1.982,0.969c0.972,0 1.666,-0.274 2.084,-0.821c0.418,-0.547 0.627,-1.454 0.627,-2.72c0,-1.082 -0.234,-1.856 -0.701,-2.323c-0.27,-0.271 -0.547,-0.471 -0.83,-0.6c-0.282,-0.129 -1.112,-0.415 -2.489,-0.857c-1.967,-0.627 -3.424,-1.475 -4.37,-2.545c-1.082,-1.217 -1.623,-2.969 -1.623,-5.255c0,-5.397 2.403,-8.095 7.21,-8.095c3.147,0 5.323,1.161 6.528,3.485c0.565,1.082 0.873,2.674 0.922,4.776l-5.108,0c-0.111,-1.488 -0.31,-2.487 -0.599,-2.997c-0.289,-0.51 -0.809,-0.765 -1.558,-0.765c-1.377,0 -2.066,1.119 -2.066,3.356c0,0.959 0.243,1.693 0.729,2.204c0.485,0.51 1.392,0.986 2.72,1.429c1.352,0.442 2.301,0.79 2.849,1.042c0.547,0.252 1.072,0.58 1.576,0.986c1.426,1.131 2.139,3.104 2.139,5.919c0,1.389 -0.144,2.563 -0.433,3.522c-0.289,0.959 -0.759,1.795 -1.411,2.508c-1.328,1.5 -3.368,2.25 -6.122,2.25c-3.368,0 -5.667,-1.229 -6.896,-3.688c-0.554,-1.107 -0.861,-2.791 -0.922,-5.053Z" style="fill:#fff;"/><path d="M142.912,19.258l5.108,0c-0.062,2.533 -0.504,4.426 -1.328,5.68c-1.315,2.041 -3.504,3.061 -6.565,3.061c-3.061,0 -5.249,-0.953 -6.564,-2.858c-0.935,-1.353 -1.402,-3.676 -1.402,-6.971l0,-8.095c0,-1.905 0.129,-3.405 0.388,-4.499c0.823,-3.528 3.3,-5.292 7.431,-5.292c3.258,0 5.513,1.161 6.767,3.485c0.59,1.082 0.916,2.674 0.978,4.776l-5.127,0c-0.11,-1.475 -0.335,-2.471 -0.673,-2.988c-0.338,-0.516 -0.925,-0.774 -1.761,-0.774c-0.959,0 -1.601,0.384 -1.927,1.152c-0.326,0.769 -0.488,2.29 -0.488,4.564l0,7.266c0,2.274 0.172,3.798 0.516,4.573c0.344,0.774 1.02,1.162 2.028,1.162c0.898,0 1.549,-0.329 1.955,-0.987c0.406,-0.658 0.627,-1.743 0.664,-3.255Z" style="fill:#fff;"/><path d="M161.188,16.732l0,10.843l-5.587,0l0,-14.882l0,-12.077l7.376,0c1.697,0 2.969,0.116 3.817,0.35c1.795,0.492 3.043,1.604 3.744,3.338c0.418,1.032 0.626,2.464 0.626,4.296c0,2.36 -0.248,4.088 -0.746,5.182c-0.498,1.094 -1.423,1.936 -2.776,2.526l5.118,11.267l-6.196,0l-4.343,-10.843l-1.033,0Zm-0.147,-4.26l1.567,0c1.277,-0.035 2.151,-0.245 2.55,-0.737c0.491,-0.606 0.719,-1.561 0.719,-2.84c0,-1.438 -0.206,-2.434 -0.618,-2.987c-0.412,-0.553 -1.172,-0.831 -2.522,-0.83l-1.696,0l0,7.394Z" style="fill:#fff;"/><path d="M190.814,22.43l-5.652,0l-1.125,5.145l-6.03,0l7.63,-26.959l4.684,0l7.648,26.959l-6.03,0l-1.125,-5.145Zm-0.659,-4.426l-2.176,-9.939l-2.158,9.939l4.334,0Z" style="fill:#fff;"/><path d="M208.547,27.439l0,-22.217l-6.35,0l0,-4.628l18.354,0l0,4.628l-6.35,0l0,22.217l-5.654,0Z" style="fill:#fff;"/><path d="M237.33,19.258l5.108,0c-0.062,2.533 -0.504,4.426 -1.328,5.68c-1.315,2.041 -3.504,3.061 -6.565,3.061c-3.061,0 -5.249,-0.953 -6.564,-2.858c-0.935,-1.353 -1.402,-3.676 -1.402,-6.971l0,-8.095c0,-1.905 0.129,-3.405 0.387,-4.499c0.824,-3.528 3.301,-5.292 7.432,-5.292c3.258,0 5.513,1.161 6.767,3.485c0.59,1.082 0.916,2.674 0.978,4.776l-5.127,0c-0.11,-1.475 -0.335,-2.471 -0.673,-2.988c-0.338,-0.516 -0.925,-0.774 -1.761,-0.774c-0.959,0 -1.601,0.384 -1.927,1.152c-0.326,0.769 -0.488,2.29 -0.488,4.564l0,7.266c0,2.274 0.172,3.798 0.516,4.573c0.344,0.774 1.02,1.162 2.028,1.162c0.898,0 1.549,-0.329 1.955,-0.987c0.406,-0.658 0.627,-1.743 0.664,-3.255Z" style="fill:#fff;"/><path d="M250.738,27.575l0,-26.959l5.587,0l0,11.1l5.057,0l0,-11.1l5.587,0l0,26.959l-5.587,0l0,-11.286l-5.057,0l0,11.286l-5.587,0Z" style="fill:#fff;"/></g></g></svg>