<?xml version="1.0" encoding="UTF-8" standalone="no"?><!DOCTYPE svg PUBLIC "-//W3C//DTD SVG 1.1//EN" "http://www.w3.org/Graphics/SVG/1.1/DTD/svg11.dtd"><svg width="100%" height="100%" viewBox="0 0 193 193" version="1.1" xmlns="http://www.w3.org/2000/svg" xmlns:xlink="http://www.w3.org/1999/xlink" xml:space="preserve" xmlns:serif="http://www.serif.com/" style="fill-rule:evenodd;clip-rule:evenodd;stroke-linejoin:round;stroke-miterlimit:2;"><rect id="b-padding" x="0.236" y="0.019" width="192" height="192" style="fill:#fff;fill-opacity:0;"/><path d="M84.749,166.925c-0.348,0.638 3.16,1.988 3.1,3.827c-1.323,0.152 -5.196,-4.164 -6.236,-3.827c-1.039,0.337 0.733,6.475 0,5.849c-0.567,-0.483 -2.448,-4.795 -3.611,-7.626c-0.342,-0.832 -0.622,-1.535 -0.789,-1.977c-0.243,-0.646 -0.168,-1.4 0,-2.069c0.177,-0.7 1.225,-1.354 1.058,-2.128c-0.352,-1.635 -2.862,-6.402 -3.17,-7.683c-0.103,-0.43 0.956,-0.241 1.326,0c0.855,0.557 2.924,4.781 3.806,3.342c1.675,-2.733 5.484,-14.531 6.246,-19.738c0.089,-0.613 -7.711,8.724 -14.814,7.518c-3.436,-0.583 -8.715,-4.287 -9.735,-10.666c-11.575,0.967 -20.313,-10.505 -20.313,-10.505c0,0 -15.816,-19.816 -2.164,-42.694c1.916,-0.099 1.841,1.024 1.896,0.955c1.514,-2.89 2.513,-0.91 4.072,0.649c1.15,-1.936 1.885,0.512 1.885,0.512c0,0 2.738,24.226 42.629,36.237c1.756,-21.542 0.823,-38.892 0.235,-46.29c-0.705,-6.024 -1.531,-11.823 -1.214,-16.306c-0.512,-2.823 -3.401,-7.906 -3.401,-7.906c0,0 -10.187,6.005 -19.815,0.813c-4.848,-3.102 3.305,-2.622 7.124,-6.166c0.96,-1.98 -2.666,-3.171 -2.036,-4.361c1.046,-2.321 5.189,0.62 7.226,-2.314c1.348,-3.008 -1.457,-4.822 -0.378,-5.848c1.08,-1.027 5.604,0.448 7.073,-1.064c2.077,-1.997 0.528,-4.44 0.806,-5.644c1.255,-0.535 2.528,-0.302 4.38,0.602c1.852,0.904 3.098,0.25 3.321,0c0.223,-0.251 0.824,-0.166 1.567,-2.638c0.742,-2.472 5.566,4.014 6.057,4.474c0.491,0.459 1.322,6.028 1.854,6.246c0.633,0.259 6.193,-1.867 7.548,-2.094c0.307,-0.051 0.576,0.506 0.582,0.73c-0.008,0.4 -2.729,6.179 -2.357,6.657c1.798,1.783 7.189,4.367 8.43,6.199c0.656,0.968 0.407,1.38 0.174,2.011c-0.271,0.734 -1.148,1.642 -1.802,2.397c-0.892,1.029 -3.849,3.221 -3.546,3.777c0.153,0.281 13.762,-1.762 30.292,11.442c11.466,10.95 16.079,26.02 16.095,28.512c0.388,4.968 1.725,16.405 -3.826,27.968c-5.551,11.563 -14.464,15.767 -18.082,18.346c-3.618,2.58 -4.444,1.895 -3.786,3.473c3.002,7.192 10.61,15.852 10.61,15.852c0,0 5.415,-4.266 6.3,-3.393c-0.373,1.055 -3.98,3.017 -3.568,3.393c0.411,0.376 5.217,-1.725 6.038,-1.136c0.147,0.926 -4.359,2.364 -4.195,2.837c0.165,0.473 6.158,-0.808 5.185,0c-0.916,0.761 -9.88,3.507 -11.983,3.369c-1.984,0.901 -3.966,0.237 -3.966,0.237c0,0 -4.096,3.4 -5.791,3.621c-0.272,0.04 -0.896,-0.33 -1.001,-1.526c0.227,-1.244 3.325,-3.83 2.926,-4.197c-4.289,-3.951 -16.249,-11.782 -27.697,-12.288c-3.26,-0.144 -18.002,14.638 -20.565,18.011c-1.138,1.498 3.783,0.548 5.186,2.228c-0.814,0.9 -4.839,-0.638 -5.186,0Zm47.043,-26.742c0.019,-0.146 0.171,-0.481 0.254,-0.36c-0.098,1.265 1.872,4.646 4.196,7.929c2.533,3.578 5.476,7.061 6.369,8.123c-0.166,0.219 -0.273,0.198 -0.4,0.411c-0.761,-1.514 -10.848,-12.642 -10.419,-16.103Zm-23.968,-16.497l31.473,-54.744c0,0 13.837,17.537 2.767,36.863c-12.07,21.075 -34.24,17.881 -34.24,17.881Zm-4.486,-8.132l-0.925,1.607l1.312,0.754l0.834,-1.45l0.893,0.514l-0.834,1.45l2.168,1.248l-0.628,1.091l-5.266,-3.029l1.553,-2.699l0.893,0.514Zm-7.951,4.304l34.215,-59.628l0.83,0.509l-34.27,59.433l-0.775,-0.314Zm13.734,-4.239l-0.628,1.091l-5.266,-3.029l0.829,-1.441c0.19,-0.331 0.356,-0.567 0.497,-0.706c0.298,-0.296 0.655,-0.414 1.073,-0.356c0.248,0.034 0.551,0.154 0.909,0.36c0.461,0.265 0.771,0.508 0.928,0.728c0.158,0.22 0.219,0.496 0.182,0.826l2.776,0.266l-0.696,1.211l-2.606,-0.37l-0.116,0.201l2.118,1.219Zm-4.221,-2.831l-0.19,0.332l1.444,0.83l0.176,-0.306c0.17,-0.292 0.196,-0.451 0.143,-0.581c-0.067,-0.162 -0.225,-0.315 -0.474,-0.459c-0.281,-0.162 -0.499,-0.233 -0.653,-0.215c-0.155,0.018 -0.292,0.131 -0.446,0.399Zm38.425,-5.204c1.417,-2.431 2.659,-5.996 2.659,-5.996l-0.868,-0.625c0,0 -1.121,2.814 -2.697,5.839c-1.424,2.874 -4.022,5.574 -4.022,5.574l0.93,0.599c0,0 2.317,-2.505 3.998,-5.391Zm-33.896,3.524l-1.83,-1.052c-0.668,-0.385 -0.91,-0.788 -1.053,-1.145c-0.108,-0.271 -0.118,-0.601 -0.053,-0.89c0.049,-0.225 0.16,-0.488 0.334,-0.791c0.243,-0.422 0.491,-0.714 0.752,-0.857c0.216,-0.118 0.406,-0.211 0.714,-0.227c0.352,-0.019 0.788,0.005 1.362,0.335l1.83,1.052c0.697,0.406 0.897,0.8 1.053,1.145c0.122,0.266 0.117,0.601 0.053,0.89c-0.049,0.225 -0.16,0.487 -0.332,0.787c-0.245,0.425 -0.496,0.712 -0.754,0.861c-0.265,0.154 -0.513,0.268 -0.784,0.264c-0.309,-0.006 -0.584,-0.005 -1.292,-0.372Zm-0.06,-3.262l1.795,2.254c0.084,-0.063 0.158,-0.15 0.216,-0.251c0.139,-0.242 0.124,-0.49 -0.012,-0.703c-0.086,-0.134 -0.22,-0.292 -0.634,-0.515l-1.365,-0.785Zm-1.377,-0.404c-0.114,0.062 -0.213,0.167 -0.286,0.294c-0.141,0.245 -0.122,0.491 0.01,0.707c0.079,0.128 0.215,0.268 0.634,0.515l1.565,0.9l-1.923,-2.416Zm6.718,-1.54l-0.625,1.087l-5.203,-2.993l0.573,-0.997l3.229,0.538l-2.087,-2.523l0.573,-0.997l5.204,2.993l-0.626,1.087l-2.847,-1.638l1.281,1.481l-0.396,0.687l-1.923,-0.363l2.847,1.638Zm-68.652,-24.601c-0.042,-0.243 0.243,-0.845 0.376,-0.637c2.229,5.687 3.497,12.374 11.929,19.856c-7.989,-6.355 -9.68,-11.683 -12.305,-19.219Zm95.243,-19.786c0,0 9.911,11.543 12.776,19.415c4.225,8.169 4.292,18.758 4.292,18.758c0,0 0.612,-11.468 -4.048,-19.825c-7.071,-13.778 -13.02,-18.348 -13.02,-18.348Zm-24.933,32.905l-0.574,0.997c-0.303,-0.145 -0.52,-0.218 -0.652,-0.219c-0.132,-0.001 -0.241,0.072 -0.325,0.218c-0.155,0.269 -0.013,0.529 0.424,0.781c0.187,0.107 0.358,0.143 0.512,0.105c0.154,-0.037 0.349,-0.161 0.585,-0.371c0.238,-0.214 0.413,-0.361 0.523,-0.439c0.111,-0.079 0.234,-0.144 0.37,-0.197c0.381,-0.152 0.847,-0.069 1.397,0.247c0.271,0.156 0.484,0.316 0.639,0.481c0.155,0.164 0.265,0.349 0.331,0.557c0.144,0.428 0.061,0.911 -0.248,1.448c-0.379,0.658 -0.877,0.969 -1.496,0.933c-0.278,-0.016 -0.641,-0.145 -1.09,-0.387l0.574,-0.998c0.304,0.165 0.542,0.245 0.713,0.24c0.171,-0.006 0.308,-0.099 0.412,-0.279c0.109,-0.189 0.133,-0.356 0.073,-0.499c-0.059,-0.143 -0.213,-0.286 -0.46,-0.428c-0.212,-0.122 -0.389,-0.163 -0.533,-0.124c-0.083,0.022 -0.153,0.054 -0.21,0.095c-0.057,0.04 -0.206,0.17 -0.447,0.389c-0.344,0.314 -0.673,0.503 -0.989,0.568c-0.359,0.075 -0.762,-0.016 -1.208,-0.273c-1.055,-0.607 -1.312,-1.379 -0.772,-2.318c0.354,-0.615 0.826,-0.91 1.415,-0.884c0.275,0.011 0.62,0.13 1.036,0.357Zm2.638,-4.586l-0.576,1.001c-0.3,-0.144 -0.52,-0.212 -0.659,-0.204c-0.139,0.008 -0.255,0.094 -0.349,0.257c-0.108,0.187 -0.105,0.356 0.008,0.506c0.114,0.15 0.393,0.353 0.837,0.608l1.419,0.817c0.444,0.255 0.761,0.393 0.951,0.413c0.19,0.019 0.342,-0.069 0.455,-0.266c0.101,-0.175 0.11,-0.339 0.027,-0.493c-0.083,-0.153 -0.27,-0.318 -0.561,-0.495l0.574,-0.998c0.488,0.297 0.808,0.596 0.96,0.898c0.251,0.486 0.204,1.028 -0.14,1.626c-0.344,0.598 -0.775,0.918 -1.295,0.961c-0.37,0.031 -0.876,-0.139 -1.519,-0.509l-1.582,-0.91c-0.372,-0.214 -0.65,-0.408 -0.835,-0.581c-0.597,-0.557 -0.663,-1.24 -0.199,-2.046c0.366,-0.637 0.847,-0.947 1.441,-0.931c0.278,0.007 0.626,0.122 1.043,0.346Zm-0.664,-2.429l0.829,-1.441c0.191,-0.331 0.357,-0.567 0.498,-0.706c0.297,-0.296 0.655,-0.414 1.072,-0.356c0.249,0.034 0.552,0.154 0.91,0.36c0.461,0.265 0.77,0.508 0.928,0.728c0.158,0.22 0.218,0.495 0.182,0.826l2.775,0.266l-0.696,1.211l-2.606,-0.37l-0.116,0.201l2.118,1.219l-0.628,1.091l-5.266,-3.029Zm1.674,-0.893l-0.191,0.332l1.445,0.83l0.176,-0.306c0.136,-0.253 0.193,-0.447 0.142,-0.581c-0.063,-0.164 -0.224,-0.316 -0.474,-0.459c-0.281,-0.162 -0.498,-0.233 -0.653,-0.215c-0.154,0.018 -0.294,0.135 -0.445,0.399Zm8.353,-4.354l-0.678,1.178l-1.131,-0.358l-0.635,1.104l0.879,0.798l-0.678,1.177l-4.409,-4.519l0.527,-0.915l6.125,1.535Zm-2.747,0.451l-2.186,-0.692l1.699,1.539l0.487,-0.847Zm0.918,-7.373l-0.713,1.24l4.339,2.496l-0.635,1.105l-4.34,-2.497l-0.713,1.241l-0.904,-0.52l2.062,-3.585l0.904,0.52Zm3.075,-3.844l-0.576,1.001c-0.3,-0.144 -0.52,-0.212 -0.659,-0.204c-0.139,0.008 -0.255,0.093 -0.349,0.257c-0.108,0.187 -0.105,0.356 0.009,0.506c0.113,0.15 0.392,0.352 0.836,0.608l1.419,0.816c0.445,0.256 0.762,0.393 0.952,0.413c0.19,0.02 0.341,-0.069 0.454,-0.265c0.101,-0.176 0.11,-0.34 0.027,-0.493c-0.083,-0.153 -0.27,-0.318 -0.561,-0.495l0.574,-0.998c0.488,0.296 0.808,0.596 0.96,0.897c0.251,0.487 0.205,1.029 -0.139,1.627c-0.344,0.597 -0.776,0.918 -1.296,0.961c-0.369,0.03 -0.876,-0.14 -1.519,-0.51l-1.581,-0.909c-0.373,-0.215 -0.651,-0.408 -0.836,-0.582c-0.596,-0.557 -0.663,-1.239 -0.199,-2.046c0.367,-0.636 0.847,-0.946 1.442,-0.93c0.277,0.006 0.625,0.121 1.042,0.346Zm5.311,-0.632l-0.628,1.091l-5.266,-3.029l0.628,-1.092l2.168,1.248l0.569,-0.988l-2.169,-1.247l0.628,-1.092l5.266,3.03l-0.628,1.091l-2.204,-1.268l-0.568,0.988l2.204,1.268Zm-37.185,-37.662c-0.326,0.243 -0.68,0.582 -0.6,1.258c0.354,1.379 1.948,0.907 2.008,0.882c0.305,-0.141 0.526,-0.469 0.545,-1.384c-0.145,-0.617 -0.252,-0.701 -0.588,-0.931c-0.506,-0.176 -0.901,-0.004 -1.365,0.175Z"/></svg>