<?xml version="1.0" encoding="UTF-8" standalone="no"?><!DOCTYPE svg PUBLIC "-//W3C//DTD SVG 1.1//EN" "http://www.w3.org/Graphics/SVG/1.1/DTD/svg11.dtd"><svg width="100%" height="100%" viewBox="0 0 193 193" version="1.1" xmlns="http://www.w3.org/2000/svg" xmlns:xlink="http://www.w3.org/1999/xlink" xml:space="preserve" xmlns:serif="http://www.serif.com/" style="fill-rule:evenodd;clip-rule:evenodd;stroke-linejoin:round;stroke-miterlimit:2;"><rect id="g" x="0.077" y="0.14" width="192" height="192" style="fill:#fff;fill-opacity:0;"/><clipPath id="_clip1"><rect x="0.077" y="0.14" width="192" height="192"/></clipPath><g clip-path="url(#_clip1)"><path d="M81.717,184.772c-0.434,0.798 3.951,2.485 3.876,4.784c-1.654,0.189 -6.496,-5.205 -7.795,-4.784c-1.299,0.422 0.916,8.094 0,7.312c-0.709,-0.605 -3.06,-5.994 -4.515,-9.533c-0.427,-1.04 -0.777,-1.919 -0.985,-2.472c-0.304,-0.806 -0.21,-1.75 0,-2.586c0.22,-0.874 1.53,-1.692 1.322,-2.66c-0.44,-2.044 -3.578,-8.003 -3.962,-9.603c-0.129,-0.537 1.194,-0.302 1.657,0c1.069,0.696 3.655,5.976 4.758,4.177c2.094,-3.416 6.854,-18.163 7.807,-24.672c0.112,-0.766 -9.639,10.904 -18.517,9.397c-4.295,-0.729 -10.894,-5.358 -12.17,-13.332c-14.468,1.209 -25.39,-13.131 -25.39,-13.131c0,0 -19.771,-24.77 -2.706,-53.368c2.396,-0.123 2.302,1.28 2.371,1.194c1.892,-3.613 3.141,-1.137 5.089,0.811c1.438,-2.42 2.357,0.64 2.357,0.64c0,0 3.422,30.282 53.286,45.296c2.196,-26.928 1.029,-48.615 0.294,-57.862c-0.882,-7.531 -1.914,-14.779 -1.518,-20.383c-0.639,-3.528 -4.251,-9.882 -4.251,-9.882c0,0 -12.733,7.507 -24.768,1.016c-6.061,-3.877 4.131,-3.277 8.904,-7.707c1.201,-2.476 -3.332,-3.964 -2.545,-5.452c1.308,-2.901 6.487,0.775 9.033,-2.892c1.685,-3.76 -1.822,-6.027 -0.472,-7.31c1.349,-1.284 7.005,0.559 8.84,-1.331c2.597,-2.495 0.661,-5.549 1.008,-7.055c1.569,-0.668 3.16,-0.377 5.475,0.753c2.315,1.13 3.873,0.313 4.152,0c0.278,-0.313 1.03,-0.207 1.958,-3.297c0.928,-3.09 6.958,5.018 7.572,5.592c0.613,0.573 1.652,7.535 2.317,7.808c0.791,0.323 7.741,-2.333 9.435,-2.618c0.384,-0.064 0.72,0.633 0.728,0.913c-0.011,0.499 -3.412,7.723 -2.947,8.321c2.248,2.229 8.986,5.459 10.537,7.749c0.82,1.21 0.51,1.724 0.219,2.513c-0.34,0.918 -1.435,2.052 -2.254,2.997c-1.114,1.286 -4.811,4.026 -4.432,4.721c0.192,0.351 17.203,-2.203 37.865,14.302c14.333,13.688 20.099,32.526 20.118,35.641c0.486,6.209 2.157,20.506 -4.781,34.96c-6.939,14.453 -18.08,19.708 -22.603,22.932c-4.523,3.225 -5.556,2.369 -4.733,4.341c3.753,8.99 13.263,19.815 13.263,19.815c0,0 6.769,-5.333 7.875,-4.241c-0.466,1.319 -4.975,3.771 -4.461,4.241c0.515,0.47 6.522,-2.157 7.549,-1.42c0.183,1.157 -5.45,2.955 -5.244,3.547c0.206,0.591 7.697,-1.01 6.481,0c-1.145,0.95 -12.351,4.383 -14.978,4.211c-2.481,1.126 -4.959,0.296 -4.959,0.296c0,0 -5.12,4.25 -7.239,4.527c-0.339,0.049 -1.119,-0.413 -1.251,-1.909c0.284,-1.555 4.157,-4.787 3.659,-5.246c-5.362,-4.938 -20.312,-14.726 -34.623,-15.359c-4.075,-0.18 -22.502,18.297 -25.706,22.514c-1.422,1.872 4.729,0.684 6.483,2.784c-1.017,1.125 -6.048,-0.797 -6.483,0Zm58.805,-33.427c0.022,-0.182 0.213,-0.602 0.317,-0.451c-0.123,1.581 2.34,5.808 5.245,9.912c3.166,4.472 6.845,8.826 7.961,10.154c-0.207,0.273 -0.341,0.247 -0.5,0.513c-0.951,-1.892 -13.56,-15.802 -13.023,-20.128Zm-29.961,-20.621l39.341,-68.431c0,0 17.296,21.922 3.46,46.079c-15.088,26.343 -42.801,22.352 -42.801,22.352Zm-5.607,-10.166l-1.156,2.01l1.639,0.942l1.043,-1.813l1.117,0.642l-1.043,1.814l2.71,1.559l-0.785,1.364l-6.582,-3.787l1.94,-3.373l1.117,0.642Zm-9.939,5.38l42.769,-74.535l1.037,0.637l-42.837,74.291l-0.969,-0.393Zm17.167,-5.299l-0.785,1.364l-6.582,-3.786l1.036,-1.801c0.238,-0.414 0.445,-0.709 0.622,-0.883c0.372,-0.369 0.819,-0.517 1.34,-0.445c0.311,0.043 0.69,0.193 1.137,0.45c0.577,0.332 0.963,0.635 1.161,0.91c0.197,0.276 0.273,0.62 0.227,1.033l3.469,0.333l-0.87,1.513l-3.257,-0.463l-0.145,0.252l2.647,1.523Zm-5.275,-3.538l-0.238,0.414l1.805,1.039l0.22,-0.383c0.213,-0.366 0.245,-0.564 0.178,-0.726c-0.083,-0.203 -0.28,-0.395 -0.592,-0.574c-0.351,-0.202 -0.623,-0.292 -0.816,-0.269c-0.193,0.023 -0.366,0.164 -0.557,0.499Zm48.031,-6.505c1.771,-3.039 3.323,-7.495 3.323,-7.495l-1.084,-0.781c0,0 -1.402,3.517 -3.372,7.298c-1.78,3.593 -5.027,6.968 -5.027,6.968l1.161,0.749c0,0 2.897,-3.132 4.999,-6.739Zm-42.371,4.405l-2.287,-1.316c-0.835,-0.48 -1.137,-0.984 -1.316,-1.431c-0.136,-0.339 -0.147,-0.751 -0.067,-1.112c0.061,-0.281 0.201,-0.61 0.418,-0.988c0.304,-0.528 0.613,-0.893 0.94,-1.071c0.27,-0.148 0.507,-0.264 0.892,-0.285c0.441,-0.023 0.986,0.006 1.704,0.419l2.287,1.316c0.871,0.507 1.121,0.999 1.316,1.431c0.152,0.331 0.147,0.751 0.067,1.112c-0.062,0.281 -0.2,0.608 -0.416,0.984c-0.306,0.531 -0.62,0.889 -0.943,1.075c-0.33,0.194 -0.641,0.336 -0.979,0.33c-0.386,-0.007 -0.73,-0.005 -1.616,-0.464Zm-0.075,-4.077l2.244,2.817c0.105,-0.079 0.198,-0.188 0.27,-0.313c0.175,-0.303 0.155,-0.613 -0.015,-0.88c-0.107,-0.167 -0.275,-0.365 -0.793,-0.643l-1.706,-0.981Zm-1.721,-0.506c-0.142,0.078 -0.266,0.21 -0.357,0.368c-0.176,0.306 -0.153,0.614 0.013,0.884c0.098,0.159 0.268,0.335 0.792,0.643l1.956,1.125l-2.404,-3.02Zm8.398,-1.925l-0.781,1.359l-6.504,-3.742l0.716,-1.245l4.036,0.673l-2.608,-3.155l0.716,-1.246l6.504,3.742l-0.781,1.359l-3.559,-2.048l1.6,1.851l-0.494,0.858l-2.404,-0.453l3.559,2.047Zm-85.815,-30.751c-0.052,-0.303 0.304,-1.056 0.47,-0.796c2.786,7.108 4.371,15.467 14.912,24.82c-9.987,-7.943 -12.101,-14.604 -15.382,-24.024Zm119.054,-24.732c0,0 12.388,14.429 15.97,24.269c5.281,10.211 5.365,23.447 5.365,23.447c0,0 0.765,-14.336 -5.06,-24.781c-8.839,-17.222 -16.275,-22.935 -16.275,-22.935Zm-31.166,41.131l-0.718,1.247c-0.379,-0.182 -0.65,-0.274 -0.816,-0.275c-0.165,-0.001 -0.3,0.09 -0.405,0.273c-0.194,0.336 -0.017,0.662 0.529,0.976c0.234,0.135 0.448,0.178 0.64,0.132c0.193,-0.047 0.437,-0.202 0.731,-0.464c0.298,-0.268 0.516,-0.451 0.655,-0.549c0.138,-0.098 0.292,-0.18 0.462,-0.247c0.477,-0.189 1.058,-0.086 1.746,0.31c0.339,0.195 0.605,0.395 0.799,0.6c0.193,0.205 0.332,0.438 0.414,0.697c0.18,0.535 0.076,1.138 -0.311,1.811c-0.473,0.822 -1.096,1.211 -1.869,1.165c-0.347,-0.02 -0.802,-0.181 -1.363,-0.484l0.718,-1.247c0.38,0.207 0.677,0.306 0.891,0.3c0.213,-0.007 0.385,-0.123 0.515,-0.348c0.136,-0.238 0.167,-0.446 0.092,-0.624c-0.075,-0.179 -0.267,-0.358 -0.576,-0.536c-0.264,-0.152 -0.486,-0.203 -0.666,-0.155c-0.104,0.028 -0.191,0.068 -0.263,0.119c-0.071,0.051 -0.257,0.213 -0.559,0.487c-0.429,0.392 -0.841,0.629 -1.235,0.71c-0.449,0.093 -0.953,-0.021 -1.511,-0.342c-1.318,-0.758 -1.639,-1.724 -0.964,-2.898c0.442,-0.768 1.032,-1.136 1.768,-1.104c0.344,0.014 0.775,0.162 1.296,0.446Zm3.297,-5.732l-0.72,1.251c-0.376,-0.18 -0.65,-0.265 -0.824,-0.255c-0.173,0.01 -0.319,0.117 -0.436,0.321c-0.135,0.234 -0.131,0.445 0.01,0.633c0.142,0.187 0.491,0.44 1.046,0.76l1.774,1.02c0.555,0.32 0.952,0.492 1.189,0.517c0.238,0.024 0.427,-0.086 0.569,-0.333c0.126,-0.219 0.137,-0.424 0.033,-0.615c-0.103,-0.192 -0.337,-0.398 -0.701,-0.62l0.717,-1.247c0.61,0.371 1.01,0.745 1.201,1.122c0.313,0.608 0.255,1.286 -0.175,2.033c-0.43,0.747 -0.97,1.148 -1.62,1.201c-0.461,0.039 -1.094,-0.174 -1.899,-0.637l-1.976,-1.137c-0.465,-0.267 -0.814,-0.509 -1.044,-0.726c-0.746,-0.697 -0.829,-1.549 -0.249,-2.558c0.458,-0.795 1.058,-1.183 1.802,-1.163c0.347,0.008 0.781,0.152 1.303,0.433Zm-0.83,-3.037l1.036,-1.801c0.239,-0.414 0.446,-0.709 0.622,-0.883c0.372,-0.369 0.819,-0.518 1.341,-0.445c0.311,0.043 0.69,0.193 1.137,0.45c0.576,0.332 0.963,0.635 1.16,0.91c0.197,0.276 0.273,0.62 0.227,1.033l3.47,0.333l-0.871,1.513l-3.257,-0.463l-0.145,0.252l2.647,1.523l-0.784,1.364l-6.583,-3.786Zm2.092,-1.116l-0.238,0.414l1.805,1.039l0.221,-0.383c0.17,-0.316 0.242,-0.559 0.178,-0.726c-0.079,-0.205 -0.281,-0.395 -0.593,-0.574c-0.351,-0.202 -0.623,-0.292 -0.816,-0.269c-0.193,0.023 -0.367,0.169 -0.557,0.499Zm10.441,-5.442l-0.846,1.472l-1.415,-0.448l-0.793,1.38l1.098,0.997l-0.847,1.473l-5.511,-5.65l0.658,-1.143l7.656,1.919Zm-3.434,0.564l-2.732,-0.865l2.124,1.923l0.608,-1.058Zm1.149,-9.217l-0.892,1.55l5.424,3.12l-0.794,1.381l-5.424,-3.121l-0.892,1.551l-1.13,-0.65l2.578,-4.481l1.13,0.65Zm3.844,-4.806l-0.72,1.252c-0.376,-0.18 -0.651,-0.265 -0.824,-0.255c-0.174,0.01 -0.319,0.117 -0.437,0.321c-0.135,0.234 -0.131,0.445 0.011,0.632c0.142,0.188 0.49,0.441 1.046,0.761l1.774,1.02c0.555,0.32 0.951,0.492 1.189,0.516c0.237,0.025 0.427,-0.085 0.568,-0.332c0.126,-0.219 0.137,-0.424 0.034,-0.615c-0.104,-0.192 -0.338,-0.398 -0.702,-0.62l0.718,-1.247c0.61,0.371 1.01,0.745 1.2,1.122c0.314,0.608 0.255,1.285 -0.175,2.033c-0.43,0.747 -0.97,1.148 -1.619,1.201c-0.462,0.038 -1.095,-0.174 -1.899,-0.637l-1.977,-1.137c-0.465,-0.267 -0.813,-0.509 -1.044,-0.726c-0.746,-0.697 -0.828,-1.549 -0.248,-2.558c0.457,-0.795 1.058,-1.183 1.801,-1.163c0.347,0.008 0.782,0.152 1.304,0.432Zm6.638,-0.789l-0.785,1.364l-6.582,-3.787l0.785,-1.364l2.71,1.559l0.71,-1.235l-2.71,-1.559l0.785,-1.364l6.582,3.787l-0.785,1.364l-2.755,-1.585l-0.711,1.235l2.756,1.585Zm-46.481,-47.078c-0.408,0.304 -0.851,0.728 -0.75,1.573c0.442,1.724 2.435,1.134 2.51,1.103c0.381,-0.177 0.657,-0.587 0.681,-1.73c-0.181,-0.771 -0.315,-0.877 -0.735,-1.165c-0.633,-0.219 -1.127,-0.004 -1.706,0.219Z" style="fill:url(#_Linear2);"/></g><defs><linearGradient id="_Linear2" x1="0" y1="0" x2="1" y2="0" gradientUnits="userSpaceOnUse" gradientTransform="matrix(155.842,0,0,192,18.1557,96.1398)"><stop offset="0" style="stop-color:#ffa818;stop-opacity:1"/><stop offset="1" style="stop-color:#fd742a;stop-opacity:1"/></linearGradient></defs></svg>