<?xml version="1.0" encoding="UTF-8" standalone="no"?><!DOCTYPE svg PUBLIC "-//W3C//DTD SVG 1.1//EN" "http://www.w3.org/Graphics/SVG/1.1/DTD/svg11.dtd"><svg width="100%" height="100%" viewBox="0 0 557 154" version="1.1" xmlns="http://www.w3.org/2000/svg" xmlns:xlink="http://www.w3.org/1999/xlink" xml:space="preserve" xmlns:serif="http://www.serif.com/" style="fill-rule:evenodd;clip-rule:evenodd;stroke-linecap:square;stroke-miterlimit:1.41421;"><rect id="t-b-long-break" x="0.193" y="0.138" width="556.2" height="153.6" style="fill:none;"/><clipPath id="_clip1"><rect x="0.193" y="0.138" width="556.2" height="153.6"/></clipPath><g clip-path="url(#_clip1)"><g><g><path d="M272.208,107.487c-1.763,0 -3.221,-1.458 -3.221,-3.221c0,-1.762 1.458,-3.221 3.221,-3.221c1.762,0 3.221,1.459 3.221,3.221c0,1.763 -1.459,3.221 -3.221,3.221Zm-38.654,-2.127c-2.005,0 -6.017,-0.304 -7.901,-0.547l0,10.393c1.581,-0.122 4.923,-0.304 7.901,-0.304l26.742,0c-0.79,4.862 -2.735,11.122 -6.686,15.863c-4.801,5.834 -13.37,11.304 -22.426,13.674l7.779,8.995c10.454,-3.646 18.719,-10.21 23.703,-16.835c5.227,-7.05 7.475,-16.531 8.995,-22.244c0.182,-0.729 0.425,-1.641 0.729,-2.552c4.011,-0.122 7.354,-3.465 7.354,-7.537c0,-4.132 -3.403,-7.536 -7.536,-7.536c-4.133,0 -7.536,3.404 -7.536,7.536c0,0.304 0,0.547 0.06,0.851c-1.519,0.183 -3.099,0.243 -4.132,0.243l-27.046,0Z" style="fill-rule:nonzero;"/><path d="M322.226,114.963l0,23.156l-27.227,0l0,-23.156l27.227,0Zm9.907,-2.917c0,-2.067 0,-4.559 0.121,-6.564c-2.431,0.061 -4.74,0.061 -6.381,0.061l-33.913,0c-1.763,0 -4.497,-0.061 -6.989,-0.122c0.121,1.884 0.121,4.68 0.121,6.625l0,29.537c0,3.342 -0.182,9.177 -0.182,9.177l10.15,0l0,-3.221l27.106,0l-0.122,3.221l10.21,0c0,0 -0.121,-6.442 -0.121,-9.056l0,-29.658Z" style="fill-rule:nonzero;"/><path d="M384.157,101.957l-6.078,2.492c2.371,3.342 3.343,5.348 5.288,9.542l6.26,-2.675c-1.337,-2.735 -3.647,-6.624 -5.47,-9.359Zm8.63,-2.978l-6.199,2.552c2.37,3.222 3.525,4.984 5.652,9.178l6.199,-2.735c-1.458,-2.614 -3.646,-6.382 -5.652,-8.995Zm-35.25,1.641l-5.348,8.144c4.254,2.37 10.453,6.32 14.1,8.752l5.47,-8.144c-3.464,-2.371 -9.967,-6.443 -14.222,-8.752Zm-12.459,42.968l5.531,9.725c5.226,-0.851 14.161,-4.012 20.36,-7.476c10.089,-5.774 18.779,-13.371 24.614,-21.94l-5.652,-10.089c-4.802,8.752 -13.553,17.321 -24.007,23.095c-6.867,3.707 -13.978,5.531 -20.846,6.685Zm2.978,-28.99l-5.348,8.144c4.315,2.31 10.453,6.321 14.161,8.874l5.409,-8.266c-3.404,-2.37 -9.846,-6.442 -14.222,-8.752Z" style="fill-rule:nonzero;"/><path d="M432.17,142.494l0,-17.989l9.542,0c1.398,0 3.343,0.121 4.984,0.243l0,-9.177c-1.581,0.243 -3.525,0.364 -4.984,0.364l-27.714,0c-1.519,0 -3.829,-0.121 -5.166,-0.364l0,9.177c1.337,-0.122 3.647,-0.243 5.166,-0.243l8.448,0l0,17.989l-11.426,0c-1.641,0 -3.707,-0.182 -5.348,-0.425l0,9.603c1.701,-0.244 3.768,-0.304 5.348,-0.304l33.548,0c1.155,0 3.586,0.06 4.923,0.304l0,-9.603c-1.276,0.182 -3.099,0.425 -4.923,0.425l-12.398,0Z" style="fill-rule:nonzero;"/><path d="M502.062,106.758c-1.58,0.486 -4.011,0.79 -6.016,0.79l-10.636,0c0.79,-1.519 2.005,-3.95 3.464,-6.32l-11,-3.404c-0.547,2.37 -1.824,5.591 -2.796,7.415c-2.613,4.801 -7.658,13.127 -16.957,19.448l8.327,6.138c5.044,-3.768 9.906,-9.298 13.796,-14.95l15.315,0c-1.033,3.828 -3.889,10.514 -7.657,14.89c-4.741,5.652 -10.94,11.304 -21.94,15.558l8.569,7.415c8.752,-3.89 16.531,-10.575 21.879,-17.564c5.166,-6.746 8.266,-14.526 10.15,-19.57c0.668,-1.823 1.58,-3.647 2.37,-4.984l-6.868,-4.862Z" style="fill-rule:nonzero;"/><path d="M556.396,126.085c-5.105,-2.492 -16.896,-6.807 -25.1,-9.177l0,-8.327c0,-2.917 0.364,-5.591 0.607,-7.9l-11.486,0c0.486,2.309 0.729,5.469 0.729,7.9l0,34.704c0,2.491 -0.304,6.563 -0.729,9.177l11.547,0c-0.304,-2.735 -0.668,-7.537 -0.668,-9.177l0,-15.62c6.442,2.31 14.768,5.531 20.907,8.691l4.193,-10.271Z" style="fill-rule:nonzero;"/></g><g><path d="M101.284,11.263c0.156,4.767 -0.391,10.159 -1.485,16.176c-3.438,0.234 -6.642,0.468 -8.908,0.546c-3.047,0.079 -6.017,0.235 -8.986,0l1.016,12.581c2.578,-0.469 7.032,-1.094 9.533,-1.406c1.094,-0.157 2.813,-0.391 4.845,-0.704c-2.892,10.549 -7.893,25.005 -15.238,34.929l12.268,4.923c6.564,-10.627 12.346,-29.225 15.472,-41.258c1.407,-0.078 2.735,-0.156 3.595,-0.156c4.844,0 7.188,0.703 7.188,6.329c0,7.189 -0.937,16.019 -2.891,19.848c-1.016,2.109 -2.813,2.969 -5.235,2.969c-1.954,0 -6.642,-0.86 -9.455,-1.641l2.031,12.346c2.735,0.625 6.408,1.094 9.377,1.094c6.33,0 10.862,-1.953 13.519,-7.501c3.282,-6.877 4.297,-19.301 4.297,-28.365c0,-11.565 -5.86,-15.785 -14.768,-15.785c-1.407,0 -3.204,0.078 -5.236,0.235c0.469,-2.032 0.938,-4.142 1.329,-6.252c0.469,-2.187 1.094,-5.079 1.641,-7.423l-13.909,-1.485Zm29.302,12.815c5.627,7.189 10.784,21.333 12.659,30.319l11.956,-5.548c-2.266,-7.501 -8.596,-22.504 -13.284,-29.459l-11.331,4.688Z" style="fill-rule:nonzero;stroke:#000;stroke-width:0.4px;"/><path d="M178.643,22.281c6.095,1.563 23.598,5.236 31.725,6.33l2.813,-11.565c-6.798,-0.782 -23.833,-3.595 -31.569,-6.017l-2.969,11.252Zm4.688,5.079l-12.58,-1.719c-0.547,10.471 -2.345,25.005 -3.829,32.897l10.705,2.657c0.781,-1.719 1.641,-2.969 3.204,-4.845c4.532,-5.469 12.112,-8.439 20.004,-8.439c6.173,0 10.392,3.282 10.392,7.658c0,9.455 -12.502,14.378 -35.085,11.018l3.673,12.268c34.069,2.969 44.618,-8.674 44.618,-23.051c0,-9.455 -7.892,-18.52 -22.426,-18.52c-7.423,0 -14.691,1.954 -21.411,6.251c0.391,-4.141 1.719,-12.346 2.735,-16.175Z" style="fill-rule:nonzero;stroke:#000;stroke-width:0.4px;"/><path d="M300.933,32.361c-1.251,0.547 -3.595,0.938 -6.564,0.938l-37.195,0c-2.657,0 -6.329,-0.234 -9.924,-0.547l0,12.19c3.517,-0.313 7.971,-0.391 9.924,-0.391l35.554,0c-1.328,3.595 -3.438,7.502 -7.267,11.331c-5.626,5.626 -14.691,10.783 -26.88,13.362l9.455,10.705c10.002,-2.891 20.16,-8.596 27.896,-17.269c5.782,-6.486 9.064,-13.831 11.643,-21.332c0.312,-0.938 1.094,-2.579 1.719,-3.751l-8.361,-5.236Zm-46.338,-6.485c2.345,-0.235 6.095,-0.313 8.752,-0.313l29.459,0c2.969,0 7.189,0.156 9.377,0.313l0,-12.19c-2.266,0.312 -6.72,0.469 -9.221,0.469l-29.615,0c-2.735,0 -6.564,-0.157 -8.752,-0.469l0,12.19Z" style="fill-rule:nonzero;stroke:#000;stroke-width:0.4px;"/><path d="M326.25,52.053c3.204,-0.235 9.065,-0.469 13.519,-0.469l41.492,0c3.204,0 7.58,0.391 9.611,0.469l0,-14.925c-2.266,0.156 -6.095,0.547 -9.611,0.547l-41.492,0c-3.829,0 -10.393,-0.313 -13.519,-0.547l0,14.925Z" style="fill-rule:nonzero;stroke:#000;stroke-width:0.4px;"/><path d="M449.478,11.732c-0.391,2.188 -1.25,5.079 -1.954,7.345c-1.875,5.47 -5.001,11.565 -8.83,17.348c-6.642,-4.689 -14.612,-10.08 -19.691,-12.972l-8.361,9.846c5.782,3.204 13.987,8.986 20.16,13.675c-7.579,9.064 -16.722,17.191 -27.505,22.348l11.33,10.236c11.252,-6.485 20.239,-16.331 26.568,-24.145c6.407,5.392 12.346,11.018 17.425,16.253l9.69,-10.94c-4.767,-4.454 -12.425,-11.096 -18.988,-16.331c5.001,-7.423 8.673,-14.378 11.33,-20.317c0.859,-1.953 2.344,-4.922 3.516,-6.876l-14.69,-5.47Z" style="fill-rule:nonzero;stroke:#000;stroke-width:0.4px;"/><path d="M495.112,14.78l-8.986,9.611c5.626,3.985 15.472,12.581 19.613,17.113l9.689,-9.924c-4.688,-5.001 -14.924,-13.128 -20.316,-16.8Zm-10.627,51.104l8.048,12.502c9.846,-1.563 20.004,-5.626 27.975,-10.314c13.049,-7.658 24.145,-18.52 30.396,-29.616l-7.345,-13.362c-5.235,11.018 -15.784,23.13 -29.85,31.256c-7.657,4.455 -17.738,7.971 -29.224,9.534Z" style="fill-rule:nonzero;stroke:#000;stroke-width:0.4px;"/><path d="M0.189,56.626l0,-28.468c0,-10.391 3.091,-15.934 6.305,-20.006c2.44,-3.092 6.235,-5.418 10.045,-6.613c2.952,-0.934 6.781,-1.401 11.489,-1.401c6.575,0 11.646,0.931 15.074,3.026c2.836,1.733 5.194,3.322 7.456,6.812c2.59,3.994 5.247,9.251 5.252,18.182l0,28.468c-0.058,10.875 -3.316,15.859 -6.305,20.006c-2.279,3.213 -6.235,5.417 -10.045,6.613c-2.952,0.934 -6.762,1.401 -11.432,1.401c-6.613,0 -11.657,-1.009 -15.131,-3.026c-3.587,-2.055 -6.591,-4.187 -8.356,-7.387c-2.013,-3.649 -3.879,-6.856 -4.352,-17.607Zm37.73,-22.635l-14.281,36.14c1.306,0.561 2.824,0.841 4.39,0.841c3.773,0 6.562,-1.847 8.14,-4.875c0.992,-1.906 1.936,-4.537 1.751,-10.872l0,-21.234Zm-4.533,-18.818c-1.489,-0.908 -3.389,-1.361 -5.358,-1.361c-3.811,0 -6.571,1.873 -8.196,4.875c-0.965,1.781 -1.69,4.313 -1.752,10.872l0,24.347l15.306,-38.733Z" style="fill-rule:nonzero;"/></g></g></g></svg>