<?xml version="1.0" encoding="UTF-8" standalone="no"?><!DOCTYPE svg PUBLIC "-//W3C//DTD SVG 1.1//EN" "http://www.w3.org/Graphics/SVG/1.1/DTD/svg11.dtd"><svg width="100%" height="100%" viewBox="0 0 1152 97" version="1.1" xmlns="http://www.w3.org/2000/svg" xmlns:xlink="http://www.w3.org/1999/xlink" xml:space="preserve" xmlns:serif="http://www.serif.com/" style="fill-rule:evenodd;clip-rule:evenodd;stroke-linejoin:round;stroke-miterlimit:2;"><rect id="t-b-long" x="0.052" y="0.002" width="1151.42" height="96" style="fill:none;"/><clipPath id="_clip1"><rect x="0.052" y="0.002" width="1151.42" height="96"/></clipPath><g clip-path="url(#_clip1)"><g><g><path d="M723.977,20.675c-2.574,0 -4.704,-2.13 -4.704,-4.704c0,-2.575 2.13,-4.705 4.704,-4.705c2.574,0 4.705,2.13 4.705,4.705c0,2.574 -2.131,4.704 -4.705,4.704Zm-56.455,-3.107c-2.93,0 -8.788,-0.443 -11.54,-0.798l0,15.179c2.308,-0.178 7.19,-0.444 11.54,-0.444l39.057,0c-1.154,7.101 -3.995,16.244 -9.764,23.168c-7.013,8.521 -19.529,16.51 -32.755,19.972l11.362,13.138c15.268,-5.326 27.34,-14.913 34.619,-24.589c7.634,-10.296 10.918,-24.144 13.137,-32.488c0.267,-1.065 0.622,-2.397 1.065,-3.728c5.859,-0.178 10.741,-5.06 10.741,-11.007c0,-6.036 -4.971,-11.007 -11.007,-11.007c-6.036,0 -11.007,4.971 -11.007,11.007c0,0.443 0,0.799 0.089,1.242c-2.219,0.267 -4.527,0.355 -6.036,0.355l-39.501,0Z" style="fill-rule:nonzero;"/><path d="M802.358,31.594l0,33.82l-39.767,0l0,-33.82l39.767,0Zm14.469,-4.261c0,-3.018 0,-6.658 0.178,-9.587c-3.551,0.089 -6.924,0.089 -9.321,0.089l-49.532,0c-2.574,0 -6.568,-0.089 -10.208,-0.178c0.178,2.752 0.178,6.835 0.178,9.676l0,43.14c0,4.882 -0.267,13.404 -0.267,13.404l14.824,0l0,-4.705l39.59,0l-0.177,4.705l14.913,0c0,0 -0.178,-9.409 -0.178,-13.226l0,-43.318Z" style="fill-rule:nonzero;"/><path d="M895.474,12.598l-8.876,3.639c3.461,4.882 4.882,7.811 7.722,13.936l9.143,-3.905c-1.953,-3.995 -5.326,-9.676 -7.989,-13.67Zm12.605,-4.35l-9.054,3.728c3.462,4.705 5.148,7.279 8.255,13.404l9.054,-3.995c-2.13,-3.817 -5.326,-9.32 -8.255,-13.137Zm-51.485,2.397l-7.811,11.894c6.214,3.462 15.268,9.232 20.594,12.783l7.989,-11.895c-5.06,-3.462 -14.558,-9.409 -20.772,-12.782Zm-18.197,62.758l8.078,14.202c7.634,-1.242 20.683,-5.858 29.737,-10.918c14.735,-8.433 27.429,-19.529 35.95,-32.045l-8.255,-14.735c-7.013,12.782 -19.795,25.298 -35.063,33.731c-10.03,5.415 -20.416,8.078 -30.447,9.765Zm4.35,-42.342l-7.812,11.895c6.303,3.373 15.268,9.231 20.683,12.96l7.9,-12.073c-4.971,-3.462 -14.38,-9.409 -20.771,-12.782Z" style="fill-rule:nonzero;"/><path d="M965.6,71.805l0,-26.275l13.936,0c2.042,0 4.882,0.177 7.279,0.355l0,-13.404c-2.308,0.355 -5.148,0.533 -7.279,0.533l-40.477,0c-2.22,0 -5.593,-0.178 -7.546,-0.533l0,13.404c1.953,-0.178 5.326,-0.355 7.546,-0.355l12.338,0l0,26.275l-16.688,0c-2.397,0 -5.415,-0.266 -7.811,-0.622l0,14.026c2.485,-0.355 5.503,-0.444 7.811,-0.444l48.999,0c1.687,0 5.237,0.089 7.19,0.444l0,-14.026c-1.864,0.267 -4.527,0.622 -7.19,0.622l-18.108,0Z" style="fill-rule:nonzero;"/><path d="M1070.34,19.61c-2.308,0.71 -5.858,1.154 -8.787,1.154l-15.535,0c1.154,-2.219 2.93,-5.77 5.06,-9.232l-16.067,-4.971c-0.799,3.462 -2.663,8.167 -4.083,10.83c-3.817,7.012 -11.185,19.173 -24.766,28.405l12.161,8.966c7.368,-5.504 14.469,-13.582 20.15,-21.837l22.369,0c-1.509,5.592 -5.681,15.357 -11.184,21.748c-6.924,8.255 -15.978,16.51 -32.045,22.724l12.516,10.83c12.783,-5.681 24.145,-15.446 31.956,-25.654c7.545,-9.853 12.072,-21.215 14.824,-28.583c0.977,-2.663 2.308,-5.326 3.462,-7.279l-10.031,-7.101Z" style="fill-rule:nonzero;"/><path d="M1151.48,47.838c-7.456,-3.64 -24.677,-9.942 -36.661,-13.404l0,-12.161c0,-4.261 0.533,-8.166 0.888,-11.54l-16.777,0c0.71,3.374 1.065,7.989 1.065,11.54l0,50.686c0,3.639 -0.443,9.587 -1.065,13.404l16.866,0c-0.444,-3.995 -0.977,-11.008 -0.977,-13.404l0,-22.813c9.41,3.373 21.571,8.078 30.536,12.693l6.125,-15.001Z" style="fill-rule:nonzero;"/></g><g><path d="M114.893,12.64c0.177,5.415 -0.444,11.54 -1.687,18.375c-3.906,0.266 -7.545,0.533 -10.119,0.621c-3.462,0.089 -6.835,0.267 -10.209,0l1.154,14.292c2.93,-0.533 7.989,-1.243 10.83,-1.598c1.243,-0.177 3.196,-0.444 5.503,-0.799c-3.284,11.984 -8.965,28.405 -17.309,39.679l13.936,5.592c7.457,-12.072 14.025,-33.199 17.576,-46.869c1.598,-0.088 3.107,-0.177 4.083,-0.177c5.504,0 8.167,0.799 8.167,7.19c0,8.166 -1.065,18.197 -3.284,22.547c-1.154,2.396 -3.196,3.373 -5.948,3.373c-2.219,0 -7.545,-0.977 -10.741,-1.864l2.308,14.025c3.107,0.71 7.279,1.243 10.652,1.243c7.19,0 12.339,-2.22 15.357,-8.522c3.728,-7.812 4.882,-21.925 4.882,-32.222c0,-13.138 -6.657,-17.931 -16.777,-17.931c-1.598,0 -3.639,0.089 -5.947,0.266c0.532,-2.308 1.065,-4.705 1.509,-7.101c0.533,-2.486 1.243,-5.77 1.864,-8.433l-15.8,-1.687Zm33.287,14.558c6.391,8.167 12.25,24.233 14.38,34.442l13.582,-6.303c-2.575,-8.521 -9.765,-25.565 -15.091,-33.465l-12.871,5.326Z" style="fill-rule:nonzero;"/><path d="M202.771,25.156c6.924,1.776 26.808,5.948 36.04,7.191l3.195,-13.138c-7.722,-0.888 -27.073,-4.083 -35.861,-6.835l-3.374,12.782Zm5.326,5.77l-14.291,-1.953c-0.621,11.895 -2.663,28.406 -4.35,37.371l12.162,3.018c0.887,-1.953 1.864,-3.373 3.639,-5.503c5.148,-6.214 13.759,-9.587 22.724,-9.587c7.013,0 11.806,3.728 11.806,8.699c0,10.741 -14.203,16.333 -39.856,12.516l4.172,13.936c38.702,3.374 50.686,-9.853 50.686,-26.186c0,-10.74 -8.966,-21.037 -25.476,-21.037c-8.433,0 -16.688,2.219 -24.322,7.101c0.443,-4.705 1.953,-14.025 3.106,-18.375Z" style="fill-rule:nonzero;"/><path d="M341.691,36.607c-1.42,0.622 -4.083,1.066 -7.456,1.066l-42.253,0c-3.018,0 -7.19,-0.267 -11.273,-0.622l0,13.848c3.994,-0.355 9.054,-0.444 11.273,-0.444l40.389,0c-1.509,4.083 -3.906,8.522 -8.256,12.871c-6.391,6.391 -16.688,12.25 -30.535,15.179l10.74,12.161c11.363,-3.284 22.902,-9.764 31.69,-19.617c6.569,-7.368 10.297,-15.712 13.226,-24.233c0.355,-1.066 1.243,-2.93 1.953,-4.261l-9.498,-5.948Zm-52.638,-7.367c2.663,-0.267 6.923,-0.355 9.941,-0.355l33.465,0c3.374,0 8.167,0.177 10.652,0.355l0,-13.848c-2.574,0.355 -7.633,0.533 -10.474,0.533l-33.643,0c-3.106,0 -7.456,-0.178 -9.941,-0.533l0,13.848Z" style="fill-rule:nonzero;"/><path d="M370.452,58.977c3.639,-0.267 10.296,-0.533 15.356,-0.533l47.135,0c3.64,0 8.611,0.444 10.919,0.533l0,-16.955c-2.575,0.178 -6.924,0.622 -10.919,0.622l-47.135,0c-4.349,0 -11.806,-0.356 -15.356,-0.622l0,16.955Z" style="fill-rule:nonzero;"/><path d="M510.436,13.173c-0.443,2.485 -1.42,5.77 -2.219,8.344c-2.13,6.214 -5.681,13.138 -10.03,19.706c-7.545,-5.326 -16.6,-11.451 -22.369,-14.735l-9.499,11.185c6.569,3.639 15.89,10.208 22.902,15.534c-8.61,10.297 -18.996,19.528 -31.246,25.387l12.872,11.628c12.782,-7.367 22.99,-18.552 30.18,-27.428c7.279,6.124 14.025,12.516 19.795,18.463l11.007,-12.427c-5.415,-5.06 -14.114,-12.605 -21.57,-18.553c5.681,-8.432 9.853,-16.333 12.871,-23.079c0.977,-2.219 2.663,-5.592 3.995,-7.811l-16.689,-6.214Z" style="fill-rule:nonzero;"/><path d="M562.276,16.635l-10.208,10.918c6.391,4.527 17.576,14.292 22.28,19.44l11.007,-11.273c-5.326,-5.681 -16.954,-14.913 -23.079,-19.085Zm-12.072,58.053l9.143,14.203c11.184,-1.775 22.724,-6.391 31.778,-11.717c14.824,-8.699 27.429,-21.038 34.531,-33.643l-8.345,-15.179c-5.947,12.516 -17.93,26.275 -33.908,35.507c-8.7,5.059 -20.15,9.054 -33.199,10.829Z" style="fill-rule:nonzero;"/><path d="M0.05,64.172l0,-32.34c0,-11.803 3.512,-18.101 7.163,-22.727c2.772,-3.512 7.082,-6.153 11.411,-7.511c3.353,-1.061 7.703,-1.592 13.05,-1.592c7.47,0 13.23,1.058 17.125,3.438c3.221,1.968 5.9,3.773 8.47,7.738c2.942,4.537 5.961,10.509 5.966,20.654l0,32.34c-0.066,12.354 -3.767,18.016 -7.162,22.727c-2.589,3.649 -7.083,6.153 -11.412,7.512c-3.353,1.061 -7.681,1.591 -12.987,1.591c-7.511,0 -13.241,-1.146 -17.188,-3.438c-4.074,-2.334 -7.487,-4.756 -9.492,-8.391c-2.287,-4.145 -4.407,-7.788 -4.944,-20.001Zm42.861,-25.714l-16.223,41.055c1.483,0.637 3.209,0.956 4.986,0.956c4.287,0 7.456,-2.098 9.247,-5.539c1.128,-2.165 2.201,-5.153 1.99,-12.35l0,-24.122Zm-5.15,-21.377c-1.691,-1.03 -3.85,-1.546 -6.087,-1.546c-4.328,0 -7.463,2.128 -9.31,5.539c-1.095,2.022 -1.919,4.899 -1.99,12.35l0,27.657l17.387,-44Z" style="fill-rule:nonzero;"/></g></g></g></svg>