<?xml version="1.0" encoding="UTF-8" standalone="no"?><!DOCTYPE svg PUBLIC "-//W3C//DTD SVG 1.1//EN" "http://www.w3.org/Graphics/SVG/1.1/DTD/svg11.dtd"><svg width="100%" height="100%" viewBox="0 0 626 97" version="1.1" xmlns="http://www.w3.org/2000/svg" xmlns:xlink="http://www.w3.org/1999/xlink" xml:space="preserve" xmlns:serif="http://www.serif.com/" style="fill-rule:evenodd;clip-rule:evenodd;stroke-linecap:square;stroke-miterlimit:1.41421;"><rect id="t-b" x="0.027" y="0.168" width="625.608" height="96" style="fill:none;"/><clipPath id="_clip1"><rect x="0.027" y="0.168" width="625.608" height="96"/></clipPath><g clip-path="url(#_clip1)"><g><path d="M114.871,12.806c0.177,5.415 -0.444,11.54 -1.687,18.375c-3.906,0.266 -7.545,0.532 -10.119,0.621c-3.462,0.089 -6.835,0.266 -10.208,0l1.154,14.291c2.929,-0.532 7.989,-1.242 10.829,-1.597c1.243,-0.178 3.196,-0.444 5.504,-0.799c-3.285,11.983 -8.966,28.405 -17.31,39.678l13.937,5.593c7.456,-12.073 14.025,-33.199 17.575,-46.869c1.598,-0.089 3.107,-0.178 4.084,-0.178c5.503,0 8.166,0.799 8.166,7.19c0,8.167 -1.065,18.198 -3.284,22.547c-1.154,2.397 -3.196,3.373 -5.948,3.373c-2.219,0 -7.545,-0.976 -10.74,-1.864l2.308,14.025c3.106,0.71 7.278,1.243 10.652,1.243c7.19,0 12.338,-2.219 15.356,-8.522c3.728,-7.811 4.882,-21.925 4.882,-32.222c0,-13.137 -6.657,-17.931 -16.777,-17.931c-1.597,0 -3.639,0.089 -5.947,0.267c0.533,-2.308 1.065,-4.705 1.509,-7.102c0.533,-2.485 1.243,-5.77 1.864,-8.433l-15.8,-1.686Zm33.287,14.558c6.391,8.166 12.25,24.233 14.38,34.441l13.582,-6.302c-2.575,-8.522 -9.765,-25.565 -15.091,-33.465l-12.871,5.326Z" style="fill-rule:nonzero;stroke:#000;stroke-width:0.4px;"/><path d="M202.75,25.322c6.923,1.775 26.807,5.947 36.039,7.19l3.196,-13.137c-7.723,-0.888 -27.074,-4.084 -35.862,-6.835l-3.373,12.782Zm5.326,5.77l-14.292,-1.953c-0.621,11.895 -2.663,28.405 -4.349,37.371l12.161,3.018c0.887,-1.953 1.864,-3.373 3.639,-5.504c5.149,-6.213 13.759,-9.587 22.724,-9.587c7.013,0 11.806,3.729 11.806,8.7c0,10.74 -14.202,16.333 -39.856,12.516l4.172,13.936c38.702,3.373 50.686,-9.853 50.686,-26.186c0,-10.741 -8.966,-21.038 -25.476,-21.038c-8.433,0 -16.688,2.219 -24.322,7.102c0.444,-4.705 1.953,-14.026 3.107,-18.375Z" style="fill-rule:nonzero;stroke:#000;stroke-width:0.4px;"/><path d="M341.669,36.773c-1.42,0.621 -4.083,1.065 -7.456,1.065l-42.253,0c-3.018,0 -7.19,-0.266 -11.273,-0.621l0,13.847c3.994,-0.355 9.054,-0.444 11.273,-0.444l40.389,0c-1.509,4.084 -3.906,8.522 -8.255,12.872c-6.392,6.391 -16.688,12.249 -30.536,15.179l10.741,12.161c11.362,-3.285 22.901,-9.765 31.689,-19.618c6.569,-7.367 10.297,-15.711 13.227,-24.233c0.355,-1.065 1.242,-2.929 1.952,-4.261l-9.498,-5.947Zm-52.638,-7.368c2.663,-0.266 6.924,-0.355 9.942,-0.355l33.465,0c3.373,0 8.166,0.178 10.652,0.355l0,-13.847c-2.575,0.355 -7.634,0.532 -10.475,0.532l-33.642,0c-3.107,0 -7.457,-0.177 -9.942,-0.532l0,13.847Z" style="fill-rule:nonzero;stroke:#000;stroke-width:0.4px;"/><path d="M370.43,59.142c3.639,-0.266 10.297,-0.533 15.356,-0.533l47.135,0c3.64,0 8.611,0.444 10.919,0.533l0,-16.954c-2.574,0.177 -6.924,0.621 -10.919,0.621l-47.135,0c-4.349,0 -11.806,-0.355 -15.356,-0.621l0,16.954Z" style="fill-rule:nonzero;stroke:#000;stroke-width:0.4px;"/><path d="M510.415,13.339c-0.444,2.485 -1.421,5.769 -2.219,8.344c-2.131,6.213 -5.682,13.137 -10.031,19.706c-7.545,-5.326 -16.599,-11.451 -22.369,-14.735l-9.498,11.184c6.568,3.64 15.889,10.208 22.901,15.534c-8.61,10.297 -18.996,19.529 -31.245,25.387l12.871,11.629c12.782,-7.368 22.99,-18.552 30.18,-27.429c7.279,6.125 14.026,12.516 19.795,18.463l11.007,-12.427c-5.414,-5.06 -14.113,-12.605 -21.57,-18.552c5.681,-8.433 9.853,-16.333 12.871,-23.079c0.977,-2.22 2.663,-5.593 3.995,-7.812l-16.688,-6.213Z" style="fill-rule:nonzero;stroke:#000;stroke-width:0.4px;"/><path d="M562.254,16.8l-10.208,10.919c6.391,4.527 17.576,14.291 22.281,19.44l11.007,-11.274c-5.326,-5.681 -16.955,-14.913 -23.08,-19.085Zm-12.072,58.054l9.143,14.202c11.185,-1.775 22.724,-6.391 31.779,-11.717c14.824,-8.699 27.428,-21.037 34.53,-33.642l-8.344,-15.179c-5.948,12.516 -17.931,26.275 -33.909,35.506c-8.699,5.06 -20.15,9.054 -33.199,10.83Z" style="fill-rule:nonzero;stroke:#000;stroke-width:0.4px;"/><path d="M0.029,64.337l0,-32.339c0,-11.804 3.511,-18.101 7.162,-22.727c2.772,-3.513 7.082,-6.154 11.411,-7.512c3.353,-1.061 7.703,-1.591 13.051,-1.591c7.469,0 13.23,1.058 17.124,3.437c3.221,1.968 5.9,3.774 8.47,7.738c2.942,4.538 5.961,10.509 5.966,20.655l0,32.339c-0.066,12.354 -3.767,18.016 -7.162,22.727c-2.589,3.65 -7.083,6.154 -11.412,7.512c-3.352,1.061 -7.681,1.592 -12.986,1.592c-7.512,0 -13.242,-1.146 -17.189,-3.438c-4.074,-2.334 -7.487,-4.756 -9.492,-8.391c-2.286,-4.145 -4.407,-7.789 -4.943,-20.002Zm42.86,-25.713l-16.223,41.054c1.484,0.638 3.209,0.956 4.987,0.956c4.286,0 7.455,-2.098 9.247,-5.538c1.127,-2.165 2.2,-5.154 1.989,-12.35l0,-24.122Zm-5.15,-21.377c-1.691,-1.031 -3.849,-1.546 -6.086,-1.546c-4.329,0 -7.464,2.127 -9.311,5.538c-1.095,2.023 -1.919,4.9 -1.99,12.35l0,27.658l17.387,-44Z" style="fill-rule:nonzero;"/></g></g></svg>