<?xml version="1.0" encoding="UTF-8" standalone="no"?><!DOCTYPE svg PUBLIC "-//W3C//DTD SVG 1.1//EN" "http://www.w3.org/Graphics/SVG/1.1/DTD/svg11.dtd"><svg width="100%" height="100%" viewBox="0 0 557 154" version="1.1" xmlns="http://www.w3.org/2000/svg" xmlns:xlink="http://www.w3.org/1999/xlink" xml:space="preserve" xmlns:serif="http://www.serif.com/" style="fill-rule:evenodd;clip-rule:evenodd;stroke-linejoin:round;stroke-miterlimit:2;"><rect id="t-w-long-break" x="0.191" y="0.084" width="556.2" height="153.6" style="fill:none;"/><clipPath id="_clip1"><rect x="0.191" y="0.084" width="556.2" height="153.6"/></clipPath><g clip-path="url(#_clip1)"><g><g><path d="M272.206,107.434c-1.762,0 -3.221,-1.459 -3.221,-3.221c0,-1.763 1.459,-3.222 3.221,-3.222c1.763,0 3.221,1.459 3.221,3.222c0,1.762 -1.458,3.221 -3.221,3.221Zm-38.653,-2.127c-2.006,0 -6.017,-0.304 -7.901,-0.547l0,10.392c1.58,-0.121 4.923,-0.304 7.901,-0.304l26.741,0c-0.79,4.862 -2.735,11.122 -6.685,15.863c-4.801,5.834 -13.371,11.304 -22.427,13.674l7.78,8.995c10.453,-3.646 18.719,-10.21 23.702,-16.835c5.227,-7.05 7.476,-16.531 8.995,-22.244c0.183,-0.729 0.426,-1.641 0.73,-2.552c4.011,-0.122 7.353,-3.464 7.353,-7.536c0,-4.133 -3.403,-7.537 -7.536,-7.537c-4.133,0 -7.536,3.404 -7.536,7.537c0,0.303 0,0.547 0.061,0.85c-1.52,0.183 -3.1,0.244 -4.133,0.244l-27.045,0Z" style="fill:#fff;fill-rule:nonzero;"/><path d="M322.225,114.909l0,23.156l-27.228,0l0,-23.156l27.228,0Zm9.906,-2.917c0,-2.067 0,-4.558 0.122,-6.564c-2.431,0.061 -4.741,0.061 -6.382,0.061l-33.913,0c-1.762,0 -4.497,-0.061 -6.989,-0.122c0.122,1.884 0.122,4.68 0.122,6.625l0,29.537c0,3.343 -0.183,9.177 -0.183,9.177l10.15,0l0,-3.221l27.106,0l-0.121,3.221l10.21,0c0,0 -0.122,-6.442 -0.122,-9.055l0,-29.659Z" style="fill:#fff;fill-rule:nonzero;"/><path d="M384.156,101.903l-6.078,2.492c2.37,3.343 3.343,5.348 5.287,9.542l6.26,-2.674c-1.337,-2.735 -3.646,-6.625 -5.469,-9.36Zm8.63,-2.978l-6.199,2.553c2.37,3.221 3.525,4.983 5.652,9.177l6.199,-2.735c-1.459,-2.613 -3.647,-6.382 -5.652,-8.995Zm-35.25,1.641l-5.349,8.144c4.255,2.37 10.454,6.321 14.1,8.752l5.47,-8.144c-3.464,-2.371 -9.967,-6.443 -14.221,-8.752Zm-12.459,42.969l5.53,9.724c5.227,-0.851 14.161,-4.011 20.36,-7.476c10.089,-5.773 18.78,-13.37 24.614,-21.94l-5.652,-10.089c-4.801,8.752 -13.553,17.322 -24.006,23.095c-6.868,3.708 -13.979,5.531 -20.846,6.686Zm2.978,-28.991l-5.349,8.144c4.315,2.31 10.454,6.321 14.161,8.874l5.409,-8.266c-3.403,-2.37 -9.845,-6.442 -14.221,-8.752Z" style="fill:#fff;fill-rule:nonzero;"/><path d="M432.169,142.441l0,-17.99l9.541,0c1.398,0 3.343,0.121 4.984,0.243l0,-9.177c-1.58,0.243 -3.525,0.365 -4.984,0.365l-27.713,0c-1.52,0 -3.829,-0.122 -5.166,-0.365l0,9.177c1.337,-0.122 3.646,-0.243 5.166,-0.243l8.447,0l0,17.99l-11.425,0c-1.641,0 -3.708,-0.183 -5.349,-0.426l0,9.603c1.702,-0.243 3.768,-0.304 5.349,-0.304l33.548,0c1.155,0 3.586,0.061 4.923,0.304l0,-9.603c-1.277,0.183 -3.1,0.426 -4.923,0.426l-12.398,0Z" style="fill:#fff;fill-rule:nonzero;"/><path d="M502.061,106.704c-1.58,0.487 -4.011,0.79 -6.017,0.79l-10.636,0c0.79,-1.519 2.006,-3.95 3.465,-6.32l-11.001,-3.404c-0.547,2.371 -1.823,5.592 -2.796,7.415c-2.613,4.801 -7.657,13.128 -16.956,19.448l8.326,6.139c5.045,-3.768 9.907,-9.299 13.796,-14.951l15.316,0c-1.033,3.829 -3.89,10.514 -7.658,14.89c-4.74,5.652 -10.94,11.304 -21.94,15.559l8.569,7.414c8.752,-3.889 16.531,-10.575 21.88,-17.564c5.166,-6.746 8.265,-14.526 10.149,-19.57c0.669,-1.823 1.58,-3.646 2.371,-4.984l-6.868,-4.862Z" style="fill:#fff;fill-rule:nonzero;"/><path d="M556.395,126.031c-5.106,-2.492 -16.896,-6.807 -25.101,-9.177l0,-8.326c0,-2.918 0.365,-5.592 0.608,-7.901l-11.487,0c0.486,2.309 0.73,5.47 0.73,7.901l0,34.703c0,2.492 -0.304,6.564 -0.73,9.177l11.548,0c-0.304,-2.735 -0.669,-7.536 -0.669,-9.177l0,-15.62c6.442,2.31 14.769,5.531 20.907,8.691l4.194,-10.271Z" style="fill:#fff;fill-rule:nonzero;"/></g><g><path d="M101.282,11.21c0.156,4.766 -0.39,10.158 -1.484,16.175c-3.439,0.234 -6.642,0.469 -8.908,0.547c-3.048,0.078 -6.017,0.234 -8.987,0l1.016,12.58c2.579,-0.469 7.033,-1.094 9.533,-1.406c1.094,-0.156 2.813,-0.391 4.845,-0.703c-2.891,10.548 -7.892,25.004 -15.237,34.928l12.268,4.923c6.564,-10.627 12.346,-29.224 15.472,-41.258c1.406,-0.078 2.734,-0.156 3.594,-0.156c4.845,0 7.189,0.703 7.189,6.329c0,7.189 -0.938,16.019 -2.891,19.848c-1.016,2.11 -2.813,2.969 -5.236,2.969c-1.953,0 -6.642,-0.859 -9.455,-1.641l2.032,12.346c2.735,0.625 6.407,1.094 9.377,1.094c6.329,0 10.861,-1.953 13.518,-7.501c3.282,-6.877 4.298,-19.301 4.298,-28.365c0,-11.565 -5.861,-15.785 -14.769,-15.785c-1.406,0 -3.203,0.079 -5.235,0.235c0.469,-2.032 0.938,-4.142 1.328,-6.251c0.469,-2.188 1.094,-5.079 1.641,-7.424l-13.909,-1.484Zm29.303,12.815c5.626,7.189 10.783,21.332 12.659,30.318l11.955,-5.548c-2.266,-7.501 -8.595,-22.504 -13.284,-29.459l-11.33,4.689Z" style="fill:#fff;fill-rule:nonzero;"/><path d="M178.641,22.227c6.095,1.563 23.599,5.236 31.725,6.33l2.813,-11.565c-6.798,-0.781 -23.832,-3.594 -31.568,-6.017l-2.97,11.252Zm4.689,5.08l-12.581,-1.72c-0.547,10.471 -2.344,25.005 -3.829,32.898l10.705,2.656c0.782,-1.719 1.641,-2.969 3.204,-4.844c4.532,-5.47 12.112,-8.439 20.004,-8.439c6.173,0 10.393,3.281 10.393,7.657c0,9.455 -12.503,14.378 -35.085,11.018l3.672,12.268c34.07,2.97 44.619,-8.673 44.619,-23.051c0,-9.455 -7.893,-18.52 -22.427,-18.52c-7.423,0 -14.69,1.954 -21.41,6.252c0.391,-4.142 1.719,-12.347 2.735,-16.175Z" style="fill:#fff;fill-rule:nonzero;"/><path d="M300.931,32.308c-1.25,0.547 -3.594,0.937 -6.564,0.937l-37.194,0c-2.657,0 -6.33,-0.234 -9.924,-0.547l0,12.19c3.516,-0.312 7.97,-0.391 9.924,-0.391l35.553,0c-1.328,3.595 -3.438,7.502 -7.267,11.331c-5.626,5.626 -14.69,10.783 -26.88,13.362l9.455,10.705c10.002,-2.891 20.16,-8.595 27.896,-17.269c5.783,-6.486 9.065,-13.831 11.643,-21.332c0.313,-0.938 1.094,-2.579 1.719,-3.751l-8.361,-5.235Zm-46.337,-6.486c2.344,-0.235 6.095,-0.313 8.752,-0.313l29.459,0c2.969,0 7.189,0.157 9.376,0.313l0,-12.19c-2.266,0.313 -6.72,0.469 -9.22,0.469l-29.615,0c-2.735,0 -6.564,-0.156 -8.752,-0.469l0,12.19Z" style="fill:#fff;fill-rule:nonzero;"/><path d="M326.249,51.999c3.203,-0.234 9.064,-0.469 13.518,-0.469l41.493,0c3.203,0 7.579,0.391 9.611,0.469l0,-14.925c-2.266,0.156 -6.095,0.547 -9.611,0.547l-41.493,0c-3.829,0 -10.393,-0.312 -13.518,-0.547l0,14.925Z" style="fill:#fff;fill-rule:nonzero;"/><path d="M449.476,11.678c-0.39,2.188 -1.25,5.08 -1.953,7.346c-1.876,5.47 -5.001,11.564 -8.83,17.347c-6.642,-4.689 -14.612,-10.08 -19.692,-12.971l-8.361,9.845c5.783,3.204 13.988,8.986 20.161,13.675c-7.58,9.064 -16.722,17.191 -27.506,22.348l11.331,10.236c11.252,-6.485 20.238,-16.331 26.567,-24.145c6.408,5.392 12.347,11.018 17.426,16.253l9.689,-10.939c-4.766,-4.454 -12.424,-11.096 -18.988,-16.332c5.001,-7.423 8.674,-14.378 11.33,-20.316c0.86,-1.954 2.345,-4.923 3.517,-6.877l-14.691,-5.47Z" style="fill:#fff;fill-rule:nonzero;"/><path d="M495.11,14.726l-8.986,9.611c5.626,3.985 15.472,12.581 19.613,17.113l9.69,-9.924c-4.689,-5.001 -14.925,-13.127 -20.317,-16.8Zm-10.627,51.104l8.049,12.502c9.845,-1.562 20.004,-5.626 27.974,-10.314c13.049,-7.658 24.145,-18.52 30.397,-29.615l-7.346,-13.362c-5.235,11.017 -15.784,23.129 -29.849,31.256c-7.658,4.454 -17.738,7.97 -29.225,9.533Z" style="fill:#fff;fill-rule:nonzero;"/><path d="M0.188,56.572l0,-28.468c0,-10.391 3.091,-15.934 6.305,-20.006c2.44,-3.092 6.234,-5.417 10.045,-6.613c2.951,-0.934 6.781,-1.401 11.488,-1.401c6.575,0 11.646,0.932 15.075,3.026c2.835,1.733 5.193,3.322 7.456,6.812c2.59,3.994 5.247,9.251 5.251,18.182l0,28.468c-0.057,10.875 -3.316,15.86 -6.305,20.006c-2.278,3.213 -6.234,5.418 -10.045,6.613c-2.951,0.934 -6.762,1.401 -11.432,1.401c-6.613,0 -11.656,-1.009 -15.131,-3.026c-3.586,-2.055 -6.59,-4.187 -8.356,-7.387c-2.012,-3.648 -3.879,-6.856 -4.351,-17.607Zm37.729,-22.635l-14.281,36.14c1.306,0.561 2.825,0.841 4.39,0.841c3.773,0 6.563,-1.847 8.14,-4.875c0.993,-1.906 1.937,-4.537 1.751,-10.872l0,-21.234Zm-4.533,-18.818c-1.489,-0.907 -3.389,-1.361 -5.358,-1.361c-3.811,0 -6.57,1.873 -8.196,4.875c-0.964,1.781 -1.69,4.314 -1.751,10.872l0,24.347l15.305,-38.733Z" style="fill:#fff;fill-rule:nonzero;"/></g></g></g></svg>