<?xml version="1.0" encoding="UTF-8" standalone="no"?><!DOCTYPE svg PUBLIC "-//W3C//DTD SVG 1.1//EN" "http://www.w3.org/Graphics/SVG/1.1/DTD/svg11.dtd"><svg width="100%" height="100%" viewBox="0 0 1152 97" version="1.1" xmlns="http://www.w3.org/2000/svg" xmlns:xlink="http://www.w3.org/1999/xlink" xml:space="preserve" xmlns:serif="http://www.serif.com/" style="fill-rule:evenodd;clip-rule:evenodd;stroke-linejoin:round;stroke-miterlimit:2;"><rect id="t-w-long" x="0.05" y="0.188" width="1151.42" height="96" style="fill:none;"/><clipPath id="_clip1"><rect x="0.05" y="0.188" width="1151.42" height="96"/></clipPath><g clip-path="url(#_clip1)"><g><g><path d="M723.976,20.861c-2.575,0 -4.705,-2.13 -4.705,-4.704c0,-2.574 2.13,-4.705 4.705,-4.705c2.574,0 4.704,2.131 4.704,4.705c0,2.574 -2.13,4.704 -4.704,4.704Zm-56.456,-3.106c-2.929,0 -8.788,-0.444 -11.54,-0.799l0,15.179c2.308,-0.178 7.191,-0.444 11.54,-0.444l39.057,0c-1.154,7.101 -3.994,16.244 -9.764,23.168c-7.013,8.522 -19.529,16.511 -32.755,19.973l11.362,13.137c15.268,-5.326 27.34,-14.913 34.619,-24.588c7.634,-10.297 10.919,-24.145 13.138,-32.489c0.266,-1.065 0.621,-2.397 1.065,-3.728c5.859,-0.178 10.741,-5.06 10.741,-11.007c0,-6.036 -4.971,-11.007 -11.007,-11.007c-6.037,0 -11.007,4.971 -11.007,11.007c0,0.444 0,0.799 0.088,1.243c-2.219,0.266 -4.527,0.355 -6.036,0.355l-39.501,0Z" style="fill:#fff;fill-rule:nonzero;"/><path d="M802.357,31.78l0,33.82l-39.768,0l0,-33.82l39.768,0Zm14.468,-4.261c0,-3.018 0,-6.658 0.178,-9.587c-3.551,0.089 -6.924,0.089 -9.32,0.089l-49.532,0c-2.574,0 -6.569,-0.089 -10.208,-0.178c0.177,2.752 0.177,6.835 0.177,9.676l0,43.141c0,4.882 -0.266,13.403 -0.266,13.403l14.824,0l0,-4.704l39.59,0l-0.178,4.704l14.913,0c0,0 -0.178,-9.409 -0.178,-13.226l0,-43.318Z" style="fill:#fff;fill-rule:nonzero;"/><path d="M895.473,12.784l-8.877,3.639c3.462,4.882 4.882,7.812 7.723,13.937l9.143,-3.906c-1.953,-3.995 -5.326,-9.676 -7.989,-13.67Zm12.605,-4.35l-9.055,3.728c3.462,4.705 5.149,7.279 8.256,13.404l9.054,-3.994c-2.131,-3.817 -5.326,-9.321 -8.255,-13.138Zm-51.485,2.397l-7.812,11.895c6.214,3.461 15.268,9.231 20.594,12.782l7.989,-11.895c-5.059,-3.462 -14.557,-9.409 -20.771,-12.782Zm-18.197,62.758l8.078,14.202c7.633,-1.242 20.682,-5.858 29.736,-10.918c14.736,-8.433 27.429,-19.528 35.951,-32.045l-8.255,-14.735c-7.013,12.783 -19.795,25.299 -35.063,33.732c-10.031,5.414 -20.417,8.077 -30.447,9.764Zm4.349,-42.342l-7.811,11.895c6.302,3.373 15.268,9.232 20.682,12.96l7.901,-12.072c-4.971,-3.462 -14.38,-9.41 -20.772,-12.783Z" style="fill:#fff;fill-rule:nonzero;"/><path d="M965.598,71.991l0,-26.275l13.937,0c2.041,0 4.882,0.178 7.278,0.355l0,-13.404c-2.307,0.356 -5.148,0.533 -7.278,0.533l-40.478,0c-2.219,0 -5.592,-0.177 -7.545,-0.533l0,13.404c1.953,-0.177 5.326,-0.355 7.545,-0.355l12.339,0l0,26.275l-16.688,0c-2.397,0 -5.415,-0.266 -7.812,-0.621l0,14.025c2.486,-0.355 5.504,-0.444 7.812,-0.444l48.999,0c1.686,0 5.237,0.089 7.19,0.444l0,-14.025c-1.864,0.266 -4.527,0.621 -7.19,0.621l-18.109,0Z" style="fill:#fff;fill-rule:nonzero;"/><path d="M1070.34,19.796c-2.308,0.71 -5.859,1.154 -8.788,1.154l-15.534,0c1.154,-2.219 2.929,-5.77 5.06,-9.231l-16.067,-4.971c-0.799,3.461 -2.663,8.166 -4.084,10.829c-3.816,7.013 -11.184,19.174 -24.765,28.405l12.161,8.966c7.367,-5.504 14.469,-13.581 20.15,-21.837l22.369,0c-1.509,5.593 -5.681,15.357 -11.185,21.748c-6.924,8.255 -15.978,16.511 -32.044,22.724l12.516,10.83c12.782,-5.681 24.144,-15.446 31.956,-25.654c7.545,-9.853 12.072,-21.215 14.824,-28.583c0.976,-2.663 2.308,-5.326 3.461,-7.278l-10.03,-7.102Z" style="fill:#fff;fill-rule:nonzero;"/><path d="M1151.48,48.024c-7.457,-3.639 -24.678,-9.942 -36.661,-13.404l0,-12.161c0,-4.261 0.533,-8.166 0.888,-11.539l-16.777,0c0.71,3.373 1.065,7.989 1.065,11.539l0,50.686c0,3.639 -0.444,9.587 -1.065,13.404l16.865,0c-0.443,-3.995 -0.976,-11.007 -0.976,-13.404l0,-22.813c9.409,3.373 21.57,8.078 30.536,12.694l6.125,-15.002Z" style="fill:#fff;fill-rule:nonzero;"/></g><g><path d="M114.891,12.827c0.178,5.414 -0.444,11.539 -1.687,18.374c-3.905,0.267 -7.545,0.533 -10.119,0.622c-3.462,0.088 -6.835,0.266 -10.208,0l1.154,14.291c2.929,-0.533 7.989,-1.243 10.829,-1.598c1.243,-0.177 3.196,-0.444 5.504,-0.799c-3.284,11.984 -8.965,28.406 -17.31,39.679l13.937,5.592c7.456,-12.072 14.025,-33.198 17.576,-46.868c1.597,-0.089 3.106,-0.178 4.083,-0.178c5.503,0 8.166,0.799 8.166,7.19c0,8.167 -1.065,18.197 -3.284,22.547c-1.154,2.397 -3.196,3.373 -5.947,3.373c-2.22,0 -7.546,-0.976 -10.741,-1.864l2.308,14.025c3.107,0.71 7.279,1.243 10.652,1.243c7.19,0 12.338,-2.219 15.356,-8.522c3.729,-7.811 4.883,-21.925 4.883,-32.222c0,-13.138 -6.658,-17.931 -16.777,-17.931c-1.598,0 -3.64,0.089 -5.948,0.266c0.533,-2.308 1.066,-4.704 1.509,-7.101c0.533,-2.485 1.243,-5.77 1.864,-8.433l-15.8,-1.686Zm33.287,14.557c6.392,8.167 12.25,24.234 14.381,34.442l13.581,-6.303c-2.574,-8.521 -9.764,-25.564 -15.09,-33.465l-12.872,5.326Z" style="fill:#fff;fill-rule:nonzero;"/><path d="M202.77,25.343c6.924,1.775 26.807,5.947 36.039,7.19l3.196,-13.138c-7.723,-0.887 -27.074,-4.083 -35.862,-6.835l-3.373,12.783Zm5.326,5.77l-14.291,-1.953c-0.622,11.894 -2.663,28.405 -4.35,37.37l12.161,3.018c0.888,-1.952 1.864,-3.373 3.639,-5.503c5.149,-6.214 13.759,-9.587 22.725,-9.587c7.012,0 11.806,3.728 11.806,8.699c0,10.741 -14.203,16.333 -39.857,12.516l4.172,13.937c38.703,3.373 50.686,-9.853 50.686,-26.186c0,-10.741 -8.965,-21.038 -25.476,-21.038c-8.433,0 -16.688,2.219 -24.322,7.101c0.444,-4.704 1.953,-14.025 3.107,-18.374Z" style="fill:#fff;fill-rule:nonzero;"/><path d="M341.69,36.794c-1.421,0.621 -4.084,1.065 -7.457,1.065l-42.253,0c-3.018,0 -7.19,-0.267 -11.273,-0.622l0,13.848c3.995,-0.355 9.054,-0.444 11.273,-0.444l40.389,0c-1.509,4.083 -3.906,8.522 -8.255,12.871c-6.391,6.392 -16.688,12.25 -30.536,15.179l10.741,12.161c11.362,-3.284 22.902,-9.764 31.69,-19.617c6.568,-7.368 10.297,-15.712 13.226,-24.233c0.355,-1.065 1.243,-2.93 1.953,-4.261l-9.498,-5.947Zm-52.639,-7.368c2.663,-0.266 6.924,-0.355 9.942,-0.355l33.465,0c3.373,0 8.166,0.177 10.652,0.355l0,-13.848c-2.574,0.355 -7.634,0.533 -10.475,0.533l-33.642,0c-3.107,0 -7.456,-0.178 -9.942,-0.533l0,13.848Z" style="fill:#fff;fill-rule:nonzero;"/><path d="M370.45,59.163c3.639,-0.267 10.297,-0.533 15.357,-0.533l47.135,0c3.639,0 8.61,0.444 10.918,0.533l0,-16.955c-2.574,0.178 -6.924,0.622 -10.918,0.622l-47.135,0c-4.35,0 -11.806,-0.355 -15.357,-0.622l0,16.955Z" style="fill:#fff;fill-rule:nonzero;"/><path d="M510.435,13.359c-0.444,2.486 -1.42,5.77 -2.219,8.344c-2.131,6.214 -5.681,13.138 -10.031,19.706c-7.545,-5.326 -16.599,-11.45 -22.369,-14.735l-9.498,11.185c6.569,3.639 15.889,10.208 22.902,15.534c-8.611,10.297 -18.996,19.529 -31.246,25.387l12.871,11.629c12.782,-7.368 22.991,-18.553 30.181,-27.429c7.279,6.125 14.025,12.516 19.795,18.463l11.007,-12.427c-5.415,-5.06 -14.114,-12.605 -21.571,-18.552c5.681,-8.433 9.854,-16.333 12.872,-23.08c0.976,-2.219 2.663,-5.592 3.994,-7.811l-16.688,-6.214Z" style="fill:#fff;fill-rule:nonzero;"/><path d="M562.275,16.821l-10.209,10.918c6.392,4.527 17.576,14.292 22.281,19.44l11.007,-11.273c-5.326,-5.681 -16.954,-14.913 -23.079,-19.085Zm-12.073,58.053l9.143,14.203c11.185,-1.775 22.725,-6.391 31.779,-11.717c14.824,-8.699 27.429,-21.038 34.53,-33.643l-8.344,-15.179c-5.947,12.516 -17.931,26.275 -33.909,35.507c-8.699,5.06 -20.15,9.054 -33.199,10.829Z" style="fill:#fff;fill-rule:nonzero;"/><path d="M0.049,64.358l0,-32.34c0,-11.803 3.511,-18.101 7.162,-22.726c2.772,-3.513 7.083,-6.154 11.412,-7.512c3.352,-1.061 7.702,-1.592 13.05,-1.592c7.469,0 13.23,1.058 17.125,3.438c3.221,1.968 5.899,3.774 8.47,7.738c2.942,4.537 5.96,10.509 5.965,20.654l0,32.34c-0.065,12.354 -3.767,18.016 -7.162,22.727c-2.589,3.65 -7.082,6.154 -11.411,7.512c-3.353,1.061 -7.682,1.591 -12.987,1.591c-7.512,0 -13.241,-1.146 -17.188,-3.437c-4.075,-2.335 -7.487,-4.757 -9.493,-8.392c-2.286,-4.145 -4.406,-7.788 -4.943,-20.001Zm42.861,-25.714l-16.224,41.055c1.484,0.637 3.209,0.956 4.987,0.956c4.286,0 7.455,-2.098 9.247,-5.538c1.128,-2.165 2.2,-5.154 1.99,-12.351l0,-24.122Zm-5.15,-21.376c-1.692,-1.031 -3.85,-1.547 -6.087,-1.547c-4.329,0 -7.464,2.128 -9.311,5.539c-1.095,2.022 -1.919,4.9 -1.989,12.35l0,27.658l17.387,-44Z" style="fill:#fff;fill-rule:nonzero;"/></g></g></g></svg>