<?xml version="1.0" encoding="UTF-8" standalone="no"?><!DOCTYPE svg PUBLIC "-//W3C//DTD SVG 1.1//EN" "http://www.w3.org/Graphics/SVG/1.1/DTD/svg11.dtd"><svg width="100%" height="100%" viewBox="0 0 626 97" version="1.1" xmlns="http://www.w3.org/2000/svg" xmlns:xlink="http://www.w3.org/1999/xlink" xml:space="preserve" xmlns:serif="http://www.serif.com/" style="fill-rule:evenodd;clip-rule:evenodd;stroke-linejoin:round;stroke-miterlimit:2;"><rect id="t-w" x="0.026" y="0.114" width="625.608" height="96" style="fill:none;"/><clipPath id="_clip1"><rect x="0.026" y="0.114" width="625.608" height="96"/></clipPath><g clip-path="url(#_clip1)"><g><path d="M114.869,12.752c0.178,5.415 -0.444,11.54 -1.686,18.375c-3.906,0.266 -7.545,0.532 -10.12,0.621c-3.462,0.089 -6.835,0.266 -10.208,0l1.154,14.292c2.929,-0.533 7.989,-1.243 10.83,-1.598c1.242,-0.178 3.195,-0.444 5.503,-0.799c-3.284,11.983 -8.965,28.405 -17.309,39.679l13.936,5.592c7.456,-12.072 14.025,-33.199 17.576,-46.869c1.598,-0.089 3.107,-0.177 4.083,-0.177c5.504,0 8.167,0.798 8.167,7.19c0,8.166 -1.066,18.197 -3.285,22.546c-1.154,2.397 -3.195,3.374 -5.947,3.374c-2.219,0 -7.545,-0.977 -10.741,-1.865l2.308,14.026c3.107,0.71 7.279,1.242 10.652,1.242c7.19,0 12.339,-2.219 15.357,-8.521c3.728,-7.812 4.882,-21.926 4.882,-32.223c0,-13.137 -6.658,-17.93 -16.777,-17.93c-1.598,0 -3.64,0.088 -5.947,0.266c0.532,-2.308 1.065,-4.705 1.509,-7.101c0.532,-2.486 1.242,-5.77 1.864,-8.433l-15.801,-1.687Zm33.288,14.558c6.391,8.166 12.249,24.233 14.38,34.441l13.581,-6.302c-2.574,-8.522 -9.764,-25.565 -15.09,-33.465l-12.871,5.326Z" style="fill:#fff;fill-rule:nonzero;"/><path d="M202.748,25.268c6.924,1.776 26.808,5.948 36.039,7.19l3.196,-13.137c-7.723,-0.888 -27.074,-4.083 -35.862,-6.835l-3.373,12.782Zm5.326,5.77l-14.291,-1.953c-0.622,11.895 -2.663,28.405 -4.35,37.371l12.161,3.018c0.888,-1.953 1.864,-3.373 3.64,-5.504c5.148,-6.213 13.758,-9.586 22.724,-9.586c7.012,0 11.806,3.728 11.806,8.699c0,10.741 -14.203,16.333 -39.856,12.516l4.172,13.936c38.702,3.373 50.685,-9.853 50.685,-26.186c0,-10.741 -8.965,-21.038 -25.476,-21.038c-8.432,0 -16.688,2.22 -24.322,7.102c0.444,-4.705 1.953,-14.025 3.107,-18.375Z" style="fill:#fff;fill-rule:nonzero;"/><path d="M341.668,36.719c-1.42,0.621 -4.083,1.065 -7.457,1.065l-42.252,0c-3.018,0 -7.191,-0.266 -11.274,-0.621l0,13.848c3.995,-0.356 9.054,-0.444 11.274,-0.444l40.388,0c-1.509,4.083 -3.905,8.521 -8.255,12.871c-6.391,6.391 -16.688,12.25 -30.536,15.179l10.741,12.161c11.362,-3.284 22.902,-9.764 31.69,-19.617c6.569,-7.368 10.297,-15.712 13.226,-24.234c0.355,-1.065 1.243,-2.929 1.953,-4.261l-9.498,-5.947Zm-52.639,-7.368c2.663,-0.266 6.924,-0.355 9.942,-0.355l33.465,0c3.373,0 8.167,0.178 10.652,0.355l0,-13.847c-2.574,0.355 -7.634,0.532 -10.474,0.532l-33.643,0c-3.107,0 -7.456,-0.177 -9.942,-0.532l0,13.847Z" style="fill:#fff;fill-rule:nonzero;"/><path d="M370.428,59.088c3.64,-0.266 10.297,-0.532 15.357,-0.532l47.135,0c3.639,0 8.61,0.444 10.918,0.532l0,-16.954c-2.574,0.177 -6.924,0.621 -10.918,0.621l-47.135,0c-4.35,0 -11.806,-0.355 -15.357,-0.621l0,16.954Z" style="fill:#fff;fill-rule:nonzero;"/><path d="M510.413,13.285c-0.444,2.485 -1.42,5.77 -2.219,8.344c-2.13,6.213 -5.681,13.137 -10.031,19.706c-7.545,-5.326 -16.599,-11.451 -22.369,-14.735l-9.498,11.184c6.569,3.64 15.889,10.208 22.902,15.534c-8.61,10.297 -18.996,19.529 -31.246,25.388l12.871,11.628c12.783,-7.367 22.991,-18.552 30.181,-27.429c7.279,6.125 14.025,12.516 19.795,18.464l11.007,-12.428c-5.415,-5.059 -14.114,-12.604 -21.57,-18.552c5.681,-8.433 9.853,-16.333 12.871,-23.079c0.976,-2.219 2.663,-5.592 3.994,-7.812l-16.688,-6.213Z" style="fill:#fff;fill-rule:nonzero;"/><path d="M562.253,16.747l-10.208,10.918c6.391,4.527 17.575,14.291 22.28,19.44l11.007,-11.274c-5.326,-5.681 -16.954,-14.912 -23.079,-19.084Zm-12.072,58.053l9.143,14.203c11.184,-1.776 22.724,-6.392 31.778,-11.718c14.824,-8.699 27.429,-21.037 34.53,-33.642l-8.344,-15.179c-5.947,12.516 -17.931,26.275 -33.909,35.506c-8.699,5.06 -20.15,9.055 -33.198,10.83Z" style="fill:#fff;fill-rule:nonzero;"/><path d="M0.027,64.284l0,-32.34c0,-11.804 3.512,-18.101 7.162,-22.727c2.773,-3.512 7.083,-6.154 11.412,-7.512c3.353,-1.061 7.703,-1.591 13.05,-1.591c7.47,0 13.23,1.058 17.125,3.437c3.221,1.968 5.9,3.774 8.47,7.738c2.942,4.538 5.961,10.51 5.966,20.655l0,32.34c-0.066,12.353 -3.767,18.015 -7.163,22.726c-2.589,3.65 -7.082,6.154 -11.411,7.512c-3.353,1.061 -7.682,1.592 -12.987,1.592c-7.512,0 -13.241,-1.146 -17.188,-3.438c-4.074,-2.334 -7.487,-4.756 -9.492,-8.391c-2.287,-4.145 -4.407,-7.789 -4.944,-20.001Zm42.861,-25.714l-16.223,41.055c1.483,0.637 3.208,0.956 4.986,0.956c4.287,0 7.455,-2.099 9.247,-5.539c1.128,-2.165 2.2,-5.154 1.99,-12.35l0,-24.122Zm-5.15,-21.377c-1.691,-1.031 -3.85,-1.546 -6.087,-1.546c-4.329,0 -7.463,2.127 -9.31,5.538c-1.096,2.023 -1.92,4.9 -1.99,12.351l0,27.657l17.387,-44Z" style="fill:#fff;fill-rule:nonzero;"/></g></g></svg>