<?xml version="1.0" encoding="UTF-8" standalone="no"?><!DOCTYPE svg PUBLIC "-//W3C//DTD SVG 1.1//EN" "http://www.w3.org/Graphics/SVG/1.1/DTD/svg11.dtd"><svg width="100%" height="100%" viewBox="0 0 193 193" version="1.1" xmlns="http://www.w3.org/2000/svg" xmlns:xlink="http://www.w3.org/1999/xlink" xml:space="preserve" xmlns:serif="http://www.serif.com/" style="fill-rule:evenodd;clip-rule:evenodd;stroke-linejoin:round;stroke-miterlimit:2;"><rect id="w" x="0.239" y="0.222" width="192" height="192" style="fill:#fff;fill-opacity:0;"/><clipPath id="_clip1"><rect x="0.239" y="0.222" width="192" height="192"/></clipPath><g clip-path="url(#_clip1)"><path d="M81.879,184.855c-0.434,0.797 3.95,2.484 3.876,4.783c-1.655,0.19 -6.496,-5.205 -7.796,-4.783c-1.299,0.421 0.917,8.093 0,7.311c-0.708,-0.604 -3.06,-5.994 -4.514,-9.533c-0.427,-1.039 -0.777,-1.919 -0.985,-2.471c-0.304,-0.807 -0.211,-1.751 0,-2.587c0.22,-0.874 1.53,-1.692 1.322,-2.66c-0.44,-2.043 -3.578,-8.002 -3.962,-9.603c-0.129,-0.537 1.194,-0.301 1.657,0c1.069,0.696 3.654,5.976 4.757,4.177c2.094,-3.416 6.855,-18.163 7.807,-24.672c0.112,-0.766 -9.638,10.905 -18.517,9.397c-4.294,-0.729 -10.893,-5.358 -12.169,-13.331c-14.468,1.208 -25.39,-13.132 -25.39,-13.132c0,0 -19.771,-24.77 -2.706,-53.368c2.396,-0.123 2.301,1.28 2.37,1.194c1.892,-3.613 3.142,-1.137 5.09,0.811c1.438,-2.42 2.357,0.64 2.357,0.64c0,0 3.422,30.282 53.285,45.297c2.196,-26.929 1.029,-48.615 0.294,-57.863c-0.881,-7.531 -1.914,-14.779 -1.517,-20.383c-0.639,-3.528 -4.252,-9.882 -4.252,-9.882c0,0 -12.732,7.507 -24.767,1.016c-6.061,-3.877 4.131,-3.277 8.904,-7.707c1.2,-2.476 -3.332,-3.963 -2.545,-5.452c1.308,-2.901 6.486,0.775 9.032,-2.892c1.686,-3.76 -1.821,-6.027 -0.471,-7.31c1.349,-1.283 7.004,0.56 8.84,-1.33c2.597,-2.496 0.66,-5.55 1.007,-7.055c1.57,-0.669 3.16,-0.378 5.475,0.752c2.315,1.13 3.874,0.314 4.152,0c0.279,-0.313 1.03,-0.207 1.958,-3.297c0.928,-3.09 6.959,5.018 7.572,5.592c0.614,0.574 1.653,7.536 2.318,7.808c0.791,0.323 7.741,-2.333 9.435,-2.617c0.383,-0.065 0.719,0.632 0.727,0.912c-0.01,0.5 -3.411,7.723 -2.946,8.321c2.248,2.229 8.986,5.459 10.537,7.749c0.82,1.211 0.51,1.724 0.218,2.513c-0.339,0.919 -1.435,2.053 -2.253,2.997c-1.114,1.287 -4.811,4.026 -4.432,4.721c0.191,0.352 17.203,-2.202 37.865,14.302c14.332,13.689 20.099,32.526 20.118,35.641c0.485,6.209 2.157,20.506 -4.782,34.96c-6.938,14.454 -18.079,19.708 -22.602,22.933c-4.523,3.224 -5.556,2.369 -4.733,4.34c3.752,8.991 13.262,19.815 13.262,19.815c0,0 6.769,-5.333 7.876,-4.24c-0.467,1.318 -4.976,3.77 -4.461,4.24c0.515,0.47 6.522,-2.156 7.548,-1.42c0.183,1.157 -5.449,2.956 -5.243,3.547c0.206,0.591 7.696,-1.01 6.48,0c-1.145,0.95 -12.35,4.384 -14.978,4.211c-2.481,1.126 -4.958,0.296 -4.958,0.296c0,0 -5.12,4.251 -7.239,4.527c-0.339,0.049 -1.119,-0.413 -1.251,-1.908c0.283,-1.555 4.156,-4.788 3.658,-5.247c-5.362,-4.938 -20.311,-14.726 -34.622,-15.359c-4.075,-0.18 -22.502,18.298 -25.706,22.514c-1.423,1.872 4.729,0.684 6.482,2.785c-1.016,1.124 -6.048,-0.798 -6.482,0Zm58.804,-33.428c0.023,-0.182 0.213,-0.602 0.318,-0.45c-0.123,1.581 2.34,5.807 5.245,9.911c3.166,4.472 6.845,8.827 7.96,10.154c-0.207,0.274 -0.341,0.247 -0.499,0.514c-0.951,-1.893 -13.561,-15.803 -13.024,-20.129Zm-29.96,-20.621l39.341,-68.43c0,0 17.296,21.921 3.46,46.079c-15.088,26.343 -42.801,22.351 -42.801,22.351Zm-5.607,-10.165l-1.156,2.009l1.639,0.943l1.043,-1.814l1.116,0.643l-1.043,1.813l2.711,1.559l-0.785,1.364l-6.582,-3.786l1.94,-3.374l1.117,0.643Zm-9.939,5.38l42.769,-74.536l1.036,0.637l-42.836,74.291l-0.969,-0.392Zm17.167,-5.3l-0.785,1.365l-6.582,-3.787l1.036,-1.801c0.238,-0.414 0.445,-0.708 0.621,-0.883c0.372,-0.369 0.819,-0.517 1.341,-0.445c0.311,0.043 0.69,0.193 1.137,0.451c0.576,0.331 0.963,0.635 1.16,0.91c0.197,0.275 0.273,0.619 0.227,1.032l3.47,0.333l-0.87,1.513l-3.258,-0.463l-0.145,0.253l2.648,1.522Zm-5.276,-3.538l-0.238,0.415l1.806,1.038l0.22,-0.382c0.212,-0.366 0.244,-0.564 0.178,-0.726c-0.083,-0.204 -0.28,-0.395 -0.593,-0.575c-0.351,-0.202 -0.623,-0.292 -0.816,-0.269c-0.193,0.023 -0.365,0.164 -0.557,0.499Zm48.032,-6.504c1.771,-3.039 3.323,-7.495 3.323,-7.495l-1.085,-0.782c0,0 -1.402,3.517 -3.371,7.298c-1.781,3.594 -5.027,6.968 -5.027,6.968l1.161,0.749c0,0 2.897,-3.131 4.999,-6.738Zm-42.371,4.404l-2.287,-1.315c-0.835,-0.48 -1.138,-0.985 -1.316,-1.431c-0.136,-0.339 -0.147,-0.752 -0.067,-1.113c0.061,-0.28 0.2,-0.61 0.418,-0.988c0.304,-0.528 0.613,-0.892 0.94,-1.071c0.27,-0.148 0.507,-0.264 0.892,-0.284c0.44,-0.024 0.985,0.006 1.703,0.418l2.287,1.316c0.871,0.507 1.121,0.999 1.316,1.431c0.153,0.332 0.147,0.751 0.067,1.113c-0.061,0.28 -0.2,0.608 -0.416,0.983c-0.305,0.531 -0.619,0.89 -0.942,1.076c-0.331,0.193 -0.641,0.336 -0.98,0.33c-0.386,-0.007 -0.73,-0.006 -1.615,-0.465Zm-0.075,-4.077l2.243,2.818c0.106,-0.079 0.199,-0.188 0.271,-0.314c0.174,-0.303 0.155,-0.613 -0.016,-0.879c-0.107,-0.168 -0.275,-0.366 -0.792,-0.644l-1.706,-0.981Zm-1.721,-0.505c-0.142,0.077 -0.266,0.209 -0.357,0.367c-0.177,0.306 -0.154,0.615 0.012,0.884c0.099,0.16 0.269,0.335 0.793,0.643l1.956,1.125l-2.404,-3.019Zm8.398,-1.926l-0.782,1.359l-6.504,-3.741l0.717,-1.246l4.035,0.673l-2.608,-3.155l0.717,-1.245l6.504,3.741l-0.782,1.359l-3.559,-2.047l1.601,1.85l-0.494,0.858l-2.404,-0.453l3.559,2.047Zm-85.816,-30.75c-0.052,-0.304 0.304,-1.057 0.471,-0.797c2.785,7.108 4.37,15.467 14.911,24.82c-9.986,-7.943 -12.101,-14.604 -15.382,-24.023Zm119.055,-24.733c0,0 12.388,14.429 15.969,24.269c5.281,10.211 5.365,23.447 5.365,23.447c0,0 0.766,-14.335 -5.06,-24.781c-8.839,-17.222 -16.274,-22.935 -16.274,-22.935Zm-31.167,41.131l-0.717,1.247c-0.379,-0.182 -0.651,-0.273 -0.816,-0.275c-0.165,-0.001 -0.3,0.09 -0.406,0.273c-0.193,0.337 -0.017,0.662 0.53,0.976c0.234,0.135 0.447,0.179 0.64,0.132c0.193,-0.047 0.436,-0.202 0.731,-0.464c0.298,-0.268 0.516,-0.451 0.654,-0.549c0.139,-0.098 0.293,-0.18 0.463,-0.246c0.476,-0.19 1.058,-0.087 1.745,0.309c0.34,0.195 0.606,0.395 0.8,0.6c0.193,0.206 0.331,0.438 0.414,0.697c0.179,0.535 0.076,1.138 -0.311,1.811c-0.473,0.822 -1.096,1.211 -1.869,1.166c-0.348,-0.021 -0.802,-0.182 -1.363,-0.485l0.717,-1.247c0.381,0.207 0.678,0.307 0.891,0.3c0.214,-0.007 0.386,-0.123 0.515,-0.348c0.137,-0.237 0.167,-0.445 0.093,-0.624c-0.075,-0.179 -0.267,-0.357 -0.577,-0.535c-0.264,-0.152 -0.486,-0.204 -0.665,-0.156c-0.104,0.028 -0.192,0.068 -0.263,0.119c-0.071,0.051 -0.258,0.213 -0.559,0.487c-0.429,0.392 -0.841,0.629 -1.235,0.71c-0.449,0.093 -0.953,-0.021 -1.511,-0.342c-1.318,-0.758 -1.639,-1.724 -0.964,-2.897c0.442,-0.769 1.031,-1.137 1.768,-1.105c0.343,0.014 0.775,0.163 1.295,0.446Zm3.298,-5.732l-0.72,1.251c-0.376,-0.18 -0.651,-0.265 -0.824,-0.255c-0.174,0.01 -0.319,0.117 -0.437,0.321c-0.134,0.235 -0.131,0.445 0.011,0.633c0.142,0.187 0.49,0.441 1.046,0.76l1.774,1.021c0.555,0.319 0.951,0.491 1.189,0.516c0.237,0.025 0.427,-0.086 0.568,-0.332c0.126,-0.219 0.138,-0.425 0.034,-0.616c-0.104,-0.192 -0.337,-0.398 -0.701,-0.619l0.717,-1.247c0.61,0.37 1.01,0.744 1.2,1.121c0.314,0.608 0.255,1.286 -0.174,2.033c-0.43,0.748 -0.97,1.148 -1.62,1.202c-0.462,0.038 -1.095,-0.175 -1.899,-0.637l-1.977,-1.137c-0.465,-0.268 -0.813,-0.51 -1.044,-0.727c-0.746,-0.696 -0.828,-1.549 -0.248,-2.558c0.457,-0.795 1.058,-1.183 1.801,-1.162c0.347,0.008 0.782,0.152 1.304,0.432Zm-0.83,-3.037l1.036,-1.801c0.238,-0.414 0.445,-0.708 0.622,-0.883c0.372,-0.369 0.819,-0.517 1.34,-0.445c0.311,0.043 0.69,0.193 1.137,0.451c0.577,0.331 0.963,0.634 1.161,0.91c0.197,0.275 0.273,0.619 0.227,1.032l3.469,0.333l-0.87,1.513l-3.257,-0.463l-0.145,0.252l2.647,1.523l-0.785,1.365l-6.582,-3.787Zm2.092,-1.116l-0.238,0.415l1.805,1.038l0.22,-0.383c0.171,-0.316 0.242,-0.559 0.178,-0.726c-0.079,-0.205 -0.28,-0.394 -0.592,-0.574c-0.351,-0.202 -0.623,-0.292 -0.816,-0.269c-0.193,0.023 -0.368,0.17 -0.557,0.499Zm10.441,-5.442l-0.847,1.472l-1.414,-0.448l-0.794,1.38l1.098,0.998l-0.847,1.472l-5.51,-5.65l0.658,-1.143l7.656,1.919Zm-3.434,0.564l-2.732,-0.865l2.123,1.923l0.609,-1.058Zm1.148,-9.217l-0.892,1.55l5.425,3.121l-0.794,1.38l-5.425,-3.12l-0.892,1.55l-1.13,-0.65l2.578,-4.481l1.13,0.65Zm3.844,-4.805l-0.72,1.251c-0.376,-0.18 -0.65,-0.265 -0.824,-0.255c-0.173,0.01 -0.319,0.117 -0.436,0.321c-0.135,0.234 -0.131,0.445 0.011,0.633c0.141,0.187 0.49,0.441 1.045,0.76l1.774,1.02c0.555,0.32 0.952,0.492 1.189,0.517c0.238,0.024 0.427,-0.086 0.569,-0.332c0.126,-0.219 0.137,-0.425 0.033,-0.616c-0.103,-0.192 -0.337,-0.398 -0.701,-0.619l0.717,-1.248c0.61,0.371 1.01,0.745 1.201,1.122c0.313,0.608 0.255,1.286 -0.175,2.033c-0.43,0.747 -0.97,1.148 -1.62,1.201c-0.461,0.039 -1.094,-0.174 -1.899,-0.636l-1.976,-1.137c-0.465,-0.268 -0.813,-0.51 -1.044,-0.727c-0.746,-0.697 -0.829,-1.549 -0.249,-2.558c0.458,-0.795 1.058,-1.183 1.802,-1.162c0.347,0.007 0.781,0.151 1.303,0.432Zm6.639,-0.79l-0.785,1.364l-6.583,-3.787l0.785,-1.364l2.711,1.559l0.71,-1.234l-2.711,-1.559l0.785,-1.365l6.583,3.787l-0.785,1.364l-2.756,-1.585l-0.71,1.235l2.756,1.585Zm-46.482,-47.077c-0.407,0.304 -0.85,0.727 -0.75,1.572c0.442,1.724 2.435,1.134 2.51,1.103c0.382,-0.176 0.658,-0.587 0.681,-1.73c-0.18,-0.771 -0.314,-0.877 -0.734,-1.165c-0.633,-0.219 -1.127,-0.004 -1.707,0.22Z" style="fill:#fff;"/></g></svg>