<?xml version="1.0" encoding="UTF-8" standalone="no"?><!DOCTYPE svg PUBLIC "-//W3C//DTD SVG 1.1//EN" "http://www.w3.org/Graphics/SVG/1.1/DTD/svg11.dtd"><svg width="100%" height="100%" viewBox="0 0 626 96" version="1.1" xmlns="http://www.w3.org/2000/svg" xmlns:xlink="http://www.w3.org/1999/xlink" xml:space="preserve" xmlns:serif="http://www.serif.com/" style="fill-rule:evenodd;clip-rule:evenodd;stroke-linecap:square;stroke-miterlimit:1.41421;"><rect id="t-short" x="0" y="0" width="625.608" height="96" style="fill:none;"/><clipPath id="_clip1"><rect x="0" y="0" width="625.608" height="96"/></clipPath><g clip-path="url(#_clip1)"><g><path d="M114.844,12.638c0.177,5.415 -0.444,11.54 -1.687,18.375c-3.906,0.266 -7.545,0.533 -10.119,0.621c-3.462,0.089 -6.835,0.267 -10.209,0l1.154,14.292c2.93,-0.533 7.989,-1.243 10.83,-1.598c1.243,-0.177 3.196,-0.444 5.504,-0.799c-3.285,11.984 -8.966,28.405 -17.31,39.679l13.936,5.592c7.457,-12.072 14.025,-33.199 17.576,-46.869c1.598,-0.088 3.107,-0.177 4.083,-0.177c5.504,0 8.167,0.799 8.167,7.19c0,8.166 -1.065,18.197 -3.284,22.547c-1.154,2.396 -3.196,3.373 -5.948,3.373c-2.219,0 -7.545,-0.977 -10.741,-1.864l2.308,14.025c3.107,0.71 7.279,1.243 10.652,1.243c7.19,0 12.339,-2.22 15.357,-8.522c3.728,-7.812 4.882,-21.925 4.882,-32.222c0,-13.138 -6.657,-17.931 -16.777,-17.931c-1.598,0 -3.639,0.089 -5.947,0.266c0.533,-2.308 1.065,-4.705 1.509,-7.101c0.533,-2.486 1.243,-5.77 1.864,-8.433l-15.8,-1.687Zm33.287,14.558c6.391,8.167 12.25,24.233 14.38,34.442l13.582,-6.303c-2.575,-8.521 -9.765,-25.565 -15.091,-33.465l-12.871,5.326Z" style="fill-rule:nonzero;stroke:#000;stroke-width:0.4px;"/><path d="M202.723,25.154c6.923,1.776 26.807,5.948 36.039,7.191l3.195,-13.138c-7.722,-0.888 -27.073,-4.083 -35.861,-6.835l-3.373,12.782Zm5.326,5.77l-14.292,-1.953c-0.621,11.895 -2.663,28.406 -4.349,37.371l12.161,3.018c0.887,-1.953 1.864,-3.373 3.639,-5.503c5.148,-6.214 13.759,-9.587 22.724,-9.587c7.013,0 11.806,3.728 11.806,8.699c0,10.741 -14.202,16.333 -39.856,12.516l4.172,13.936c38.702,3.374 50.686,-9.853 50.686,-26.186c0,-10.74 -8.966,-21.037 -25.476,-21.037c-8.433,0 -16.688,2.219 -24.322,7.101c0.444,-4.705 1.953,-14.025 3.107,-18.375Z" style="fill-rule:nonzero;stroke:#000;stroke-width:0.4px;"/><path d="M341.642,36.605c-1.42,0.622 -4.083,1.066 -7.456,1.066l-42.253,0c-3.018,0 -7.19,-0.267 -11.273,-0.622l0,13.848c3.994,-0.355 9.054,-0.444 11.273,-0.444l40.389,0c-1.509,4.083 -3.906,8.522 -8.256,12.871c-6.391,6.391 -16.688,12.25 -30.535,15.179l10.741,12.161c11.362,-3.284 22.901,-9.764 31.689,-19.617c6.569,-7.368 10.297,-15.712 13.226,-24.233c0.355,-1.066 1.243,-2.93 1.953,-4.261l-9.498,-5.948Zm-52.638,-7.367c2.663,-0.267 6.923,-0.355 9.942,-0.355l33.465,0c3.373,0 8.166,0.177 10.652,0.355l0,-13.848c-2.575,0.355 -7.634,0.533 -10.475,0.533l-33.642,0c-3.107,0 -7.457,-0.178 -9.942,-0.533l0,13.848Z" style="fill-rule:nonzero;stroke:#000;stroke-width:0.4px;"/><path d="M370.403,58.975c3.639,-0.267 10.297,-0.533 15.356,-0.533l47.135,0c3.64,0 8.611,0.444 10.919,0.533l0,-16.955c-2.575,0.178 -6.924,0.621 -10.919,0.621l-47.135,0c-4.349,0 -11.806,-0.355 -15.356,-0.621l0,16.955Z" style="fill-rule:nonzero;stroke:#000;stroke-width:0.4px;"/><path d="M510.388,13.171c-0.444,2.485 -1.421,5.77 -2.22,8.344c-2.13,6.214 -5.681,13.137 -10.03,19.706c-7.545,-5.326 -16.6,-11.451 -22.369,-14.735l-9.498,11.185c6.568,3.639 15.889,10.208 22.901,15.534c-8.61,10.297 -18.996,19.528 -31.246,25.387l12.872,11.628c12.782,-7.367 22.99,-18.552 30.18,-27.429c7.279,6.125 14.025,12.517 19.795,18.464l11.007,-12.427c-5.414,-5.06 -14.114,-12.605 -21.57,-18.553c5.681,-8.432 9.853,-16.333 12.871,-23.079c0.977,-2.219 2.663,-5.592 3.995,-7.811l-16.688,-6.214Z" style="fill-rule:nonzero;stroke:#000;stroke-width:0.4px;"/><path d="M562.227,16.633l-10.208,10.918c6.391,4.527 17.576,14.292 22.28,19.44l11.008,-11.273c-5.326,-5.681 -16.955,-14.913 -23.08,-19.085Zm-12.072,58.053l9.143,14.203c11.185,-1.775 22.724,-6.391 31.778,-11.717c14.824,-8.699 27.429,-21.038 34.531,-33.643l-8.344,-15.179c-5.948,12.516 -17.931,26.275 -33.909,35.507c-8.699,5.059 -20.15,9.054 -33.199,10.829Z" style="fill-rule:nonzero;stroke:#000;stroke-width:0.4px;"/><path d="M0.001,64.17l0,-32.34c0,-11.803 3.512,-18.101 7.163,-22.727c2.772,-3.512 7.082,-6.153 11.411,-7.511c3.353,-1.061 7.703,-1.592 13.051,-1.592c7.469,0 13.23,1.058 17.124,3.438c3.221,1.968 5.9,3.773 8.47,7.738c2.942,4.537 5.961,10.509 5.966,20.654l0,32.34c-0.066,12.354 -3.767,18.016 -7.162,22.727c-2.589,3.649 -7.083,6.153 -11.412,7.511c-3.353,1.061 -7.681,1.592 -12.986,1.592c-7.512,0 -13.242,-1.146 -17.189,-3.438c-4.074,-2.334 -7.487,-4.756 -9.492,-8.391c-2.287,-4.145 -4.407,-7.788 -4.944,-20.001Zm42.861,-25.714l-16.223,41.055c1.483,0.637 3.209,0.956 4.987,0.956c4.286,0 7.455,-2.098 9.246,-5.539c1.128,-2.165 2.201,-5.154 1.99,-12.35l0,-24.122Zm-5.15,-21.377c-1.691,-1.03 -3.85,-1.546 -6.086,-1.546c-4.329,0 -7.464,2.128 -9.311,5.539c-1.095,2.022 -1.919,4.899 -1.99,12.35l0,27.657l17.387,-44Z" style="fill-rule:nonzero;"/></g></g></svg>