<?xml version="1.0" encoding="UTF-8" standalone="no"?><!DOCTYPE svg PUBLIC "-//W3C//DTD SVG 1.1//EN" "http://www.w3.org/Graphics/SVG/1.1/DTD/svg11.dtd"><svg width="100%" height="100%" viewBox="0 0 800 801" version="1.1" xmlns="http://www.w3.org/2000/svg" xmlns:xlink="http://www.w3.org/1999/xlink" xml:space="preserve" xmlns:serif="http://www.serif.com/" style="fill-rule:evenodd;clip-rule:evenodd;stroke-linejoin:round;stroke-miterlimit:2;"><rect id="c-bg-w" x="0" y="0.138" width="800" height="800" style="fill:#fff;"/><clipPath id="_clip1"><rect x="0" y="0.138" width="800" height="800"/></clipPath><g clip-path="url(#_clip1)"><path d="M125.714,220.587c-56.892,-16.118 -91.428,-37.283 -91.428,-60.449l0,-68.707c0,-50.461 163.87,-91.292 365.714,-91.293c201.844,0.001 365.714,40.832 365.714,91.293l0,68.707c0,23.166 -34.536,44.331 -91.428,60.449l0,40.694c0,27.875 -66.674,51.887 -162.293,62.605c18.801,-14.114 19.771,-38.382 19.326,-48.114c79.369,-10.851 134.981,-31.227 142.174,-54.961c-67.013,18.863 -164.742,30.756 -273.493,30.756c-90.251,0 -172.91,-8.191 -236.722,-21.759c0.796,7.201 1.647,14.353 2.564,21.459c4.283,1.751 8.871,3.451 13.745,5.094l9.764,48.82c-5.63,-1.687 -10.943,-3.442 -15.916,-5.26c2.726,14.585 5.878,29.002 9.574,43.282c4.698,1.518 9.646,2.985 14.826,4.398l9.644,48.217c-3.007,-0.741 -5.947,-1.5 -8.815,-2.275c5.372,14.603 11.487,29.099 18.479,43.526c26.048,53.743 64.572,99.491 111.748,136.711c4.948,-11.25 9.724,-22.546 14.214,-33.979c18.357,0.97 37.39,1.48 56.895,1.48c93.368,0 175.903,-11.688 225.45,-29.526c4.222,13.51 8.723,26.982 13.633,40.28c-47.059,20.861 -136.537,34.96 -239.083,34.96c-18.997,0 -37.545,-0.483 -55.458,-1.405c14.446,10.425 29.608,20.103 45.388,29.022c7.916,4.474 16.085,8.563 24.46,12.29c107.113,-1.386 198.055,-18.166 238.076,-41.651c4.943,11.211 10.278,22.204 16.087,32.889c-14.052,16.904 -53.03,31.536 -106.878,41.382c7.528,0.417 15.022,0.681 22.457,0.804c48.899,0.812 87.705,-12.632 134.65,-26.274c-4.329,-10.648 -20.035,-20.602 -44.496,-29.3l0,-25.139c56.892,16.087 91.428,37.224 91.428,60.389l0,68.708c0,50.461 -163.871,91.428 -365.714,91.428c-201.843,0 -365.714,-40.967 -365.714,-91.428l0,-68.708c0,-23.165 34.536,-44.301 91.428,-60.389l0,-21.189l0.09,1.769c2.412,23.444 51.927,43.972 125.726,55.883l9.435,47.171c-80.914,-11.929 -135.249,-33.944 -135.251,-59.109l0,0.614c-29.017,10.318 -45.714,22.404 -45.714,35.318c0,37.846 143.387,68.572 320,68.572c96.58,0 183.224,-9.189 241.918,-23.705c-63.034,8.004 -126.527,4.694 -187.365,-13.586c-17.633,0.891 -35.876,1.359 -54.553,1.359c-40.299,0 -78.58,-2.178 -113.061,-6.087c6.384,-14.839 12.999,-29.349 19.608,-43.717c14.798,1.342 30.188,2.375 46.044,3.067c-60.624,-35.603 -111.498,-83.132 -148.03,-145.171c-48.75,-12.38 -78.847,-29.364 -78.847,-48.092l0,-45.715l0.09,1.769c1.472,14.312 20.499,27.538 51.889,38.379c-6.655,-15.43 -12.638,-31.15 -17.996,-47.083c-21.655,-9.807 -33.983,-21.079 -33.983,-33.065l0,-45.714l0.09,1.769c0.828,8.047 7.205,15.751 18.209,22.88c-3.914,-15.904 -7.281,-31.929 -10.145,-48.001c-5.326,-5.33 -8.154,-10.907 -8.154,-16.648l0,-40.694Zm117.539,354.1c-71.033,-12.397 -117.539,-32.983 -117.539,-56.263l0,-45.714l0.09,1.768c2.213,21.51 44.073,40.563 107.959,52.761l9.49,47.448Zm359.673,-141.577c3.831,13.889 7.692,28.033 11.735,42.269c-50.27,15.78 -127.774,25.902 -214.661,25.902c-14.614,0 -28.963,-0.286 -42.961,-0.838c4.574,-14.681 8.508,-29.73 11.583,-45.321c10.297,0.294 20.768,0.445 31.378,0.445c80.385,0 152.739,-8.664 202.926,-22.457Zm-336.256,-71.902c39.48,5.507 84.951,8.645 133.33,8.645c151.382,0 274.286,-30.726 274.286,-68.572l0,45.714c0,37.846 -122.904,68.572 -274.286,68.572c-59.148,0 -113.947,-4.691 -158.768,-12.664c13.014,-11.839 21.277,-25.788 25.438,-41.695Zm-7.551,-86.808c41.188,6.183 89.387,9.738 140.881,9.738c5.193,0 10.352,-0.036 15.475,-0.107c0.543,9.025 4.28,33.752 28.52,44.942c-14.326,0.579 -29.021,0.88 -43.995,0.88c-47.294,0 -91.808,-2.999 -130.663,-8.277c-1.324,-14.633 -4.832,-30.382 -10.218,-47.176Zm172.751,-45.073l8.754,-0.196c-0.105,4.342 -0.864,7.604 -2.275,9.784c-2.255,3.548 -6.005,5.381 -11.251,5.499c-5.246,0.118 -8.996,-1.431 -11.25,-4.645c-1.601,-2.282 -2.402,-6.246 -2.402,-11.892l0,-13.873c0,-3.266 0.222,-5.841 0.664,-7.726c1.412,-6.078 5.657,-9.197 12.736,-9.356c5.583,-0.125 9.449,1.779 11.597,5.712c1.012,1.831 1.57,4.547 1.675,8.147l-8.785,0.198c-0.19,-2.524 -0.574,-4.222 -1.153,-5.094c-0.58,-0.872 -1.586,-1.291 -3.018,-1.259c-1.644,0.037 -2.745,0.72 -3.303,2.049c-0.558,1.329 -0.837,3.943 -0.837,7.84l0,12.452c0,3.897 0.295,6.503 0.885,7.817c0.589,1.314 1.748,1.952 3.476,1.913c1.538,-0.035 2.654,-0.623 3.35,-1.766c0.695,-1.143 1.074,-3.011 1.137,-5.604Zm-83.208,-1.135l8.754,0.454c0.063,2.637 0.437,4.526 1.122,5.667c0.684,1.142 1.817,1.754 3.397,1.835c1.664,0.087 2.855,-0.32 3.571,-1.221c0.716,-0.9 1.074,-2.436 1.074,-4.606c0,-1.853 -0.4,-3.201 -1.201,-4.044c-0.463,-0.487 -0.937,-0.854 -1.422,-1.1c-0.484,-0.247 -1.906,-0.81 -4.266,-1.691c-3.371,-1.249 -5.867,-2.832 -7.49,-4.749c-1.853,-2.182 -2.78,-5.232 -2.78,-9.15c0,-9.249 4.118,-13.66 12.356,-13.233c5.393,0.279 9.122,2.463 11.187,6.552c0.969,1.904 1.496,4.66 1.58,8.266l-8.754,-0.453c-0.189,-2.559 -0.532,-4.289 -1.027,-5.188c-0.495,-0.9 -1.385,-1.384 -2.67,-1.45c-2.36,-0.123 -3.54,1.734 -3.54,5.568c0,1.643 0.417,2.924 1.249,3.841c0.832,0.917 2.386,1.814 4.661,2.691c2.317,0.878 3.945,1.558 4.882,2.038c0.938,0.48 1.839,1.091 2.702,1.831c2.444,2.065 3.666,5.509 3.666,10.334c0,2.38 -0.247,4.38 -0.742,5.997c-0.495,1.618 -1.301,3.009 -2.418,4.173c-2.275,2.452 -5.773,3.556 -10.492,3.312c-5.772,-0.299 -9.712,-2.61 -11.819,-6.933c-0.948,-1.945 -1.475,-4.859 -1.58,-8.741Zm144.626,-34.482c-1.112,0.006 -2.418,0.084 -3.917,0.235l-12.641,1.273l0,46.202l9.575,-0.964l0,-18.582l1.77,-0.178l7.443,17.832l10.618,-1.069l-8.77,-18.426c2.317,-1.244 3.903,-2.847 4.756,-4.808c0.853,-1.961 1.28,-4.964 1.28,-9.009c0,-3.139 -0.358,-5.558 -1.074,-7.255c-1.201,-2.85 -3.34,-4.541 -6.416,-5.074c-0.681,-0.119 -1.522,-0.178 -2.523,-0.177l-0.101,0Zm-268.041,38.742l0,-45.652l8.743,0.93l8.695,24.25l8.726,-22.398l8.743,0.929l0,45.652l-9.538,-1.014l0,-24.98l-4.902,13.533l-6.027,-0.641l-4.902,-14.576l0,24.981l-9.538,-1.014Zm337.703,-8.037l-9.686,1.178l-1.928,9.052l-10.333,1.257l13.075,-47.792l8.027,-0.977l13.106,44.608l-10.334,1.257l-1.927,-8.583Zm49.878,1.944l0,-38.074l-10.883,2.441l0,-7.93l31.455,-7.057l0,7.931l-10.883,2.441l0,38.074l-9.689,2.174Zm-450.536,-20.092l0,-16.053c0,-5.86 1.743,-8.697 3.555,-10.692c1.376,-1.515 3.516,-2.472 5.665,-2.789c1.664,-0.251 3.824,-0.156 6.478,0.285c3.708,0.615 6.568,1.615 8.501,3.117c1.599,1.242 2.929,2.359 4.205,4.539c1.46,2.495 2.959,5.708 2.961,10.745l0,16.053c-0.033,6.128 -1.87,8.633 -3.555,10.692c-1.285,1.599 -3.516,2.472 -5.665,2.789c-1.664,0.251 -3.813,0.157 -6.447,-0.28c-3.729,-0.618 -6.573,-1.659 -8.532,-3.122c-2.023,-1.494 -3.717,-2.978 -4.712,-4.947c-1.135,-2.246 -2.188,-4.23 -2.454,-10.337Zm399.528,10.701l-3.729,-16.579l-3.697,17.483l7.426,-0.904Zm-378.252,-19.934l-8.053,19.043c0.736,0.439 1.593,0.739 2.475,0.886c2.128,0.353 3.701,-0.428 4.59,-1.988c0.56,-0.982 1.093,-2.377 0.988,-5.967l0,-11.974Zm302.485,17.565l2.686,-0.27c2.187,-0.281 3.685,-0.793 4.369,-1.704c0.841,-1.123 1.232,-2.8 1.232,-4.991c0,-2.465 -0.353,-4.136 -1.058,-5.013c-0.706,-0.877 -2.009,-1.221 -4.322,-0.987l-2.907,0.293l0,12.672Zm-369.474,-26.043l0,18.582l-9.576,-3.532l0,-46.202l12.641,4.662c2.907,1.073 5.088,2.077 6.542,3.013c3.075,1.978 5.214,4.673 6.415,8.086c0.716,2.034 1.074,4.621 1.074,7.76c0,4.045 -0.426,6.848 -1.28,8.408c-0.853,1.56 -2.438,2.419 -4.756,2.575l8.77,22.544l-10.618,-3.917l-7.443,-21.327l-1.769,-0.652Zm564.459,6.5l8.753,-2.785c-0.105,4.373 -0.863,7.859 -2.275,10.457c-2.254,4.215 -6.004,7.157 -11.25,8.826c-5.246,1.669 -8.996,1.229 -11.25,-1.319c-1.602,-1.808 -2.402,-5.535 -2.402,-11.182l0,-13.873c0,-3.265 0.221,-5.906 0.663,-7.922c1.412,-6.495 5.657,-10.869 12.736,-13.121c5.583,-1.777 9.449,-1.016 11.598,2.282c1.011,1.532 1.569,4.083 1.675,7.652l-8.786,2.795c-0.189,-2.467 -0.574,-4.052 -1.153,-4.752c-0.579,-0.701 -1.585,-0.823 -3.018,-0.367c-1.643,0.523 -2.744,1.531 -3.302,3.026c-0.559,1.494 -0.838,4.19 -0.838,8.088l0,12.451c0,3.897 0.295,6.416 0.885,7.555c0.59,1.14 1.749,1.435 3.476,0.885c1.538,-0.489 2.655,-1.408 3.35,-2.756c0.695,-1.349 1.075,-3.328 1.138,-5.94Zm-500.026,-9.058c-0.84,-0.651 -1.911,-1.085 -3.022,-1.269c-2.149,-0.357 -3.705,0.441 -4.622,1.982c-0.543,0.914 -0.953,2.274 -0.987,5.967l0,13.73l8.631,-20.41Zm533.451,13.06l0,-46.202l9.575,-4.93l0,19.024l8.667,-5.387l0,-19.025l9.576,-6.072l0,46.202l-9.576,6.072l0,-19.34l-8.667,5.388l0,19.34l-9.575,4.93Zm-655.1,-17.618l0,-46.202l23.678,13.589l0,7.837l-14.102,-8.093l0,11.503l12.728,7.304l0,7.838l-12.728,-7.305l0,19.024l-9.576,-5.495Zm56.963,-0.278l2.686,0.991c2.575,0.961 3.716,0.949 4.369,0.347c0.822,-0.75 1.233,-2.221 1.233,-4.412c0,-2.465 -0.353,-4.301 -1.059,-5.51c-0.706,-1.208 -1.974,-2.156 -4.322,-3.016l-2.907,-1.072l0,12.672Zm283.674,-158.235c176.613,0 320,30.726 320,68.572c0,37.845 -143.387,68.571 -320,68.571c-176.613,0 -320,-30.726 -320,-68.571c0,-37.846 143.387,-68.572 320,-68.572Zm-179.15,37.97l134.74,59.288c-118.776,-2.874 -209.175,-17.233 -209.175,-34.491c0,-9.684 28.464,-18.456 74.435,-24.797Zm33.415,-3.88c41.092,-3.993 91.143,-6.338 145.12,-6.338c139.617,0 252.969,15.69 252.969,35.015c0,10.482 -33.347,19.894 -86.145,26.313l-311.944,-54.99Z" style="fill:#14b292;"/></g></svg>