<?xml version="1.0" encoding="UTF-8" standalone="no"?><!DOCTYPE svg PUBLIC "-//W3C//DTD SVG 1.1//EN" "http://www.w3.org/Graphics/SVG/1.1/DTD/svg11.dtd"><svg width="100%" height="100%" viewBox="0 0 801 801" version="1.1" xmlns="http://www.w3.org/2000/svg" xmlns:xlink="http://www.w3.org/1999/xlink" xml:space="preserve" xmlns:serif="http://www.serif.com/" style="fill-rule:evenodd;clip-rule:evenodd;stroke-linejoin:round;stroke-miterlimit:2;"><rect id="c-padding" x="0.668" y="0.123" width="800" height="800" style="fill:none;"/><path d="M225.125,294.21c-36.411,-10.316 -58.514,-23.861 -58.514,-38.687l0,-43.973c0,-32.295 104.877,-58.427 234.057,-58.427c129.18,0 234.057,26.132 234.057,58.427l0,43.973c0,14.826 -22.103,28.371 -58.514,38.687l0,26.044c0,17.84 -42.672,33.208 -103.868,40.067c12.033,-9.033 12.653,-24.564 12.369,-30.793c50.796,-6.945 86.388,-19.985 90.991,-35.175c-42.888,12.073 -105.434,19.684 -175.035,19.684c-57.761,0 -110.663,-5.242 -151.502,-13.926c0.509,4.609 1.054,9.186 1.641,13.734c2.74,1.121 5.677,2.209 8.797,3.26l6.249,31.245c-3.604,-1.079 -7.005,-2.203 -10.187,-3.366c1.745,9.334 3.762,18.561 6.127,27.7c3.007,0.972 6.174,1.911 9.489,2.814l6.172,30.86c-1.925,-0.475 -3.806,-0.96 -5.641,-1.456c3.438,9.346 7.351,18.623 11.826,27.856c16.671,34.396 41.326,63.675 71.519,87.496c3.167,-7.2 6.224,-14.43 9.097,-21.747c11.749,0.621 23.929,0.947 36.413,0.947c59.755,0 112.577,-7.48 144.288,-18.897c2.702,8.647 5.583,17.269 8.725,25.78c-30.118,13.351 -87.384,22.374 -153.013,22.374c-12.158,0 -24.029,-0.309 -35.493,-0.899c9.245,6.672 18.949,12.866 29.048,18.574c5.066,2.863 10.294,5.48 15.654,7.865c68.553,-0.887 126.755,-11.626 152.369,-26.656c3.164,7.175 6.578,14.21 10.296,21.048c-8.993,10.819 -33.94,20.184 -68.402,26.485c4.818,0.267 9.614,0.436 14.372,0.515c31.296,0.519 56.131,-8.084 86.176,-16.815c-2.77,-6.815 -12.822,-13.186 -28.477,-18.752l0,-16.089c36.41,10.295 58.514,23.823 58.514,38.649l0,43.972c0,32.295 -104.878,58.515 -234.057,58.515c-129.18,0 -234.057,-26.22 -234.057,-58.515l0,-43.972c0,-14.826 22.103,-28.353 58.514,-38.649l0,-13.561l0.057,1.132c1.544,15.004 33.233,28.142 80.465,35.765l6.038,30.189c-51.785,-7.634 -86.559,-21.724 -86.56,-37.829l0,0.393c-18.571,6.603 -29.257,14.338 -29.257,22.603c0,24.221 91.767,43.886 204.8,43.886c61.811,0 117.263,-5.881 154.827,-15.171c-40.342,5.123 -80.977,3.004 -119.913,-8.695c-11.285,0.57 -22.961,0.869 -34.914,0.869c-25.792,0 -50.291,-1.393 -72.359,-3.895c4.085,-9.497 8.319,-18.783 12.549,-27.979c9.471,0.859 19.32,1.52 29.468,1.963c-38.8,-22.786 -71.359,-53.205 -94.739,-92.91c-31.201,-7.923 -50.462,-18.793 -50.462,-30.779l0,-29.257l0.057,1.132c0.943,9.16 13.12,17.624 33.209,24.562c-4.259,-9.874 -8.088,-19.935 -11.517,-30.132c-13.86,-6.277 -21.749,-13.491 -21.749,-21.162l0,-29.257l0.057,1.132c0.53,5.15 4.612,10.081 11.654,14.643c-2.505,-10.179 -4.66,-20.434 -6.492,-30.72c-3.409,-3.412 -5.219,-6.981 -5.219,-10.655l0,-26.044Zm75.224,226.624c-45.461,-7.934 -75.224,-21.109 -75.224,-36.008l0,-29.258l0.057,1.132c1.416,13.766 28.207,25.961 69.094,33.767l6.073,30.367Zm230.191,-90.609c2.452,8.889 4.923,17.94 7.511,27.052c-32.173,10.099 -81.776,16.577 -137.383,16.577c-9.353,0 -18.536,-0.183 -27.495,-0.536c2.927,-9.396 5.445,-19.027 7.412,-29.006c6.591,0.188 13.292,0.285 20.083,0.285c51.446,0 97.753,-5.545 129.872,-14.372Zm-215.203,-46.018c25.267,3.524 54.368,5.533 85.331,5.533c96.884,0 175.543,-19.665 175.543,-43.886l0,29.257c0,24.221 -78.659,43.886 -175.543,43.886c-37.855,0 -72.927,-3.002 -101.612,-8.105c8.329,-7.577 13.617,-16.504 16.281,-26.685Zm-4.833,-55.557c26.36,3.957 57.207,6.233 90.164,6.233c3.323,0 6.625,-0.023 9.903,-0.069c0.348,5.776 2.74,21.601 18.253,28.763c-9.168,0.37 -18.573,0.563 -28.156,0.563c-30.268,0 -58.757,-1.919 -83.625,-5.297c-0.847,-9.365 -3.092,-19.445 -6.539,-30.193Zm110.561,-28.846l5.602,-0.126c-0.067,2.779 -0.553,4.866 -1.456,6.262c-1.443,2.271 -3.843,3.444 -7.2,3.519c-3.358,0.076 -5.758,-0.915 -7.201,-2.973c-1.024,-1.46 -1.537,-3.997 -1.537,-7.611l0,-8.878c0,-2.09 0.142,-3.739 0.425,-4.945c0.903,-3.89 3.62,-5.886 8.151,-5.988c3.573,-0.08 6.047,1.139 7.422,3.656c0.648,1.172 1.005,2.91 1.072,5.214l-5.622,0.127c-0.122,-1.616 -0.368,-2.702 -0.738,-3.26c-0.371,-0.558 -1.015,-0.827 -1.932,-0.806c-1.052,0.023 -1.756,0.461 -2.113,1.311c-0.358,0.851 -0.536,2.524 -0.536,5.018l0,7.969c0,2.494 0.188,4.162 0.566,5.003c0.377,0.841 1.119,1.249 2.225,1.224c0.984,-0.022 1.699,-0.399 2.144,-1.13c0.444,-0.732 0.687,-1.927 0.728,-3.586Zm-53.254,-0.727l5.603,0.291c0.04,1.687 0.28,2.896 0.718,3.627c0.438,0.73 1.163,1.122 2.174,1.174c1.065,0.055 1.827,-0.205 2.285,-0.781c0.459,-0.577 0.688,-1.559 0.688,-2.948c0,-1.187 -0.256,-2.049 -0.768,-2.588c-0.297,-0.312 -0.6,-0.547 -0.911,-0.705c-0.31,-0.157 -1.22,-0.518 -2.73,-1.082c-2.157,-0.799 -3.755,-1.812 -4.793,-3.039c-1.187,-1.396 -1.78,-3.348 -1.78,-5.856c0,-5.92 2.636,-8.743 7.908,-8.47c3.452,0.179 5.838,1.577 7.16,4.194c0.62,1.219 0.957,2.982 1.011,5.291l-5.603,-0.291c-0.121,-1.637 -0.34,-2.744 -0.657,-3.32c-0.317,-0.576 -0.886,-0.886 -1.709,-0.928c-1.51,-0.078 -2.265,1.109 -2.265,3.563c0,1.052 0.266,1.872 0.799,2.459c0.532,0.587 1.527,1.161 2.983,1.722c1.483,0.562 2.525,0.997 3.125,1.304c0.6,0.308 1.176,0.698 1.729,1.172c1.564,1.321 2.346,3.526 2.346,6.614c0,1.523 -0.158,2.803 -0.475,3.838c-0.317,1.035 -0.833,1.926 -1.547,2.671c-1.457,1.569 -3.695,2.276 -6.715,2.119c-3.695,-0.191 -6.216,-1.67 -7.564,-4.437c-0.607,-1.245 -0.944,-3.109 -1.012,-5.594Zm92.561,-22.068c-0.712,0.003 -1.548,0.053 -2.507,0.15l-8.09,0.815l0,29.569l6.128,-0.617l0,-11.893l1.133,-0.114l4.763,11.413l6.796,-0.684l-5.613,-11.793c1.483,-0.796 2.498,-1.822 3.044,-3.077c0.546,-1.255 0.819,-3.177 0.819,-5.766c0,-2.009 -0.229,-3.556 -0.688,-4.643c-0.768,-1.824 -2.137,-2.906 -4.105,-3.247c-0.437,-0.076 -0.975,-0.114 -1.615,-0.113l-0.065,0Zm-171.546,24.794l0,-29.217l5.595,0.595l5.565,15.52l5.585,-14.334l5.595,0.594l0,29.218l-6.104,-0.649l0,-15.988l-3.138,8.661l-3.857,-0.41l-3.137,-9.328l0,15.987l-6.104,-0.649Zm216.13,-5.143l-6.199,0.754l-1.234,5.793l-6.614,0.804l8.368,-30.587l5.138,-0.625l8.388,28.549l-6.614,0.805l-1.233,-5.493Zm31.921,1.244l0,-24.368l-6.964,1.563l0,-5.076l20.131,-4.516l0,5.076l-6.965,1.562l0,24.368l-6.202,1.391Zm-288.343,-12.859l0,-10.274c0,-3.75 1.116,-5.566 2.276,-6.843c0.881,-0.97 2.25,-1.582 3.625,-1.785c1.065,-0.16 2.447,-0.099 4.146,0.183c2.373,0.393 4.204,1.033 5.441,1.995c1.023,0.795 1.874,1.51 2.691,2.905c0.935,1.596 1.894,3.653 1.895,6.876l0,10.274c-0.021,3.922 -1.197,5.526 -2.275,6.843c-0.823,1.023 -2.25,1.582 -3.626,1.785c-1.065,0.161 -2.44,0.101 -4.126,-0.179c-2.386,-0.396 -4.206,-1.062 -5.46,-1.998c-1.295,-0.957 -2.379,-1.906 -3.016,-3.167c-0.727,-1.437 -1.4,-2.706 -1.571,-6.615Zm255.699,6.849l-2.387,-10.611l-2.366,11.189l4.753,-0.578Zm-242.082,-12.758l-5.154,12.188c0.471,0.28 1.02,0.472 1.584,0.566c1.362,0.226 2.369,-0.273 2.938,-1.272c0.358,-0.628 0.699,-1.521 0.632,-3.819l0,-7.663Zm193.59,11.242l1.719,-0.173c1.4,-0.18 2.359,-0.508 2.797,-1.091c0.538,-0.718 0.788,-1.792 0.788,-3.194c0,-1.578 -0.225,-2.647 -0.677,-3.208c-0.452,-0.562 -1.285,-0.782 -2.766,-0.632l-1.861,0.187l0,8.111Zm-236.463,-16.668l0,11.892l-6.128,-2.26l0,-29.569l8.09,2.984c1.861,0.686 3.256,1.329 4.186,1.928c1.969,1.265 3.338,2.99 4.106,5.175c0.459,1.302 0.688,2.957 0.688,4.966c0,2.589 -0.273,4.383 -0.819,5.381c-0.546,0.999 -1.561,1.548 -3.044,1.648l5.612,14.428l-6.795,-2.506l-4.763,-13.649l-1.133,-0.418Zm361.254,4.16l5.602,-1.782c-0.067,2.799 -0.553,5.03 -1.456,6.692c-1.443,2.698 -3.843,4.58 -7.2,5.648c-3.358,1.069 -5.758,0.787 -7.2,-0.844c-1.025,-1.157 -1.537,-3.542 -1.537,-7.156l0,-8.878c0,-2.09 0.141,-3.78 0.424,-5.071c0.904,-4.157 3.621,-6.956 8.151,-8.397c3.573,-1.137 6.047,-0.65 7.423,1.46c0.647,0.981 1.004,2.613 1.072,4.898l-5.623,1.789c-0.121,-1.58 -0.367,-2.594 -0.738,-3.042c-0.371,-0.448 -1.015,-0.527 -1.932,-0.235c-1.051,0.335 -1.756,0.98 -2.113,1.937c-0.358,0.956 -0.536,2.681 -0.536,5.176l0,7.969c0,2.494 0.189,4.106 0.566,4.835c0.378,0.73 1.119,0.918 2.225,0.567c0.984,-0.314 1.699,-0.902 2.144,-1.765c0.445,-0.862 0.687,-2.13 0.728,-3.801Zm-320.017,-5.797c-0.537,-0.417 -1.223,-0.695 -1.934,-0.812c-1.375,-0.229 -2.371,0.282 -2.958,1.268c-0.348,0.585 -0.609,1.456 -0.632,3.819l0,8.787l5.524,-13.062Zm341.409,8.358l0,-29.569l6.128,-3.155l0,12.175l5.547,-3.448l0,-12.175l6.128,-3.887l0,29.57l-6.128,3.886l0,-12.378l-5.547,3.448l0,12.378l-6.128,3.155Zm-419.264,-11.275l0,-29.569l15.154,8.696l0,5.016l-9.026,-5.18l0,7.362l8.146,4.675l0,5.016l-8.146,-4.675l0,12.176l-6.128,-3.517Zm36.456,-0.178l1.719,0.634c1.649,0.615 2.379,0.608 2.797,0.222c0.525,-0.48 0.788,-1.421 0.788,-2.823c0,-1.578 -0.226,-2.753 -0.677,-3.527c-0.452,-0.773 -1.263,-1.38 -2.766,-1.93l-1.861,-0.686l0,8.11Zm181.552,-101.27c113.032,0 204.8,19.664 204.8,43.885c0,24.222 -91.768,43.886 -204.8,43.886c-113.033,0 -204.8,-19.664 -204.8,-43.886c0,-24.221 91.767,-43.885 204.8,-43.885Zm-114.656,24.3l86.234,37.944c-76.017,-1.839 -133.873,-11.029 -133.873,-22.074c0,-6.198 18.217,-11.811 47.639,-15.87Zm21.385,-2.483c26.299,-2.555 58.332,-4.056 92.877,-4.056c89.355,0 161.901,10.041 161.901,22.409c0,6.709 -21.343,12.732 -55.133,16.841l-199.645,-35.194Z" style="fill:#14b292;"/></svg>