<?xml version="1.0" encoding="UTF-8" standalone="no"?><!DOCTYPE svg PUBLIC "-//W3C//DTD SVG 1.1//EN" "http://www.w3.org/Graphics/SVG/1.1/DTD/svg11.dtd"><svg width="100%" height="100%" viewBox="0 0 801 801" version="1.1" xmlns="http://www.w3.org/2000/svg" xmlns:xlink="http://www.w3.org/1999/xlink" xml:space="preserve" xmlns:serif="http://www.serif.com/" style="fill-rule:evenodd;clip-rule:evenodd;stroke-linejoin:round;stroke-miterlimit:2;"><rect id="c" x="0.712" y="0.948" width="800" height="800" style="fill:none;"/><clipPath id="_clip1"><rect x="0.712" y="0.948" width="800" height="800"/></clipPath><g clip-path="url(#_clip1)"><path d="M126.426,221.396c-56.892,-16.118 -91.429,-37.283 -91.429,-60.448l0,-68.708c0,-50.46 163.871,-91.292 365.715,-91.292c201.843,0 365.714,40.832 365.714,91.292l0,68.708c0,23.165 -34.536,44.33 -91.429,60.449l0,40.694c0,27.874 -66.673,51.887 -162.292,62.604c18.801,-14.114 19.77,-38.381 19.325,-48.114c79.369,-10.851 134.982,-31.226 142.175,-54.96c-67.014,18.863 -164.742,30.755 -273.493,30.755c-90.251,0 -172.91,-8.19 -236.723,-21.758c0.797,7.2 1.647,14.352 2.565,21.459c4.282,1.751 8.87,3.45 13.745,5.093l9.764,48.82c-5.631,-1.686 -10.944,-3.441 -15.916,-5.259c2.726,14.584 5.878,29.001 9.573,43.282c4.699,1.518 9.646,2.985 14.827,4.397l9.643,48.218c-3.007,-0.742 -5.946,-1.5 -8.814,-2.275c5.371,14.603 11.486,29.099 18.478,43.525c26.049,53.744 64.573,99.492 111.748,136.712c4.949,-11.25 9.725,-22.546 14.214,-33.979c18.358,0.97 37.39,1.48 56.896,1.48c93.368,0 175.902,-11.689 225.449,-29.527c4.223,13.511 8.724,26.983 13.634,40.281c-47.06,20.861 -136.537,34.96 -239.083,34.96c-18.997,0 -37.545,-0.484 -55.458,-1.405c14.446,10.424 29.607,20.103 45.387,29.021c7.917,4.475 16.086,8.563 24.461,12.29c107.112,-1.386 198.054,-18.165 238.075,-41.65c4.944,11.211 10.278,22.203 16.088,32.888c-14.052,16.905 -53.03,31.537 -106.878,41.382c7.528,0.418 15.022,0.681 22.456,0.805c48.9,0.811 87.705,-12.632 134.651,-26.274c-4.329,-10.648 -20.035,-20.602 -44.497,-29.3l0,-25.139c56.892,16.087 91.429,37.223 91.429,60.389l0,68.707c0,50.461 -163.871,91.429 -365.714,91.429c-201.844,0 -365.715,-40.968 -365.715,-91.429l0,-68.707c0,-23.166 34.536,-44.302 91.429,-60.389l0,-21.189l0.09,1.768c2.411,23.445 51.926,43.972 125.726,55.884l9.434,47.171c-80.913,-11.929 -135.249,-33.945 -135.25,-59.109l0,0.614c-29.017,10.318 -45.714,22.403 -45.714,35.318c0,37.845 143.387,68.571 320,68.571c96.58,0 183.224,-9.188 241.918,-23.704c-63.035,8.004 -126.528,4.693 -187.365,-13.587c-17.633,0.892 -35.876,1.359 -54.553,1.359c-40.299,0 -78.58,-2.177 -113.061,-6.087c6.383,-14.838 12.998,-29.348 19.608,-43.717c14.798,1.343 30.187,2.376 46.043,3.067c-60.624,-35.603 -111.497,-83.132 -148.029,-145.17c-48.751,-12.38 -78.847,-29.365 -78.847,-48.093l0,-45.714l0.09,1.769c1.472,14.312 20.499,27.537 51.889,38.378c-6.655,-15.429 -12.639,-31.149 -17.996,-47.082c-21.656,-9.807 -33.983,-21.079 -33.983,-33.065l0,-45.714l0.09,1.768c0.827,8.048 7.205,15.751 18.209,22.88c-3.914,-15.904 -7.282,-31.928 -10.145,-48c-5.326,-5.331 -8.154,-10.908 -8.154,-16.648l0,-40.695Zm117.538,354.101c-71.033,-12.397 -117.538,-32.983 -117.538,-56.263l0,-45.715l0.09,1.769c2.212,21.509 44.072,40.563 107.959,52.76l9.489,47.449Zm359.674,-141.577c3.831,13.889 7.692,28.032 11.735,42.269c-50.27,15.78 -127.775,25.902 -214.661,25.902c-14.614,0 -28.963,-0.287 -42.961,-0.838c4.573,-14.681 8.507,-29.73 11.582,-45.321c10.298,0.293 20.768,0.444 31.379,0.444c80.384,0 152.739,-8.663 202.926,-22.456Zm-336.256,-71.903c39.48,5.507 84.95,8.645 133.33,8.645c151.382,0 274.285,-30.726 274.285,-68.571l0,45.714c0,37.846 -122.903,68.571 -274.285,68.571c-59.148,0 -113.948,-4.69 -158.768,-12.663c13.014,-11.84 21.276,-25.789 25.438,-41.696Zm-7.551,-86.807c41.187,6.183 89.386,9.738 140.881,9.738c5.193,0 10.352,-0.036 15.474,-0.108c0.544,9.025 4.281,33.753 28.52,44.943c-14.325,0.579 -29.02,0.879 -43.994,0.879c-47.294,0 -91.808,-2.999 -130.664,-8.277c-1.323,-14.632 -4.831,-30.381 -10.217,-47.175Zm172.751,-45.073l8.754,-0.197c-0.106,4.343 -0.864,7.604 -2.276,9.785c-2.254,3.548 -6.004,5.381 -11.25,5.499c-5.246,0.117 -8.996,-1.431 -11.25,-4.646c-1.601,-2.281 -2.402,-6.245 -2.402,-11.891l0,-13.874c0,-3.265 0.221,-5.84 0.664,-7.725c1.411,-6.079 5.656,-9.197 12.735,-9.356c5.583,-0.126 9.449,1.778 11.598,5.712c1.011,1.831 1.57,4.547 1.675,8.147l-8.785,0.197c-0.19,-2.523 -0.574,-4.221 -1.154,-5.093c-0.579,-0.872 -1.585,-1.292 -3.018,-1.26c-1.643,0.037 -2.744,0.72 -3.302,2.05c-0.559,1.329 -0.838,3.942 -0.838,7.84l0,12.451c0,3.898 0.295,6.503 0.885,7.817c0.59,1.314 1.749,1.952 3.476,1.913c1.538,-0.034 2.655,-0.623 3.35,-1.766c0.695,-1.142 1.075,-3.01 1.138,-5.603Zm-83.208,-1.135l8.753,0.453c0.064,2.637 0.438,4.526 1.122,5.668c0.685,1.141 1.817,1.753 3.397,1.835c1.665,0.086 2.855,-0.321 3.571,-1.221c0.717,-0.901 1.075,-2.436 1.075,-4.606c0,-1.854 -0.4,-3.202 -1.201,-4.044c-0.463,-0.488 -0.937,-0.854 -1.422,-1.101c-0.485,-0.246 -1.907,-0.81 -4.266,-1.69c-3.371,-1.249 -5.868,-2.832 -7.49,-4.749c-1.854,-2.182 -2.781,-5.232 -2.781,-9.151c0,-9.249 4.119,-13.66 12.356,-13.233c5.394,0.279 9.123,2.464 11.187,6.552c0.97,1.904 1.496,4.66 1.581,8.267l-8.754,-0.453c-0.19,-2.559 -0.532,-4.289 -1.027,-5.189c-0.495,-0.9 -1.385,-1.383 -2.671,-1.45c-2.359,-0.122 -3.539,1.734 -3.539,5.568c0,1.644 0.416,2.924 1.248,3.842c0.833,0.917 2.386,1.814 4.662,2.69c2.317,0.879 3.945,1.558 4.882,2.039c0.938,0.48 1.838,1.09 2.702,1.83c2.444,2.065 3.666,5.51 3.666,10.334c0,2.381 -0.248,4.38 -0.743,5.998c-0.495,1.617 -1.301,3.008 -2.417,4.172c-2.276,2.453 -5.773,3.557 -10.492,3.312c-5.773,-0.299 -9.712,-2.61 -11.819,-6.932c-0.948,-1.946 -1.475,-4.859 -1.58,-8.741Zm144.626,-34.482c-1.113,0.005 -2.419,0.084 -3.918,0.235l-12.64,1.273l0,46.201l9.575,-0.964l0,-18.582l1.77,-0.178l7.442,17.833l10.618,-1.07l-8.769,-18.425c2.317,-1.245 3.902,-2.848 4.756,-4.809c0.853,-1.961 1.28,-4.964 1.28,-9.009c0,-3.139 -0.359,-5.557 -1.075,-7.255c-1.201,-2.849 -3.339,-4.541 -6.415,-5.074c-0.681,-0.119 -1.523,-0.178 -2.523,-0.176l-0.101,0Zm-268.042,38.741l0,-45.652l8.744,0.93l8.694,24.25l8.726,-22.398l8.743,0.93l0,45.652l-9.537,-1.014l0,-24.981l-4.903,13.534l-6.026,-0.641l-4.903,-14.576l0,24.98l-9.538,-1.014Zm337.703,-8.036l-9.685,1.178l-1.928,9.051l-10.334,1.257l13.075,-47.792l8.027,-0.976l13.107,44.607l-10.334,1.257l-1.928,-8.582Zm49.878,1.944l0,-38.075l-10.882,2.442l0,-7.931l31.454,-7.056l0,7.93l-10.882,2.442l0,38.074l-9.69,2.174Zm-450.536,-20.092l0,-16.054c0,-5.859 1.743,-8.696 3.556,-10.692c1.376,-1.515 3.515,-2.471 5.664,-2.789c1.665,-0.25 3.824,-0.155 6.479,0.285c3.708,0.616 6.567,1.615 8.501,3.118c1.599,1.242 2.928,2.359 4.204,4.539c1.461,2.494 2.959,5.707 2.962,10.744l0,16.054c-0.033,6.127 -1.87,8.633 -3.556,10.692c-1.285,1.598 -3.516,2.471 -5.664,2.789c-1.665,0.25 -3.814,0.157 -6.447,-0.28c-3.729,-0.619 -6.573,-1.66 -8.533,-3.122c-2.022,-1.495 -3.716,-2.978 -4.712,-4.948c-1.135,-2.246 -2.187,-4.229 -2.454,-10.336Zm399.529,10.701l-3.729,-16.58l-3.698,17.483l7.427,-0.903Zm-378.252,-19.935l-8.054,19.044c0.737,0.438 1.593,0.739 2.476,0.885c2.128,0.353 3.701,-0.427 4.59,-1.988c0.56,-0.981 1.092,-2.377 0.988,-5.966l0,-11.975Zm302.484,17.566l2.686,-0.271c2.188,-0.281 3.686,-0.792 4.369,-1.704c0.842,-1.122 1.233,-2.799 1.233,-4.991c0,-2.464 -0.353,-4.135 -1.059,-5.012c-0.706,-0.877 -2.008,-1.222 -4.321,-0.987l-2.908,0.292l0,12.673Zm-369.474,-26.044l0,18.582l-9.575,-3.532l0,-46.202l12.641,4.663c2.907,1.072 5.087,2.076 6.541,3.013c3.076,1.977 5.214,4.672 6.415,8.086c0.717,2.034 1.075,4.62 1.075,7.76c0,4.045 -0.427,6.847 -1.28,8.408c-0.853,1.56 -2.439,2.418 -4.756,2.575l8.77,22.543l-10.619,-3.916l-7.442,-21.327l-1.77,-0.653Zm564.459,6.501l8.754,-2.786c-0.105,4.374 -0.864,7.86 -2.275,10.458c-2.255,4.214 -6.005,7.156 -11.251,8.825c-5.245,1.669 -8.996,1.23 -11.25,-1.319c-1.601,-1.808 -2.402,-5.535 -2.402,-11.181l0,-13.873c0,-3.266 0.222,-5.906 0.664,-7.922c1.412,-6.496 5.657,-10.87 12.736,-13.122c5.583,-1.776 9.449,-1.015 11.598,2.283c1.011,1.532 1.569,4.083 1.674,7.652l-8.785,2.795c-0.19,-2.468 -0.574,-4.052 -1.153,-4.753c-0.58,-0.7 -1.586,-0.822 -3.018,-0.367c-1.644,0.523 -2.744,1.532 -3.303,3.026c-0.558,1.495 -0.837,4.191 -0.837,8.088l0,12.451c0,3.898 0.295,6.416 0.885,7.556c0.59,1.14 1.748,1.434 3.476,0.885c1.538,-0.49 2.654,-1.408 3.35,-2.757c0.695,-1.348 1.074,-3.328 1.137,-5.939Zm-500.026,-9.059c-0.839,-0.651 -1.911,-1.084 -3.021,-1.269c-2.149,-0.356 -3.705,0.442 -4.622,1.983c-0.544,0.913 -0.953,2.274 -0.988,5.967l0,13.729l8.631,-20.41Zm533.452,13.06l0,-46.202l9.575,-4.929l0,19.024l8.667,-5.388l0,-19.024l9.575,-6.073l0,46.202l-9.575,6.073l0,-19.341l-8.667,5.388l0,19.341l-9.575,4.929Zm-655.1,-17.617l0,-46.202l23.678,13.588l0,7.838l-14.103,-8.094l0,11.503l12.728,7.305l0,7.837l-12.728,-7.304l0,19.024l-9.575,-5.495Zm56.962,-0.278l2.687,0.991c2.575,0.961 3.716,0.949 4.369,0.347c0.821,-0.75 1.232,-2.221 1.232,-4.412c0,-2.465 -0.353,-4.302 -1.059,-5.51c-0.705,-1.208 -1.973,-2.156 -4.321,-3.016l-2.908,-1.072l0,12.672Zm283.675,-158.235c176.612,0 320,30.726 320,68.571c0,37.846 -143.388,68.572 -320,68.572c-176.613,0 -320,-30.726 -320,-68.572c0,-37.845 143.387,-68.571 320,-68.571Zm-179.15,37.97l134.74,59.287c-118.776,-2.874 -209.176,-17.233 -209.176,-34.491c0,-9.684 28.465,-18.455 74.436,-24.796Zm33.414,-3.88c41.093,-3.993 91.144,-6.338 145.12,-6.338c139.618,0 252.97,15.689 252.97,35.014c0,10.482 -33.347,19.894 -86.145,26.314l-311.945,-54.99Z" style="fill:#14b292;"/></g></svg>