<?xml version="1.0" encoding="UTF-8" standalone="no"?><!DOCTYPE svg PUBLIC "-//W3C//DTD SVG 1.1//EN" "http://www.w3.org/Graphics/SVG/1.1/DTD/svg11.dtd"><svg width="100%" height="100%" viewBox="0 0 801 801" version="1.1" xmlns="http://www.w3.org/2000/svg" xmlns:xlink="http://www.w3.org/1999/xlink" xml:space="preserve" xmlns:serif="http://www.serif.com/" style="fill-rule:evenodd;clip-rule:evenodd;stroke-linejoin:round;stroke-miterlimit:2;"><rect id="g-bg-b" x="0.081" y="0.363" width="800" height="800"/><clipPath id="_clip1"><rect x="0.081" y="0.363" width="800" height="800"/></clipPath><g clip-path="url(#_clip1)"><path d="M125.795,220.811c-56.892,-16.118 -91.428,-37.282 -91.428,-60.448l0,-68.708c0,-50.46 163.87,-91.292 365.714,-91.292c201.844,0 365.714,40.832 365.714,91.292l0,68.708c0,23.165 -34.536,44.33 -91.428,60.449l0,40.694c0,27.875 -66.674,51.887 -162.292,62.604c18.8,-14.113 19.77,-38.381 19.325,-48.114c79.369,-10.851 134.981,-31.226 142.174,-54.96c-67.013,18.863 -164.741,30.756 -273.493,30.756c-90.251,0 -172.91,-8.191 -236.722,-21.759c0.796,7.201 1.647,14.352 2.564,21.459c4.283,1.751 8.871,3.45 13.745,5.093l9.764,48.82c-5.63,-1.686 -10.943,-3.441 -15.916,-5.259c2.726,14.584 5.878,29.001 9.574,43.282c4.699,1.518 9.646,2.985 14.826,4.397l9.644,48.218c-3.007,-0.741 -5.947,-1.5 -8.815,-2.275c5.372,14.603 11.487,29.099 18.479,43.525c26.048,53.744 64.572,99.492 111.748,136.712c4.948,-11.25 9.725,-22.546 14.214,-33.979c18.357,0.97 37.39,1.48 56.895,1.48c93.368,0 175.903,-11.688 225.45,-29.527c4.222,13.511 8.723,26.983 13.633,40.281c-47.059,20.861 -136.537,34.96 -239.083,34.96c-18.997,0 -37.545,-0.484 -55.458,-1.405c14.446,10.424 29.608,20.103 45.388,29.022c7.916,4.474 16.085,8.563 24.46,12.289c107.113,-1.386 198.055,-18.165 238.076,-41.65c4.944,11.211 10.278,22.204 16.087,32.888c-14.051,16.905 -53.03,31.537 -106.878,41.382c7.528,0.418 15.022,0.681 22.457,0.805c48.9,0.811 87.705,-12.632 134.65,-26.274c-4.329,-10.648 -20.035,-20.602 -44.496,-29.3l0,-25.139c56.892,16.087 91.428,37.223 91.428,60.389l0,68.707c0,50.461 -163.871,91.429 -365.714,91.429c-201.843,0 -365.714,-40.968 -365.714,-91.429l0,-68.707c0,-23.166 34.536,-44.302 91.428,-60.389l0,-21.189l0.09,1.768c2.412,23.445 51.927,43.972 125.727,55.884l9.434,47.171c-80.914,-11.929 -135.249,-33.945 -135.251,-59.109l0,0.614c-29.017,10.318 -45.714,22.403 -45.714,35.318c0,37.846 143.387,68.571 320,68.571c96.58,0 183.224,-9.188 241.918,-23.704c-63.034,8.004 -126.527,4.693 -187.365,-13.586c-17.632,0.891 -35.876,1.358 -54.553,1.358c-40.299,0 -78.579,-2.177 -113.061,-6.087c6.384,-14.838 12.999,-29.348 19.609,-43.717c14.797,1.343 30.187,2.376 46.043,3.067c-60.624,-35.603 -111.498,-83.131 -148.03,-145.17c-48.75,-12.38 -78.847,-29.365 -78.847,-48.093l0,-45.714l0.09,1.769c1.472,14.312 20.499,27.537 51.889,38.378c-6.655,-15.429 -12.638,-31.149 -17.996,-47.082c-21.655,-9.807 -33.983,-21.079 -33.983,-33.065l0,-45.714l0.09,1.769c0.828,8.047 7.205,15.75 18.209,22.879c-3.914,-15.904 -7.281,-31.928 -10.144,-48c-5.327,-5.331 -8.155,-10.907 -8.155,-16.648l0,-40.695Zm117.539,354.101c-71.033,-12.397 -117.539,-32.983 -117.539,-56.263l0,-45.715l0.09,1.769c2.213,21.509 44.073,40.563 107.959,52.76l9.49,47.449Zm359.673,-141.577c3.831,13.889 7.692,28.032 11.735,42.269c-50.269,15.78 -127.774,25.902 -214.661,25.902c-14.614,0 -28.963,-0.286 -42.961,-0.838c4.574,-14.681 8.508,-29.73 11.583,-45.321c10.297,0.294 20.768,0.445 31.378,0.445c80.385,0 152.739,-8.664 202.926,-22.457Zm-336.256,-71.903c39.48,5.507 84.951,8.645 133.33,8.645c151.383,0 274.286,-30.726 274.286,-68.571l0,45.714c0,37.846 -122.903,68.572 -274.286,68.572c-59.147,0 -113.947,-4.691 -158.768,-12.664c13.014,-11.84 21.277,-25.789 25.438,-41.696Zm-7.551,-86.807c41.188,6.183 89.387,9.738 140.881,9.738c5.193,0 10.353,-0.036 15.475,-0.108c0.543,9.025 4.28,33.753 28.52,44.943c-14.326,0.579 -29.021,0.879 -43.995,0.879c-47.294,0 -91.808,-2.999 -130.663,-8.277c-1.323,-14.632 -4.832,-30.381 -10.218,-47.175Zm172.751,-45.073l8.754,-0.197c-0.105,4.343 -0.864,7.604 -2.275,9.785c-2.255,3.548 -6.005,5.381 -11.251,5.499c-5.245,0.118 -8.995,-1.431 -11.25,-4.646c-1.601,-2.281 -2.401,-6.245 -2.401,-11.891l0,-13.874c0,-3.265 0.221,-5.84 0.663,-7.725c1.412,-6.079 5.657,-9.197 12.736,-9.356c5.583,-0.126 9.449,1.778 11.598,5.712c1.011,1.831 1.569,4.547 1.674,8.147l-8.785,0.198c-0.189,-2.524 -0.574,-4.222 -1.153,-5.094c-0.58,-0.872 -1.586,-1.292 -3.018,-1.259c-1.644,0.036 -2.744,0.72 -3.303,2.049c-0.558,1.329 -0.837,3.943 -0.837,7.84l0,12.451c0,3.898 0.295,6.504 0.885,7.818c0.59,1.314 1.748,1.951 3.476,1.912c1.538,-0.034 2.654,-0.623 3.35,-1.766c0.695,-1.142 1.074,-3.01 1.137,-5.603Zm-83.208,-1.135l8.754,0.454c0.063,2.636 0.437,4.525 1.122,5.667c0.684,1.142 1.817,1.753 3.397,1.835c1.664,0.086 2.855,-0.321 3.571,-1.221c0.716,-0.901 1.074,-2.436 1.074,-4.606c0,-1.854 -0.4,-3.202 -1.2,-4.044c-0.464,-0.487 -0.938,-0.854 -1.423,-1.101c-0.484,-0.246 -1.906,-0.809 -4.266,-1.69c-3.371,-1.249 -5.867,-2.832 -7.489,-4.749c-1.854,-2.182 -2.781,-5.232 -2.781,-9.151c0,-9.249 4.118,-13.66 12.356,-13.233c5.393,0.28 9.122,2.464 11.187,6.552c0.969,1.905 1.496,4.66 1.58,8.267l-8.754,-0.453c-0.189,-2.559 -0.532,-4.289 -1.027,-5.189c-0.495,-0.9 -1.385,-1.383 -2.67,-1.45c-2.36,-0.122 -3.539,1.734 -3.539,5.569c0,1.643 0.416,2.923 1.248,3.841c0.832,0.917 2.386,1.814 4.661,2.69c2.318,0.879 3.945,1.558 4.883,2.039c0.937,0.48 1.838,1.09 2.702,1.83c2.443,2.065 3.665,5.51 3.665,10.334c0,2.381 -0.247,4.38 -0.742,5.998c-0.495,1.618 -1.301,3.008 -2.418,4.173c-2.275,2.452 -5.772,3.556 -10.492,3.311c-5.772,-0.299 -9.712,-2.609 -11.819,-6.932c-0.948,-1.945 -1.474,-4.859 -1.58,-8.741Zm144.626,-34.482c-1.112,0.006 -2.418,0.084 -3.917,0.235l-12.641,1.273l0,46.202l9.575,-0.965l0,-18.582l1.77,-0.178l7.443,17.833l10.618,-1.07l-8.77,-18.425c2.318,-1.245 3.903,-2.848 4.756,-4.809c0.853,-1.96 1.28,-4.963 1.28,-9.009c0,-3.139 -0.358,-5.557 -1.074,-7.255c-1.201,-2.849 -3.34,-4.541 -6.416,-5.073c-0.681,-0.12 -1.522,-0.178 -2.523,-0.177l-0.101,0Zm-268.041,38.741l0,-45.651l8.743,0.929l8.695,24.25l8.726,-22.398l8.743,0.93l0,45.652l-9.538,-1.014l0,-24.981l-4.902,13.534l-6.027,-0.641l-4.902,-14.576l0,24.981l-9.538,-1.015Zm337.703,-8.036l-9.686,1.178l-1.928,9.051l-10.333,1.257l13.075,-47.792l8.027,-0.976l13.106,44.608l-10.333,1.257l-1.928,-8.583Zm49.878,1.944l0,-38.074l-10.883,2.441l0,-7.931l31.455,-7.056l0,7.93l-10.883,2.442l0,38.074l-9.689,2.174Zm-450.536,-20.092l0,-16.054c0,-5.859 1.743,-8.696 3.555,-10.691c1.376,-1.516 3.516,-2.472 5.665,-2.789c1.664,-0.251 3.824,-0.156 6.478,0.285c3.708,0.615 6.568,1.615 8.501,3.117c1.599,1.242 2.929,2.359 4.205,4.539c1.46,2.495 2.959,5.708 2.961,10.744l0,16.054c-0.032,6.127 -1.87,8.633 -3.555,10.692c-1.285,1.598 -3.516,2.471 -5.665,2.789c-1.664,0.25 -3.813,0.157 -6.447,-0.28c-3.729,-0.619 -6.573,-1.659 -8.532,-3.122c-2.023,-1.495 -3.717,-2.978 -4.712,-4.948c-1.135,-2.246 -2.188,-4.229 -2.454,-10.336Zm399.528,10.701l-3.729,-16.58l-3.697,17.483l7.426,-0.903Zm-378.252,-19.935l-8.053,19.044c0.736,0.439 1.593,0.739 2.475,0.885c2.128,0.353 3.701,-0.427 4.591,-1.987c0.559,-0.982 1.092,-2.378 0.987,-5.967l0,-11.975Zm302.485,17.566l2.686,-0.271c2.187,-0.28 3.686,-0.792 4.369,-1.704c0.841,-1.122 1.232,-2.799 1.232,-4.99c0,-2.465 -0.352,-4.136 -1.058,-5.013c-0.706,-0.877 -2.009,-1.222 -4.322,-0.987l-2.907,0.293l0,12.672Zm-369.474,-26.044l0,18.582l-9.576,-3.532l0,-46.201l12.641,4.662c2.907,1.072 5.088,2.077 6.542,3.013c3.076,1.977 5.214,4.673 6.415,8.086c0.716,2.034 1.074,4.621 1.074,7.76c0,4.045 -0.426,6.847 -1.28,8.408c-0.853,1.56 -2.438,2.418 -4.756,2.575l8.77,22.543l-10.618,-3.916l-7.443,-21.327l-1.769,-0.653Zm564.459,6.501l8.754,-2.785c-0.106,4.373 -0.864,7.859 -2.276,10.457c-2.254,4.214 -6.004,7.156 -11.25,8.825c-5.246,1.669 -8.996,1.23 -11.25,-1.319c-1.601,-1.808 -2.402,-5.535 -2.402,-11.181l0,-13.873c0,-3.266 0.221,-5.906 0.664,-7.922c1.411,-6.496 5.656,-10.87 12.735,-13.122c5.583,-1.776 9.449,-1.015 11.598,2.283c1.011,1.532 1.57,4.083 1.675,7.652l-8.785,2.795c-0.19,-2.468 -0.574,-4.052 -1.154,-4.752c-0.579,-0.701 -1.585,-0.823 -3.018,-0.368c-1.643,0.523 -2.744,1.532 -3.302,3.026c-0.559,1.495 -0.838,4.191 -0.838,8.088l0,12.451c0,3.898 0.295,6.416 0.885,7.556c0.59,1.14 1.749,1.435 3.476,0.885c1.538,-0.489 2.655,-1.408 3.35,-2.757c0.695,-1.348 1.075,-3.328 1.138,-5.939Zm-500.026,-9.059c-0.84,-0.651 -1.911,-1.084 -3.022,-1.269c-2.149,-0.356 -3.705,0.442 -4.622,1.983c-0.543,0.914 -0.952,2.274 -0.987,5.967l0,13.729l8.631,-20.41Zm533.451,13.06l0,-46.202l9.576,-4.929l0,19.024l8.667,-5.388l0,-19.024l9.575,-6.072l0,46.201l-9.575,6.073l0,-19.341l-8.667,5.388l0,19.341l-9.576,4.929Zm-655.1,-17.617l0,-46.202l23.678,13.588l0,7.838l-14.102,-8.094l0,11.503l12.728,7.305l0,7.837l-12.728,-7.304l0,19.024l-9.576,-5.495Zm56.963,-0.278l2.686,0.991c2.575,0.961 3.716,0.949 4.369,0.347c0.822,-0.75 1.233,-2.221 1.233,-4.412c0,-2.465 -0.353,-4.302 -1.059,-5.51c-0.706,-1.208 -1.974,-2.156 -4.322,-3.016l-2.907,-1.072l0,12.672Zm283.674,-158.235c176.613,0 320,30.726 320,68.571c0,37.846 -143.387,68.572 -320,68.572c-176.613,0 -320,-30.726 -320,-68.572c0,-37.845 143.387,-68.571 320,-68.571Zm-179.15,37.97l134.741,59.287c-118.776,-2.874 -209.176,-17.232 -209.176,-34.491c0,-9.684 28.464,-18.455 74.435,-24.796Zm33.415,-3.88c41.093,-3.993 91.143,-6.338 145.12,-6.338c139.618,0 252.97,15.689 252.97,35.014c0,10.482 -33.348,19.895 -86.146,26.314l-311.944,-54.99Z" style="fill:url(#_Linear2);"/></g><defs><linearGradient id="_Linear2" x1="0" y1="0" x2="1" y2="0" gradientUnits="userSpaceOnUse" gradientTransform="matrix(800,0,0,800,0.0811195,400.363)"><stop offset="0" style="stop-color:#42d49a;stop-opacity:1"/><stop offset="1" style="stop-color:#14b292;stop-opacity:1"/></linearGradient></defs></svg>