<?xml version="1.0" encoding="UTF-8" standalone="no"?><!DOCTYPE svg PUBLIC "-//W3C//DTD SVG 1.1//EN" "http://www.w3.org/Graphics/SVG/1.1/DTD/svg11.dtd"><svg width="100%" height="100%" viewBox="0 0 801 801" version="1.1" xmlns="http://www.w3.org/2000/svg" xmlns:xlink="http://www.w3.org/1999/xlink" xml:space="preserve" xmlns:serif="http://www.serif.com/" style="fill-rule:evenodd;clip-rule:evenodd;stroke-linejoin:round;stroke-miterlimit:2;"><rect id="g-padding-bg-w" x="0.944" y="0.08" width="800" height="800" style="fill:#fff;"/><path d="M225.401,294.167c-36.411,-10.316 -58.514,-23.862 -58.514,-38.687l0,-43.973c0,-32.295 104.877,-58.427 234.057,-58.427c129.18,0 234.057,26.132 234.057,58.427l0,43.973c0,14.825 -22.103,28.371 -58.514,38.687l0,26.044c0,17.84 -42.671,33.208 -103.867,40.067c12.032,-9.033 12.653,-24.564 12.368,-30.793c50.796,-6.945 86.388,-19.985 90.992,-35.175c-42.889,12.072 -105.435,19.684 -175.036,19.684c-57.76,0 -110.662,-5.242 -151.502,-13.926c0.51,4.609 1.054,9.186 1.641,13.734c2.741,1.121 5.677,2.208 8.797,3.26l6.249,31.245c-3.604,-1.08 -7.004,-2.203 -10.187,-3.366c1.745,9.334 3.762,18.56 6.128,27.7c3.007,0.972 6.173,1.91 9.489,2.814l6.171,30.86c-1.924,-0.475 -3.805,-0.96 -5.641,-1.456c3.438,9.346 7.352,18.623 11.826,27.856c16.671,34.396 41.327,63.674 71.519,87.495c3.167,-7.2 6.224,-14.429 9.097,-21.746c11.749,0.621 23.93,0.947 36.413,0.947c59.756,0 112.578,-7.481 144.288,-18.897c2.702,8.647 5.583,17.269 8.725,25.78c-30.118,13.351 -87.384,22.374 -153.013,22.374c-12.158,0 -24.029,-0.31 -35.493,-0.899c9.245,6.671 18.949,12.866 29.048,18.574c5.066,2.863 10.295,5.48 15.655,7.865c68.552,-0.887 126.755,-11.626 152.368,-26.656c3.164,7.175 6.578,14.21 10.296,21.048c-8.993,10.819 -33.939,20.184 -68.402,26.485c4.818,0.267 9.614,0.436 14.372,0.515c31.296,0.519 56.132,-8.085 86.176,-16.816c-2.77,-6.814 -12.822,-13.185 -28.477,-18.752l0,-16.089c36.411,10.296 58.514,23.823 58.514,38.649l0,43.973c0,32.295 -104.877,58.515 -234.057,58.515c-129.18,0 -234.057,-26.22 -234.057,-58.515l0,-43.973c0,-14.825 22.103,-28.353 58.514,-38.649l0,-13.561l0.058,1.132c1.543,15.005 33.233,28.142 80.465,35.766l6.037,30.189c-51.784,-7.634 -86.559,-21.724 -86.56,-37.829l0,0.392c-18.571,6.604 -29.257,14.339 -29.257,22.604c0,24.221 91.768,43.886 204.8,43.886c61.811,0 117.264,-5.881 154.828,-15.171c-40.342,5.122 -80.978,3.004 -119.914,-8.695c-11.285,0.57 -22.961,0.869 -34.914,0.869c-25.791,0 -50.291,-1.393 -72.359,-3.895c4.086,-9.497 8.319,-18.783 12.549,-27.979c9.471,0.859 19.32,1.52 29.468,1.963c-38.799,-22.786 -71.358,-53.205 -94.739,-92.91c-31.2,-7.923 -50.462,-18.793 -50.462,-30.779l0,-29.257l0.058,1.132c0.942,9.16 13.119,17.624 33.209,24.562c-4.26,-9.874 -8.089,-19.935 -11.518,-30.132c-13.859,-6.277 -21.749,-13.491 -21.749,-21.162l0,-29.257l0.058,1.132c0.529,5.15 4.611,10.08 11.654,14.643c-2.506,-10.179 -4.661,-20.434 -6.493,-30.72c-3.409,-3.412 -5.219,-6.981 -5.219,-10.655l0,-26.044Zm75.225,226.624c-45.461,-7.934 -75.225,-21.109 -75.225,-36.009l0,-29.257l0.058,1.132c1.416,13.766 28.206,25.96 69.093,33.767l6.074,30.367Zm230.191,-90.609c2.452,8.889 4.923,17.94 7.51,27.052c-32.172,10.099 -81.776,16.577 -137.383,16.577c-9.353,0 -18.536,-0.183 -27.495,-0.536c2.927,-9.396 5.445,-19.028 7.413,-29.006c6.59,0.188 13.291,0.285 20.082,0.285c51.446,0 97.753,-5.545 129.873,-14.372Zm-215.204,-46.018c25.267,3.524 54.368,5.533 85.331,5.533c96.885,0 175.543,-19.665 175.543,-43.886l0,29.257c0,24.221 -78.658,43.886 -175.543,43.886c-37.854,0 -72.926,-3.002 -101.611,-8.105c8.328,-7.577 13.616,-16.505 16.28,-26.685Zm-4.833,-55.557c26.36,3.957 57.208,6.233 90.164,6.233c3.324,0 6.626,-0.024 9.904,-0.069c0.348,5.776 2.739,21.601 18.253,28.763c-9.169,0.37 -18.574,0.563 -28.157,0.563c-30.268,0 -58.757,-1.92 -83.625,-5.298c-0.846,-9.364 -3.092,-19.444 -6.539,-30.192Zm110.561,-28.846l5.602,-0.126c-0.067,2.779 -0.552,4.866 -1.456,6.262c-1.443,2.27 -3.843,3.444 -7.2,3.519c-3.357,0.075 -5.757,-0.916 -7.2,-2.973c-1.025,-1.46 -1.537,-3.997 -1.537,-7.611l0,-8.879c0,-2.09 0.141,-3.738 0.424,-4.944c0.904,-3.89 3.621,-5.886 8.151,-5.988c3.573,-0.08 6.048,1.138 7.423,3.656c0.647,1.172 1.004,2.91 1.072,5.214l-5.623,0.126c-0.121,-1.615 -0.367,-2.701 -0.738,-3.259c-0.371,-0.558 -1.015,-0.827 -1.932,-0.806c-1.051,0.023 -1.756,0.46 -2.113,1.311c-0.357,0.851 -0.536,2.523 -0.536,5.018l0,7.969c0,2.494 0.189,4.162 0.566,5.003c0.378,0.841 1.119,1.249 2.225,1.224c0.984,-0.022 1.699,-0.399 2.144,-1.13c0.445,-0.732 0.688,-1.927 0.728,-3.586Zm-53.253,-0.727l5.602,0.29c0.041,1.688 0.28,2.897 0.718,3.628c0.438,0.73 1.163,1.122 2.174,1.174c1.066,0.055 1.827,-0.205 2.286,-0.782c0.458,-0.576 0.687,-1.558 0.687,-2.947c0,-1.187 -0.256,-2.05 -0.768,-2.588c-0.297,-0.312 -0.6,-0.547 -0.91,-0.705c-0.31,-0.158 -1.221,-0.518 -2.731,-1.082c-2.157,-0.799 -3.755,-1.812 -4.793,-3.039c-1.187,-1.397 -1.78,-3.349 -1.78,-5.857c0,-5.919 2.636,-8.742 7.908,-8.469c3.452,0.179 5.839,1.577 7.16,4.194c0.62,1.218 0.957,2.982 1.011,5.29l-5.602,-0.29c-0.122,-1.638 -0.341,-2.744 -0.658,-3.32c-0.316,-0.576 -0.886,-0.886 -1.709,-0.928c-1.51,-0.079 -2.265,1.109 -2.265,3.563c0,1.052 0.267,1.871 0.799,2.459c0.533,0.587 1.527,1.161 2.983,1.722c1.484,0.562 2.525,0.997 3.125,1.304c0.6,0.308 1.177,0.698 1.729,1.172c1.564,1.321 2.347,3.526 2.347,6.614c0,1.523 -0.159,2.803 -0.476,3.838c-0.317,1.035 -0.832,1.925 -1.547,2.67c-1.456,1.57 -3.694,2.277 -6.715,2.12c-3.694,-0.191 -6.216,-1.67 -7.564,-4.437c-0.607,-1.245 -0.944,-3.109 -1.011,-5.594Zm92.561,-22.068c-0.713,0.003 -1.548,0.053 -2.508,0.15l-8.09,0.815l0,29.569l6.128,-0.617l0,-11.893l1.133,-0.114l4.763,11.413l6.796,-0.684l-5.613,-11.793c1.483,-0.796 2.498,-1.822 3.044,-3.077c0.546,-1.255 0.819,-3.177 0.819,-5.766c0,-2.009 -0.229,-3.557 -0.687,-4.643c-0.769,-1.824 -2.137,-2.906 -4.106,-3.247c-0.436,-0.077 -0.974,-0.114 -1.615,-0.114l-0.064,0.001Zm-171.547,24.794l0,-29.217l5.596,0.595l5.564,15.52l5.585,-14.335l5.596,0.595l0,29.217l-6.105,-0.649l0,-15.987l-3.137,8.661l-3.857,-0.41l-3.138,-9.328l0,15.987l-6.104,-0.649Zm216.13,-5.143l-6.199,0.754l-1.234,5.793l-6.613,0.804l8.368,-30.587l5.137,-0.625l8.388,28.549l-6.613,0.805l-1.234,-5.493Zm31.922,1.244l0,-24.368l-6.965,1.563l0,-5.076l20.131,-4.516l0,5.075l-6.965,1.563l0,24.368l-6.201,1.391Zm-288.343,-12.859l0,-10.274c0,-3.75 1.115,-5.566 2.275,-6.843c0.881,-0.97 2.25,-1.582 3.626,-1.785c1.065,-0.16 2.447,-0.099 4.146,0.182c2.373,0.394 4.203,1.034 5.44,1.995c1.024,0.795 1.875,1.51 2.691,2.905c0.935,1.597 1.894,3.653 1.896,6.877l0,10.274c-0.021,3.922 -1.197,5.525 -2.276,6.843c-0.822,1.023 -2.25,1.582 -3.625,1.785c-1.066,0.16 -2.441,0.101 -4.126,-0.179c-2.387,-0.396 -4.207,-1.062 -5.461,-1.998c-1.294,-0.957 -2.379,-1.906 -3.016,-3.167c-0.726,-1.437 -1.4,-2.706 -1.57,-6.615Zm255.698,6.849l-2.387,-10.611l-2.366,11.189l4.753,-0.578Zm-242.081,-12.759l-5.155,12.188c0.472,0.281 1.02,0.473 1.585,0.567c1.362,0.226 2.368,-0.274 2.937,-1.272c0.359,-0.628 0.7,-1.521 0.633,-3.819l0,-7.664Zm193.59,11.243l1.719,-0.174c1.4,-0.179 2.359,-0.507 2.796,-1.09c0.539,-0.718 0.789,-1.792 0.789,-3.194c0,-1.578 -0.226,-2.647 -0.678,-3.209c-0.451,-0.561 -1.285,-0.781 -2.766,-0.631l-1.86,0.187l0,8.111Zm-236.464,-16.668l0,11.892l-6.128,-2.26l0,-29.569l8.09,2.983c1.861,0.687 3.256,1.329 4.187,1.929c1.968,1.265 3.337,2.99 4.106,5.175c0.458,1.302 0.687,2.957 0.687,4.966c0,2.589 -0.273,4.383 -0.819,5.381c-0.546,0.999 -1.561,1.548 -3.044,1.648l5.613,14.428l-6.796,-2.506l-4.763,-13.65l-1.133,-0.417Zm361.254,4.16l5.603,-1.783c-0.068,2.799 -0.553,5.03 -1.457,6.693c-1.442,2.697 -3.842,4.58 -7.2,5.648c-3.357,1.069 -5.757,0.787 -7.2,-0.844c-1.025,-1.157 -1.537,-3.542 -1.537,-7.156l0,-8.879c0,-2.09 0.141,-3.78 0.425,-5.07c0.903,-4.157 3.62,-6.956 8.15,-8.398c3.573,-1.136 6.048,-0.65 7.423,1.461c0.647,0.981 1.005,2.613 1.072,4.898l-5.623,1.788c-0.121,-1.579 -0.367,-2.593 -0.738,-3.041c-0.371,-0.448 -1.015,-0.527 -1.931,-0.235c-1.052,0.335 -1.757,0.98 -2.114,1.936c-0.357,0.957 -0.536,2.682 -0.536,5.177l0,7.968c0,2.495 0.189,4.107 0.566,4.836c0.378,0.729 1.12,0.918 2.225,0.566c0.984,-0.313 1.699,-0.901 2.144,-1.764c0.445,-0.863 0.688,-2.13 0.728,-3.801Zm-320.017,-5.797c-0.537,-0.417 -1.223,-0.695 -1.933,-0.813c-1.376,-0.228 -2.372,0.283 -2.958,1.269c-0.348,0.585 -0.61,1.456 -0.632,3.819l0,8.787l5.523,-13.062Zm341.409,8.358l0,-29.569l6.129,-3.155l0,12.175l5.546,-3.448l0,-12.176l6.129,-3.886l0,29.569l-6.129,3.887l0,-12.378l-5.546,3.448l0,12.378l-6.129,3.155Zm-419.263,-11.275l0,-29.57l15.153,8.697l0,5.016l-9.025,-5.18l0,7.362l8.146,4.675l0,5.016l-8.146,-4.675l0,12.176l-6.128,-3.517Zm36.456,-0.178l1.719,0.634c1.648,0.615 2.378,0.607 2.796,0.222c0.526,-0.48 0.789,-1.421 0.789,-2.823c0,-1.578 -0.226,-2.753 -0.678,-3.527c-0.452,-0.773 -1.263,-1.38 -2.766,-1.93l-1.86,-0.686l0,8.11Zm181.551,-101.27c113.032,0 204.8,19.664 204.8,43.885c0,24.221 -91.768,43.886 -204.8,43.886c-113.032,0 -204.8,-19.665 -204.8,-43.886c0,-24.221 91.768,-43.885 204.8,-43.885Zm-114.656,24.3l86.234,37.944c-76.017,-1.839 -133.873,-11.029 -133.873,-22.074c0,-6.198 18.218,-11.811 47.639,-15.87Zm21.385,-2.483c26.3,-2.556 58.332,-4.056 92.877,-4.056c89.356,0 161.901,10.041 161.901,22.409c0,6.708 -21.342,12.732 -55.133,16.841l-199.645,-35.194Z" style="fill:url(#_Linear1);"/><defs><linearGradient id="_Linear1" x1="0" y1="0" x2="1" y2="0" gradientUnits="userSpaceOnUse" gradientTransform="matrix(468.114,0,0,512,166.887,409.08)"><stop offset="0" style="stop-color:#42d49a;stop-opacity:1"/><stop offset="1" style="stop-color:#14b292;stop-opacity:1"/></linearGradient></defs></svg>