<?xml version="1.0" encoding="UTF-8" standalone="no"?><!DOCTYPE svg PUBLIC "-//W3C//DTD SVG 1.1//EN" "http://www.w3.org/Graphics/SVG/1.1/DTD/svg11.dtd"><svg width="100%" height="100%" viewBox="0 0 801 801" version="1.1" xmlns="http://www.w3.org/2000/svg" xmlns:xlink="http://www.w3.org/1999/xlink" xml:space="preserve" xmlns:serif="http://www.serif.com/" style="fill-rule:evenodd;clip-rule:evenodd;stroke-linejoin:round;stroke-miterlimit:2;"><rect id="g-padding" x="0.656" y="0.889" width="800" height="800" style="fill:none;"/><path d="M225.113,294.976c-36.411,-10.315 -58.515,-23.861 -58.515,-38.687l0,-43.973c0,-32.295 104.878,-58.427 234.058,-58.427c129.18,0 234.057,26.132 234.057,58.427l0,43.973c0,14.826 -22.103,28.371 -58.515,38.687l0,26.044c0,17.84 -42.671,33.208 -103.867,40.067c12.033,-9.032 12.653,-24.564 12.369,-30.793c50.796,-6.944 86.388,-19.984 90.991,-35.174c-42.888,12.072 -105.434,19.683 -175.035,19.683c-57.761,0 -110.663,-5.242 -151.503,-13.925c0.51,4.608 1.054,9.185 1.642,13.734c2.74,1.12 5.677,2.208 8.797,3.259l6.248,31.245c-3.603,-1.079 -7.004,-2.202 -10.186,-3.366c1.745,9.334 3.762,18.561 6.127,27.701c3.007,0.971 6.174,1.91 9.489,2.814l6.172,30.859c-1.925,-0.474 -3.806,-0.96 -5.641,-1.456c3.437,9.346 7.351,18.624 11.826,27.856c16.671,34.396 41.326,63.675 71.519,87.496c3.167,-7.2 6.224,-14.429 9.097,-21.747c11.749,0.621 23.929,0.947 36.413,0.947c59.755,0 112.577,-7.48 144.287,-18.897c2.703,8.647 5.584,17.27 8.726,25.78c-30.118,13.351 -87.384,22.375 -153.013,22.375c-12.158,0 -24.029,-0.31 -35.493,-0.9c9.245,6.672 18.949,12.866 29.048,18.574c5.066,2.864 10.294,5.48 15.654,7.866c68.552,-0.887 126.755,-11.626 152.369,-26.657c3.164,7.175 6.577,14.211 10.296,21.049c-8.993,10.819 -33.94,20.183 -68.402,26.484c4.818,0.268 9.614,0.436 14.372,0.515c31.296,0.52 56.131,-8.084 86.176,-16.815c-2.77,-6.815 -12.822,-13.185 -28.478,-18.752l0,-16.089c36.411,10.296 58.515,23.823 58.515,38.649l0,43.973c0,32.295 -104.878,58.514 -234.057,58.514c-129.18,0 -234.058,-26.219 -234.058,-58.514l0,-43.973c0,-14.826 22.104,-28.353 58.515,-38.649l0,-13.561l0.057,1.132c1.544,15.004 33.233,28.142 80.465,35.765l6.038,30.19c-51.785,-7.635 -86.559,-21.725 -86.56,-37.83l0,0.393c-18.571,6.603 -29.257,14.338 -29.257,22.603c0,24.222 91.767,43.886 204.8,43.886c61.811,0 117.263,-5.88 154.827,-15.171c-40.342,5.123 -80.977,3.004 -119.913,-8.695c-11.285,0.57 -22.961,0.87 -34.914,0.87c-25.792,0 -50.291,-1.394 -72.359,-3.896c4.085,-9.497 8.319,-18.783 12.549,-27.979c9.471,0.859 19.32,1.52 29.468,1.963c-38.8,-22.786 -71.359,-53.204 -94.739,-92.909c-31.201,-7.923 -50.462,-18.793 -50.462,-30.779l0,-29.257l0.057,1.132c0.942,9.159 13.12,17.624 33.209,24.562c-4.259,-9.875 -8.088,-19.936 -11.517,-30.133c-13.86,-6.277 -21.749,-13.49 -21.749,-21.161l0,-29.258l0.057,1.132c0.53,5.151 4.611,10.081 11.654,14.644c-2.505,-10.179 -4.66,-20.435 -6.493,-30.721c-3.408,-3.411 -5.218,-6.98 -5.218,-10.655l0,-26.044Zm75.224,226.624c-45.461,-7.934 -75.224,-21.109 -75.224,-36.008l0,-29.257l0.057,1.132c1.416,13.766 28.207,25.96 69.094,33.766l6.073,30.367Zm230.191,-90.609c2.452,8.889 4.923,17.941 7.511,27.052c-32.173,10.1 -81.776,16.577 -137.383,16.577c-9.353,0 -18.536,-0.183 -27.495,-0.536c2.927,-9.396 5.444,-19.027 7.412,-29.005c6.591,0.188 13.292,0.284 20.083,0.284c51.446,0 97.753,-5.544 129.872,-14.372Zm-215.203,-46.017c25.267,3.524 54.368,5.532 85.331,5.532c96.884,0 175.542,-19.664 175.542,-43.886l0,29.258c0,24.221 -78.658,43.885 -175.542,43.885c-37.855,0 -72.927,-3.002 -101.612,-8.104c8.329,-7.578 13.617,-16.505 16.281,-26.685Zm-4.833,-55.557c26.36,3.957 57.207,6.232 90.164,6.232c3.323,0 6.625,-0.023 9.903,-0.069c0.348,5.776 2.74,21.602 18.253,28.763c-9.168,0.371 -18.573,0.563 -28.156,0.563c-30.268,0 -58.758,-1.919 -83.625,-5.297c-0.847,-9.365 -3.092,-19.444 -6.539,-30.192Zm110.561,-28.847l5.602,-0.126c-0.067,2.779 -0.553,4.867 -1.456,6.262c-1.443,2.271 -3.843,3.444 -7.2,3.519c-3.358,0.076 -5.758,-0.915 -7.201,-2.973c-1.024,-1.46 -1.537,-3.997 -1.537,-7.61l0,-8.879c0,-2.09 0.142,-3.738 0.425,-4.945c0.903,-3.89 3.62,-5.886 8.151,-5.987c3.573,-0.081 6.047,1.138 7.422,3.655c0.648,1.172 1.005,2.911 1.072,5.215l-5.622,0.126c-0.122,-1.615 -0.368,-2.702 -0.738,-3.26c-0.371,-0.558 -1.015,-0.827 -1.932,-0.806c-1.052,0.024 -1.756,0.461 -2.113,1.312c-0.358,0.85 -0.536,2.523 -0.536,5.017l0,7.969c0,2.495 0.188,4.162 0.566,5.003c0.377,0.841 1.119,1.249 2.225,1.224c0.984,-0.022 1.699,-0.398 2.143,-1.13c0.445,-0.731 0.688,-1.927 0.729,-3.586Zm-53.254,-0.726l5.603,0.29c0.04,1.687 0.28,2.896 0.718,3.627c0.438,0.731 1.163,1.122 2.174,1.174c1.065,0.056 1.827,-0.205 2.285,-0.781c0.459,-0.576 0.688,-1.559 0.688,-2.948c0,-1.186 -0.256,-2.049 -0.769,-2.588c-0.296,-0.312 -0.6,-0.547 -0.91,-0.704c-0.31,-0.158 -1.22,-0.519 -2.73,-1.082c-2.157,-0.8 -3.755,-1.813 -4.793,-3.04c-1.187,-1.396 -1.78,-3.348 -1.78,-5.856c0,-5.919 2.636,-8.742 7.908,-8.469c3.452,0.179 5.838,1.576 7.16,4.193c0.62,1.219 0.957,2.982 1.011,5.291l-5.603,-0.29c-0.121,-1.638 -0.34,-2.745 -0.657,-3.321c-0.317,-0.576 -0.886,-0.885 -1.709,-0.928c-1.51,-0.078 -2.265,1.11 -2.265,3.564c0,1.052 0.266,1.871 0.799,2.458c0.532,0.587 1.527,1.161 2.983,1.722c1.483,0.562 2.525,0.997 3.125,1.305c0.6,0.307 1.176,0.698 1.729,1.171c1.564,1.322 2.346,3.526 2.346,6.614c0,1.524 -0.158,2.803 -0.475,3.839c-0.317,1.035 -0.833,1.925 -1.547,2.67c-1.457,1.57 -3.695,2.276 -6.715,2.12c-3.695,-0.192 -6.216,-1.671 -7.564,-4.437c-0.607,-1.245 -0.944,-3.11 -1.012,-5.594Zm92.561,-22.069c-0.712,0.004 -1.548,0.054 -2.507,0.15l-8.09,0.815l0,29.569l6.128,-0.617l0,-11.892l1.133,-0.114l4.763,11.412l6.796,-0.684l-5.613,-11.792c1.483,-0.797 2.498,-1.823 3.044,-3.078c0.546,-1.255 0.819,-3.177 0.819,-5.765c0,-2.009 -0.229,-3.557 -0.688,-4.644c-0.768,-1.823 -2.137,-2.906 -4.105,-3.247c-0.437,-0.076 -0.975,-0.114 -1.615,-0.113l-0.065,0Zm-171.546,24.795l0,-29.218l5.595,0.595l5.565,15.52l5.584,-14.334l5.596,0.595l0,29.217l-6.104,-0.649l0,-15.988l-3.138,8.662l-3.857,-0.41l-3.137,-9.329l0,15.988l-6.104,-0.649Zm216.129,-5.144l-6.198,0.754l-1.234,5.793l-6.614,0.805l8.368,-30.587l5.138,-0.625l8.388,28.549l-6.614,0.804l-1.234,-5.493Zm31.922,1.244l0,-24.367l-6.964,1.562l0,-5.075l20.13,-4.517l0,5.076l-6.964,1.563l0,24.367l-6.202,1.391Zm-288.343,-12.858l0,-10.275c0,-3.75 1.116,-5.565 2.276,-6.842c0.88,-0.97 2.25,-1.582 3.625,-1.785c1.065,-0.161 2.447,-0.1 4.146,0.182c2.373,0.394 4.204,1.034 5.441,1.995c1.023,0.795 1.874,1.51 2.691,2.905c0.935,1.597 1.894,3.653 1.895,6.876l0,10.275c-0.021,3.921 -1.197,5.525 -2.275,6.843c-0.823,1.023 -2.25,1.581 -3.626,1.785c-1.065,0.16 -2.44,0.1 -4.126,-0.179c-2.386,-0.397 -4.207,-1.063 -5.46,-1.999c-1.295,-0.956 -2.379,-1.906 -3.016,-3.166c-0.727,-1.438 -1.4,-2.707 -1.571,-6.615Zm255.699,6.848l-2.387,-10.611l-2.366,11.189l4.753,-0.578Zm-242.082,-12.758l-5.154,12.188c0.471,0.281 1.019,0.473 1.584,0.567c1.362,0.226 2.369,-0.274 2.938,-1.273c0.358,-0.628 0.699,-1.521 0.632,-3.818l0,-7.664Zm193.59,11.242l1.719,-0.173c1.4,-0.18 2.359,-0.507 2.797,-1.091c0.538,-0.718 0.788,-1.791 0.788,-3.194c0,-1.577 -0.225,-2.647 -0.677,-3.208c-0.452,-0.561 -1.285,-0.782 -2.766,-0.632l-1.861,0.188l0,8.11Zm-236.463,-16.668l0,11.893l-6.128,-2.261l0,-29.569l8.09,2.984c1.861,0.686 3.256,1.329 4.186,1.928c1.969,1.266 3.338,2.991 4.106,5.175c0.459,1.302 0.688,2.957 0.688,4.967c0,2.588 -0.273,4.382 -0.819,5.381c-0.546,0.998 -1.561,1.548 -3.044,1.648l5.612,14.428l-6.795,-2.507l-4.763,-13.649l-1.133,-0.418Zm361.254,4.16l5.602,-1.782c-0.067,2.799 -0.553,5.03 -1.456,6.693c-1.443,2.697 -3.843,4.58 -7.2,5.648c-3.358,1.068 -5.758,0.787 -7.2,-0.844c-1.025,-1.157 -1.537,-3.543 -1.537,-7.156l0,-8.879c0,-2.09 0.141,-3.78 0.424,-5.07c0.904,-4.157 3.621,-6.957 8.151,-8.398c3.573,-1.137 6.047,-0.65 7.423,1.461c0.647,0.98 1.004,2.613 1.072,4.897l-5.623,1.789c-0.121,-1.579 -0.367,-2.593 -0.738,-3.042c-0.371,-0.448 -1.015,-0.526 -1.932,-0.235c-1.051,0.335 -1.756,0.981 -2.113,1.937c-0.358,0.956 -0.536,2.682 -0.536,5.176l0,7.969c0,2.494 0.188,4.106 0.566,4.836c0.378,0.729 1.119,0.918 2.225,0.566c0.984,-0.313 1.699,-0.901 2.144,-1.764c0.445,-0.863 0.687,-2.13 0.728,-3.802Zm-320.017,-5.797c-0.537,-0.417 -1.223,-0.694 -1.934,-0.812c-1.375,-0.228 -2.371,0.282 -2.958,1.269c-0.348,0.584 -0.609,1.455 -0.632,3.818l0,8.787l5.524,-13.062Zm341.409,8.358l0,-29.569l6.128,-3.155l0,12.176l5.547,-3.448l0,-12.176l6.128,-3.886l0,29.569l-6.128,3.886l0,-12.378l-5.547,3.449l0,12.377l-6.128,3.155Zm-419.264,-11.275l0,-29.569l15.154,8.697l0,5.015l-9.026,-5.179l0,7.362l8.146,4.675l0,5.015l-8.146,-4.674l0,12.175l-6.128,-3.517Zm36.456,-0.178l1.719,0.634c1.648,0.616 2.379,0.608 2.796,0.223c0.526,-0.48 0.789,-1.422 0.789,-2.824c0,-1.577 -0.226,-2.753 -0.677,-3.526c-0.452,-0.774 -1.263,-1.38 -2.766,-1.931l-1.861,-0.686l0,8.11Zm181.552,-101.27c113.032,0 204.8,19.665 204.8,43.886c0,24.221 -91.768,43.885 -204.8,43.885c-113.033,0 -204.8,-19.664 -204.8,-43.885c0,-24.221 91.767,-43.886 204.8,-43.886Zm-114.656,24.301l86.234,37.944c-76.017,-1.84 -133.873,-11.029 -133.873,-22.074c0,-6.198 18.217,-11.812 47.639,-15.87Zm21.385,-2.483c26.299,-2.556 58.332,-4.057 92.877,-4.057c89.355,0 161.901,10.041 161.901,22.41c0,6.708 -21.343,12.732 -55.134,16.84l-199.644,-35.193Z" style="fill:url(#_Linear1);"/><defs><linearGradient id="_Linear1" x1="0" y1="0" x2="1" y2="0" gradientUnits="userSpaceOnUse" gradientTransform="matrix(468.114,0,0,512,166.598,409.889)"><stop offset="0" style="stop-color:#42d49a;stop-opacity:1"/><stop offset="1" style="stop-color:#14b292;stop-opacity:1"/></linearGradient></defs></svg>