<?xml version="1.0" encoding="UTF-8" standalone="no"?><!DOCTYPE svg PUBLIC "-//W3C//DTD SVG 1.1//EN" "http://www.w3.org/Graphics/SVG/1.1/DTD/svg11.dtd"><svg width="100%" height="100%" viewBox="0 0 2564 401" version="1.1" xmlns="http://www.w3.org/2000/svg" xmlns:xlink="http://www.w3.org/1999/xlink" xml:space="preserve" xmlns:serif="http://www.serif.com/" style="fill-rule:evenodd;clip-rule:evenodd;stroke-linejoin:round;stroke-miterlimit:2;"><rect id="t-w" x="0.632" y="0.77" width="2562.5" height="400" style="fill:none;"/><clipPath id="_clip1"><rect x="0.632" y="0.77" width="2562.5" height="400"/></clipPath><g clip-path="url(#_clip1)"><path d="M0.638,268.144l0,-134.748c0,-49.181 14.631,-75.421 29.843,-94.695c11.551,-14.635 29.51,-25.641 47.547,-31.299c13.97,-4.421 32.096,-6.632 54.377,-6.632c31.123,0 55.125,4.409 71.353,14.324c13.421,8.2 24.582,15.724 35.292,32.242c12.258,18.906 24.836,43.788 24.857,86.06l0,134.748c-0.274,51.475 -15.696,75.067 -29.843,94.695c-10.787,15.208 -29.51,25.641 -47.547,31.3c-13.97,4.421 -32.008,6.631 -54.112,6.631c-31.3,0 -55.172,-4.774 -71.618,-14.323c-16.976,-9.726 -31.196,-19.817 -39.551,-34.964c-9.527,-17.27 -18.362,-32.451 -20.598,-83.339Zm2099.6,33.062c26.27,-29.23 64.38,-87.69 80.29,-120.62l-38.85,-27.38c-5.55,2.59 -13.69,5.18 -21.09,6.66c-15.54,3.33 -62.53,12.58 -106.93,21.09l-7.77,-27.75c-2.22,-9.62 -4.81,-20.35 -6.29,-30.34l-58.83,14.06c4.44,8.88 8.88,18.87 11.47,28.49c2.22,7.03 4.81,15.91 7.4,25.9c-15.54,2.59 -27.38,4.81 -32.56,5.55c-12.95,2.22 -23.68,3.33 -35.89,4.44l14.06,54.76c11.84,-2.59 38.48,-8.51 68.08,-14.8c12.58,46.62 25.9,97.31 31.82,118.77c3.33,11.1 5.92,24.79 7.4,35.52l59.94,-14.43c-2.96,-7.77 -8.51,-27.01 -10.36,-33.3c-6.29,-20.72 -20.72,-70.67 -34.41,-118.03c33.67,-7.03 63.27,-12.95 71.78,-14.43c-8.51,15.91 -30.71,41.07 -47.36,56.61l48.1,29.23Zm-651.285,-185.842l-98.154,0l0,266.162l-78.838,0l0,-266.162l-96.358,0l0,-60.869l273.35,0l0,60.869Zm71.495,199.902l33.67,59.2c31.82,-5.18 86.21,-24.42 123.95,-45.51c61.42,-35.15 114.33,-81.4 149.85,-133.57l-34.41,-61.42c-29.23,53.28 -82.51,105.45 -146.15,140.6c-41.81,22.57 -85.1,33.67 -126.91,40.7Zm-646.34,-187.59l-59.57,-8.14c-2.59,49.58 -11.1,118.4 -18.13,155.77l50.69,12.58c3.7,-8.14 7.77,-14.06 15.17,-22.94c21.46,-25.9 57.35,-39.96 94.72,-39.96c29.23,0 49.21,15.54 49.21,36.26c0,44.77 -59.2,68.08 -166.13,52.17l17.39,58.09c161.32,14.06 211.27,-41.07 211.27,-109.15c0,-44.77 -37.37,-87.69 -106.19,-87.69c-35.15,0 -69.56,9.25 -101.38,29.6c1.85,-19.61 8.14,-58.46 12.95,-76.59Zm1622.03,-56.24c-5.18,49.21 -25.53,118.77 -55.87,156.88c-38.11,47.73 -97.31,79.92 -146.52,93.61l50.32,50.69c52.91,-20.72 106.56,-57.72 145.78,-109.52c30.34,-40.33 52.17,-102.49 62.16,-139.49c2.59,-9.62 6.29,-22.2 11.1,-33.3l-66.97,-18.87Zm-2010.53,-19.98c0.74,22.57 -1.85,48.1 -7.03,76.59c-16.28,1.11 -31.45,2.22 -42.18,2.59c-14.43,0.37 -28.49,1.11 -42.55,0l4.81,59.57c12.21,-2.22 33.3,-5.18 45.14,-6.66c5.18,-0.74 13.32,-1.85 22.94,-3.33c-13.69,49.95 -37.37,118.4 -72.15,165.39l58.09,23.31c31.08,-50.32 58.46,-138.38 73.26,-195.36c6.66,-0.37 12.95,-0.74 17.02,-0.74c22.94,0 34.04,3.33 34.04,29.97c0,34.04 -4.44,75.85 -13.69,93.98c-4.81,9.99 -13.32,14.06 -24.79,14.06c-9.25,0 -31.45,-4.07 -44.77,-7.77l9.62,58.46c12.95,2.96 30.34,5.18 44.4,5.18c29.97,0 51.43,-9.25 64.01,-35.52c15.54,-32.56 20.35,-91.39 20.35,-134.31c0,-54.76 -27.75,-74.74 -69.93,-74.74c-6.66,0 -15.17,0.37 -24.79,1.11c2.22,-9.62 4.44,-19.61 6.29,-29.6c2.22,-10.36 5.18,-24.05 7.77,-35.15l-65.86,-7.03Zm-306.379,109.548l-67.596,171.062c6.181,2.655 13.369,3.983 20.777,3.983c17.86,0 31.063,-8.743 38.529,-23.077c4.699,-9.021 9.168,-21.475 8.29,-51.459l0,-100.509Zm445.129,-48.868c26.64,34.04 51.06,101.01 59.94,143.56l56.61,-26.27c-10.73,-35.52 -40.7,-106.56 -62.9,-139.49l-53.65,22.2Zm-466.587,-40.201c-7.046,-4.296 -16.041,-6.443 -25.361,-6.443c-18.037,0 -31.098,8.865 -38.794,23.077c-4.564,8.427 -7.997,20.416 -8.29,51.459l0,115.24l72.445,-183.333Zm1380.81,66.841l-32.56,49.58c26.27,14.06 63.64,38.48 86.21,54.02l32.93,-50.32c-20.72,-14.43 -59.94,-39.22 -86.58,-53.28Zm750.36,-58.09l-57.35,19.98c11.47,21.83 35.15,81.77 43.29,106.19l57.72,-21.09c-8.51,-25.53 -31.45,-79.92 -43.66,-105.08Zm102.86,-23.31l-56.24,18.5c11.84,24.79 32.19,76.96 39.59,101.75l56.61,-19.98c-7.77,-25.53 -30.34,-81.4 -39.96,-100.27Zm-795.5,-3.7l-32.56,49.58c25.9,14.43 63.64,38.48 85.84,53.28l33.3,-49.58c-21.09,-14.43 -60.68,-39.22 -86.58,-53.28Zm-744.39,49.95c28.86,7.4 111.74,24.79 150.22,29.97l13.32,-54.76c-32.19,-3.7 -112.85,-17.02 -149.48,-28.49l-14.06,53.28Z" style="fill:#fff;fill-rule:nonzero;"/></g></svg>