<?xml version="1.0" encoding="UTF-8" standalone="no"?><!DOCTYPE svg PUBLIC "-//W3C//DTD SVG 1.1//EN" "http://www.w3.org/Graphics/SVG/1.1/DTD/svg11.dtd"><svg width="100%" height="100%" viewBox="0 0 801 801" version="1.1" xmlns="http://www.w3.org/2000/svg" xmlns:xlink="http://www.w3.org/1999/xlink" xml:space="preserve" xmlns:serif="http://www.serif.com/" style="fill-rule:evenodd;clip-rule:evenodd;stroke-linejoin:round;stroke-miterlimit:2;"><rect id="w-bg-b" x="0.94" y="0.064" width="800" height="800"/><clipPath id="_clip1"><rect x="0.94" y="0.064" width="800" height="800"/></clipPath><g clip-path="url(#_clip1)"><path d="M126.654,220.512c-56.892,-16.118 -91.428,-37.283 -91.428,-60.448l0,-68.708c0,-50.461 163.87,-91.292 365.714,-91.292c201.844,0 365.714,40.831 365.714,91.292l0,68.708c0,23.165 -34.536,44.33 -91.428,60.448l0,40.694c0,27.875 -66.674,51.888 -162.292,62.605c18.8,-14.114 19.77,-38.381 19.325,-48.114c79.369,-10.851 134.981,-31.226 142.174,-54.96c-67.013,18.862 -164.741,30.755 -273.493,30.755c-90.251,0 -172.91,-8.19 -236.722,-21.758c0.796,7.2 1.647,14.352 2.564,21.459c4.283,1.751 8.871,3.45 13.745,5.093l9.764,48.82c-5.63,-1.686 -10.943,-3.441 -15.916,-5.259c2.726,14.584 5.878,29.001 9.574,43.282c4.699,1.517 9.646,2.984 14.826,4.397l9.644,48.217c-3.007,-0.741 -5.947,-1.499 -8.815,-2.275c5.372,14.603 11.487,29.1 18.479,43.526c26.048,53.743 64.572,99.491 111.748,136.712c4.948,-11.25 9.725,-22.546 14.214,-33.98c18.357,0.97 37.39,1.48 56.895,1.48c93.368,0 175.903,-11.688 225.45,-29.526c4.222,13.511 8.723,26.983 13.633,40.281c-47.059,20.861 -136.537,34.96 -239.083,34.96c-18.997,0 -37.545,-0.484 -55.458,-1.406c14.446,10.425 29.608,20.103 45.388,29.022c7.916,4.475 16.085,8.563 24.46,12.29c107.113,-1.386 198.055,-18.165 238.076,-41.65c4.944,11.211 10.278,22.203 16.087,32.888c-14.051,16.904 -53.03,31.536 -106.878,41.382c7.528,0.417 15.022,0.681 22.457,0.804c48.9,0.812 87.705,-12.631 134.65,-26.273c-4.329,-10.648 -20.035,-20.603 -44.496,-29.301l0,-25.138c56.892,16.087 91.428,37.223 91.428,60.388l0,68.708c0,50.461 -163.871,91.429 -365.714,91.429c-201.843,0 -365.714,-40.968 -365.714,-91.429l0,-68.708c0,-23.165 34.536,-44.301 91.428,-60.388l0,-21.19l0.09,1.769c2.412,23.445 51.927,43.972 125.727,55.884l9.434,47.171c-80.914,-11.929 -135.249,-33.945 -135.251,-59.109l0,0.613c-29.017,10.318 -45.714,22.404 -45.714,35.319c0,37.845 143.387,68.571 320,68.571c96.58,0 183.224,-9.188 241.918,-23.705c-63.034,8.005 -126.527,4.694 -187.365,-13.586c-17.632,0.891 -35.876,1.359 -54.553,1.359c-40.299,0 -78.579,-2.177 -113.061,-6.087c6.384,-14.839 12.999,-29.348 19.609,-43.717c14.797,1.342 30.187,2.375 46.043,3.067c-60.624,-35.603 -111.498,-83.132 -148.03,-145.171c-48.75,-12.38 -78.847,-29.364 -78.847,-48.092l0,-45.714l0.09,1.768c1.472,14.313 20.499,27.538 51.889,38.379c-6.655,-15.429 -12.638,-31.149 -17.996,-47.082c-21.655,-9.808 -33.983,-21.079 -33.983,-33.065l0,-45.715l0.09,1.769c0.828,8.047 7.205,15.751 18.209,22.88c-3.914,-15.904 -7.281,-31.928 -10.144,-48c-5.327,-5.331 -8.155,-10.908 -8.155,-16.649l0,-40.694Zm117.539,354.101c-71.033,-12.397 -117.539,-32.984 -117.539,-56.264l0,-45.714l0.09,1.769c2.213,21.509 44.073,40.563 107.959,52.76l9.49,47.449Zm359.673,-141.577c3.831,13.889 7.692,28.032 11.735,42.268c-50.269,15.781 -127.774,25.902 -214.661,25.902c-14.614,0 -28.963,-0.286 -42.961,-0.838c4.574,-14.68 8.508,-29.73 11.583,-45.321c10.297,0.294 20.768,0.445 31.378,0.445c80.385,0 152.739,-8.663 202.926,-22.456Zm-336.256,-71.903c39.48,5.507 84.951,8.645 133.33,8.645c151.383,0 274.286,-30.726 274.286,-68.572l0,45.715c0,37.845 -122.903,68.571 -274.286,68.571c-59.147,0 -113.947,-4.69 -158.768,-12.664c13.014,-11.839 21.277,-25.788 25.438,-41.695Zm-7.551,-86.807c41.188,6.182 89.387,9.738 140.881,9.738c5.193,0 10.353,-0.037 15.475,-0.108c0.543,9.025 4.28,33.753 28.52,44.943c-14.326,0.578 -29.021,0.879 -43.995,0.879c-47.294,0 -91.808,-2.999 -130.663,-8.277c-1.323,-14.633 -4.832,-30.382 -10.218,-47.175Zm172.751,-45.073l8.754,-0.197c-0.105,4.342 -0.864,7.604 -2.275,9.785c-2.255,3.547 -6.005,5.38 -11.251,5.498c-5.245,0.118 -8.995,-1.43 -11.25,-4.645c-1.601,-2.282 -2.401,-6.246 -2.401,-11.892l0,-13.873c0,-3.265 0.221,-5.841 0.663,-7.726c1.412,-6.078 5.657,-9.197 12.736,-9.356c5.583,-0.125 9.449,1.779 11.598,5.713c1.011,1.831 1.569,4.547 1.674,8.147l-8.785,0.197c-0.189,-2.524 -0.574,-4.222 -1.153,-5.093c-0.58,-0.872 -1.586,-1.292 -3.018,-1.26c-1.644,0.037 -2.744,0.72 -3.303,2.049c-0.558,1.33 -0.837,3.943 -0.837,7.841l0,12.451c0,3.897 0.295,6.503 0.885,7.817c0.59,1.314 1.748,1.952 3.476,1.913c1.538,-0.035 2.654,-0.623 3.35,-1.766c0.695,-1.143 1.074,-3.01 1.137,-5.603Zm-83.208,-1.135l8.754,0.453c0.063,2.637 0.437,4.526 1.122,5.668c0.684,1.141 1.817,1.753 3.397,1.835c1.664,0.086 2.855,-0.321 3.571,-1.222c0.716,-0.9 1.074,-2.435 1.074,-4.605c0,-1.854 -0.4,-3.202 -1.2,-4.044c-0.464,-0.488 -0.938,-0.855 -1.423,-1.101c-0.484,-0.246 -1.906,-0.81 -4.266,-1.69c-3.371,-1.25 -5.867,-2.833 -7.489,-4.75c-1.854,-2.181 -2.781,-5.231 -2.781,-9.15c0,-9.249 4.118,-13.66 12.356,-13.233c5.393,0.279 9.122,2.463 11.187,6.552c0.969,1.904 1.496,4.66 1.58,8.267l-8.754,-0.454c-0.189,-2.559 -0.532,-4.288 -1.027,-5.188c-0.495,-0.9 -1.385,-1.383 -2.67,-1.45c-2.36,-0.122 -3.539,1.734 -3.539,5.568c0,1.643 0.416,2.924 1.248,3.841c0.832,0.918 2.386,1.815 4.661,2.691c2.318,0.878 3.945,1.558 4.883,2.038c0.937,0.481 1.838,1.091 2.702,1.831c2.443,2.065 3.665,5.51 3.665,10.334c0,2.381 -0.247,4.38 -0.742,5.998c-0.495,1.617 -1.301,3.008 -2.418,4.172c-2.275,2.453 -5.772,3.557 -10.492,3.312c-5.772,-0.299 -9.712,-2.61 -11.819,-6.933c-0.948,-1.945 -1.474,-4.858 -1.58,-8.74Zm144.626,-34.482c-1.112,0.005 -2.418,0.083 -3.917,0.234l-12.641,1.273l0,46.202l9.576,-0.964l0,-18.582l1.769,-0.178l7.443,17.832l10.618,-1.069l-8.77,-18.426c2.318,-1.244 3.903,-2.847 4.756,-4.808c0.853,-1.961 1.28,-4.964 1.28,-9.009c0,-3.139 -0.358,-5.557 -1.074,-7.255c-1.201,-2.85 -3.34,-4.541 -6.416,-5.074c-0.681,-0.119 -1.522,-0.178 -2.523,-0.177l-0.101,0.001Zm-268.041,38.741l0,-45.652l8.743,0.93l8.695,24.25l8.726,-22.398l8.743,0.93l0,45.652l-9.538,-1.015l0,-24.98l-4.902,13.533l-6.027,-0.64l-4.902,-14.576l0,24.98l-9.538,-1.014Zm337.703,-8.036l-9.686,1.178l-1.928,9.051l-10.333,1.257l13.075,-47.792l8.027,-0.976l13.106,44.607l-10.333,1.257l-1.928,-8.582Zm49.878,1.943l0,-38.074l-10.883,2.442l0,-7.931l31.455,-7.057l0,7.931l-10.883,2.441l0,38.075l-9.689,2.173Zm-450.536,-20.091l0,-16.054c0,-5.859 1.743,-8.696 3.555,-10.692c1.376,-1.515 3.516,-2.471 5.665,-2.789c1.664,-0.25 3.824,-0.155 6.478,0.285c3.708,0.615 6.568,1.615 8.501,3.117c1.599,1.243 2.929,2.36 4.205,4.539c1.46,2.495 2.959,5.708 2.961,10.745l0,16.054c-0.032,6.127 -1.87,8.633 -3.555,10.691c-1.285,1.599 -3.516,2.472 -5.665,2.789c-1.664,0.251 -3.813,0.158 -6.447,-0.279c-3.729,-0.619 -6.573,-1.66 -8.532,-3.123c-2.023,-1.494 -3.717,-2.977 -4.712,-4.947c-1.135,-2.246 -2.188,-4.229 -2.454,-10.336Zm399.528,10.701l-3.729,-16.58l-3.697,17.483l7.426,-0.903Zm-378.252,-19.935l-8.053,19.044c0.736,0.438 1.593,0.738 2.475,0.885c2.128,0.353 3.701,-0.428 4.591,-1.988c0.559,-0.982 1.092,-2.377 0.987,-5.967l0,-11.974Zm302.485,17.566l2.686,-0.271c2.187,-0.281 3.686,-0.792 4.369,-1.704c0.841,-1.122 1.232,-2.8 1.232,-4.991c0,-2.465 -0.352,-4.136 -1.058,-5.013c-0.706,-0.877 -2.009,-1.221 -4.322,-0.987l-2.907,0.293l0,12.673Zm-369.474,-26.044l0,18.582l-9.576,-3.532l0,-46.202l12.641,4.663c2.907,1.072 5.088,2.076 6.542,3.013c3.076,1.977 5.214,4.672 6.415,8.086c0.716,2.034 1.074,4.62 1.074,7.759c0,4.045 -0.426,6.848 -1.28,8.408c-0.853,1.561 -2.438,2.419 -4.756,2.576l8.77,22.543l-10.618,-3.916l-7.443,-21.327l-1.769,-0.653Zm564.459,6.5l8.754,-2.785c-0.106,4.374 -0.864,7.86 -2.276,10.458c-2.254,4.214 -6.004,7.156 -11.25,8.825c-5.246,1.669 -8.996,1.229 -11.25,-1.319c-1.601,-1.808 -2.402,-5.535 -2.402,-11.181l0,-13.873c0,-3.266 0.221,-5.907 0.664,-7.922c1.411,-6.496 5.656,-10.87 12.735,-13.122c5.583,-1.777 9.449,-1.016 11.598,2.282c1.011,1.533 1.57,4.083 1.675,7.652l-8.785,2.796c-0.19,-2.468 -0.574,-4.052 -1.154,-4.753c-0.579,-0.7 -1.585,-0.823 -3.018,-0.367c-1.643,0.523 -2.744,1.532 -3.302,3.026c-0.559,1.494 -0.838,4.19 -0.838,8.088l0,12.451c0,3.898 0.295,6.416 0.885,7.556c0.59,1.139 1.749,1.434 3.476,0.885c1.538,-0.49 2.655,-1.409 3.35,-2.757c0.695,-1.348 1.075,-3.328 1.138,-5.94Zm-500.026,-9.058c-0.84,-0.651 -1.911,-1.085 -3.022,-1.269c-2.149,-0.357 -3.705,0.441 -4.622,1.982c-0.543,0.914 -0.952,2.275 -0.987,5.967l0,13.73l8.631,-20.41Zm533.451,13.06l0,-46.202l9.576,-4.93l0,19.025l8.667,-5.388l0,-19.024l9.575,-6.073l0,46.202l-9.575,6.072l0,-19.34l-8.667,5.388l0,19.34l-9.576,4.93Zm-655.1,-17.618l0,-46.202l23.678,13.589l0,7.837l-14.102,-8.093l0,11.503l12.728,7.305l0,7.837l-12.728,-7.305l0,19.025l-9.576,-5.496Zm56.963,-0.277l2.686,0.99c2.575,0.962 3.716,0.95 4.369,0.348c0.822,-0.751 1.233,-2.221 1.233,-4.412c0,-2.465 -0.353,-4.302 -1.059,-5.51c-0.706,-1.209 -1.974,-2.156 -4.322,-3.016l-2.907,-1.073l0,12.673Zm283.674,-158.235c176.613,0 320,30.725 320,68.571c0,37.846 -143.387,68.572 -320,68.572c-176.613,0 -320,-30.726 -320,-68.572c0,-37.846 143.387,-68.571 320,-68.571Zm-179.15,37.97l134.741,59.287c-118.776,-2.874 -209.176,-17.233 -209.176,-34.491c0,-9.684 28.464,-18.455 74.435,-24.796Zm33.415,-3.88c41.093,-3.994 91.143,-6.339 145.12,-6.339c139.618,0 252.97,15.69 252.97,35.015c0,10.482 -33.348,19.894 -86.146,26.313l-311.944,-54.989Z" style="fill:#fff;"/></g></svg>