<?xml version="1.0" encoding="UTF-8" standalone="no"?><!DOCTYPE svg PUBLIC "-//W3C//DTD SVG 1.1//EN" "http://www.w3.org/Graphics/SVG/1.1/DTD/svg11.dtd"><svg width="100%" height="100%" viewBox="0 0 801 801" version="1.1" xmlns="http://www.w3.org/2000/svg" xmlns:xlink="http://www.w3.org/1999/xlink" xml:space="preserve" xmlns:serif="http://www.serif.com/" style="fill-rule:evenodd;clip-rule:evenodd;stroke-linejoin:round;stroke-miterlimit:2;"><rect id="w-padding" x="0.897" y="0.164" width="800" height="800" style="fill:none;"/><path d="M225.354,294.251c-36.411,-10.315 -58.514,-23.861 -58.514,-38.687l0,-43.973c0,-32.295 104.877,-58.427 234.057,-58.427c129.18,0 234.057,26.132 234.057,58.427l0,43.973c0,14.826 -22.103,28.372 -58.514,38.687l0,26.045c0,17.839 -42.671,33.207 -103.867,40.067c12.032,-9.033 12.653,-24.565 12.368,-30.793c50.796,-6.945 86.388,-19.985 90.992,-35.175c-42.889,12.072 -105.435,19.684 -175.036,19.684c-57.761,0 -110.662,-5.242 -151.502,-13.926c0.509,4.608 1.054,9.186 1.641,13.734c2.741,1.12 5.677,2.208 8.797,3.26l6.249,31.244c-3.604,-1.079 -7.004,-2.202 -10.187,-3.366c1.745,9.334 3.762,18.561 6.128,27.701c3.007,0.971 6.173,1.91 9.489,2.814l6.171,30.859c-1.924,-0.474 -3.805,-0.96 -5.641,-1.456c3.438,9.346 7.351,18.624 11.826,27.857c16.671,34.395 41.326,63.674 71.519,87.495c3.167,-7.2 6.224,-14.429 9.097,-21.747c11.749,0.621 23.93,0.948 36.413,0.948c59.756,0 112.578,-7.481 144.288,-18.897c2.702,8.646 5.583,17.269 8.725,25.779c-30.118,13.351 -87.384,22.375 -153.013,22.375c-12.158,0 -24.029,-0.31 -35.493,-0.9c9.245,6.672 18.949,12.866 29.048,18.574c5.066,2.864 10.295,5.481 15.654,7.866c68.553,-0.887 126.756,-11.626 152.369,-26.656c3.164,7.175 6.578,14.21 10.296,21.048c-8.993,10.819 -33.939,20.183 -68.402,26.485c4.818,0.267 9.614,0.435 14.372,0.514c31.296,0.52 56.131,-8.084 86.176,-16.815c-2.77,-6.815 -12.822,-13.185 -28.477,-18.752l0,-16.089c36.411,10.296 58.514,23.823 58.514,38.649l0,43.973c0,32.295 -104.877,58.514 -234.057,58.514c-129.18,0 -234.057,-26.219 -234.057,-58.514l0,-43.973c0,-14.826 22.103,-28.353 58.514,-38.649l0,-13.561l0.057,1.132c1.544,15.004 33.234,28.142 80.465,35.765l6.038,30.19c-51.784,-7.634 -86.559,-21.725 -86.56,-37.83l0,0.393c-18.571,6.604 -29.257,14.338 -29.257,22.604c0,24.221 91.768,43.885 204.8,43.885c61.811,0 117.263,-5.88 154.828,-15.171c-40.343,5.123 -80.978,3.004 -119.914,-8.695c-11.285,0.571 -22.961,0.87 -34.914,0.87c-25.791,0 -50.291,-1.394 -72.359,-3.896c4.085,-9.496 8.319,-18.783 12.549,-27.979c9.471,0.859 19.32,1.521 29.468,1.963c-38.799,-22.786 -71.359,-53.204 -94.739,-92.909c-31.2,-7.923 -50.462,-18.793 -50.462,-30.779l0,-29.257l0.057,1.132c0.943,9.16 13.12,17.624 33.209,24.562c-4.259,-9.875 -8.088,-19.936 -11.517,-30.133c-13.859,-6.276 -21.749,-13.49 -21.749,-21.161l0,-29.257l0.057,1.132c0.53,5.15 4.612,10.08 11.654,14.643c-2.505,-10.179 -4.66,-20.434 -6.492,-30.72c-3.409,-3.412 -5.219,-6.981 -5.219,-10.655l0,-26.045Zm75.225,226.625c-45.461,-7.935 -75.225,-21.11 -75.225,-36.009l0,-29.257l0.057,1.132c1.417,13.766 28.207,25.96 69.094,33.766l6.074,30.368Zm230.191,-90.61c2.452,8.889 4.922,17.941 7.51,27.052c-32.173,10.1 -81.776,16.578 -137.383,16.578c-9.353,0 -18.536,-0.184 -27.495,-0.537c2.927,-9.395 5.445,-19.027 7.413,-29.005c6.59,0.188 13.291,0.285 20.082,0.285c51.446,0 97.753,-5.545 129.873,-14.373Zm-215.204,-46.017c25.267,3.524 54.368,5.532 85.331,5.532c96.885,0 175.543,-19.664 175.543,-43.885l0,29.257c0,24.221 -78.658,43.886 -175.543,43.886c-37.854,0 -72.926,-3.002 -101.611,-8.105c8.328,-7.578 13.616,-16.505 16.28,-26.685Zm-4.833,-55.557c26.36,3.957 57.208,6.232 90.164,6.232c3.323,0 6.626,-0.023 9.904,-0.069c0.348,5.776 2.739,21.602 18.253,28.764c-9.169,0.37 -18.574,0.562 -28.157,0.562c-30.268,0 -58.757,-1.919 -83.625,-5.297c-0.846,-9.365 -3.092,-19.444 -6.539,-30.192Zm110.561,-28.847l5.602,-0.126c-0.067,2.779 -0.553,4.867 -1.456,6.262c-1.443,2.271 -3.843,3.444 -7.2,3.52c-3.357,0.075 -5.758,-0.916 -7.2,-2.973c-1.025,-1.461 -1.537,-3.997 -1.537,-7.611l0,-8.879c0,-2.09 0.141,-3.738 0.424,-4.944c0.904,-3.89 3.621,-5.886 8.151,-5.988c3.573,-0.08 6.047,1.138 7.423,3.656c0.647,1.172 1.004,2.91 1.072,5.214l-5.623,0.126c-0.121,-1.615 -0.367,-2.702 -0.738,-3.26c-0.371,-0.558 -1.015,-0.826 -1.932,-0.806c-1.051,0.024 -1.756,0.461 -2.113,1.312c-0.358,0.851 -0.536,2.523 -0.536,5.018l0,7.968c0,2.495 0.189,4.162 0.566,5.003c0.378,0.841 1.119,1.249 2.225,1.225c0.984,-0.023 1.699,-0.399 2.144,-1.131c0.445,-0.731 0.687,-1.926 0.728,-3.586Zm-53.253,-0.726l5.602,0.29c0.04,1.688 0.28,2.897 0.718,3.627c0.438,0.731 1.163,1.122 2.174,1.175c1.065,0.055 1.827,-0.206 2.286,-0.782c0.458,-0.576 0.687,-1.559 0.687,-2.948c0,-1.186 -0.256,-2.049 -0.768,-2.588c-0.297,-0.312 -0.6,-0.547 -0.91,-0.704c-0.31,-0.158 -1.221,-0.519 -2.731,-1.082c-2.157,-0.8 -3.755,-1.813 -4.793,-3.04c-1.187,-1.396 -1.78,-3.348 -1.78,-5.856c0,-5.919 2.636,-8.742 7.908,-8.469c3.452,0.179 5.838,1.577 7.16,4.193c0.62,1.219 0.957,2.983 1.011,5.291l-5.602,-0.29c-0.122,-1.638 -0.341,-2.745 -0.658,-3.321c-0.316,-0.576 -0.886,-0.885 -1.709,-0.928c-1.51,-0.078 -2.265,1.11 -2.265,3.564c0,1.052 0.266,1.871 0.799,2.458c0.533,0.587 1.527,1.161 2.983,1.722c1.483,0.562 2.525,0.997 3.125,1.305c0.6,0.307 1.176,0.698 1.729,1.171c1.564,1.322 2.346,3.527 2.346,6.614c0,1.524 -0.158,2.803 -0.475,3.839c-0.317,1.035 -0.832,1.925 -1.547,2.67c-1.456,1.57 -3.695,2.276 -6.715,2.12c-3.694,-0.192 -6.216,-1.671 -7.564,-4.437c-0.607,-1.245 -0.944,-3.11 -1.011,-5.594Zm92.56,-22.069c-0.712,0.004 -1.547,0.054 -2.507,0.151l-8.09,0.814l0,29.569l6.128,-0.617l0,-11.892l1.133,-0.114l4.763,11.413l6.796,-0.685l-5.613,-11.792c1.483,-0.797 2.498,-1.822 3.044,-3.077c0.546,-1.255 0.819,-3.177 0.819,-5.766c0,-2.009 -0.229,-3.557 -0.687,-4.643c-0.769,-1.824 -2.138,-2.907 -4.106,-3.248c-0.436,-0.076 -0.975,-0.114 -1.615,-0.113l-0.065,0Zm-171.546,24.795l0,-29.217l5.595,0.595l5.565,15.52l5.585,-14.335l5.595,0.595l0,29.217l-6.104,-0.649l0,-15.987l-3.137,8.661l-3.857,-0.41l-3.138,-9.329l0,15.988l-6.104,-0.649Zm216.13,-5.143l-6.199,0.753l-1.234,5.793l-6.613,0.805l8.368,-30.587l5.137,-0.625l8.388,28.549l-6.614,0.804l-1.233,-5.492Zm31.922,1.244l0,-24.368l-6.965,1.563l0,-5.076l20.131,-4.516l0,5.075l-6.965,1.563l0,24.367l-6.201,1.392Zm-288.343,-12.859l0,-10.275c0,-3.75 1.115,-5.565 2.275,-6.842c0.881,-0.97 2.25,-1.582 3.625,-1.785c1.066,-0.161 2.448,-0.1 4.147,0.182c2.373,0.394 4.203,1.034 5.44,1.995c1.024,0.795 1.875,1.51 2.691,2.905c0.935,1.597 1.894,3.653 1.895,6.877l0,10.274c-0.02,3.921 -1.196,5.525 -2.275,6.843c-0.823,1.023 -2.25,1.581 -3.625,1.785c-1.066,0.16 -2.441,0.1 -4.126,-0.179c-2.387,-0.396 -4.207,-1.062 -5.461,-1.999c-1.295,-0.956 -2.379,-1.905 -3.016,-3.166c-0.726,-1.437 -1.4,-2.707 -1.57,-6.615Zm255.698,6.848l-2.387,-10.611l-2.366,11.19l4.753,-0.579Zm-242.081,-12.758l-5.155,12.188c0.472,0.281 1.02,0.473 1.585,0.567c1.361,0.226 2.368,-0.274 2.937,-1.272c0.359,-0.629 0.699,-1.522 0.633,-3.819l0,-7.664Zm193.59,11.242l1.719,-0.173c1.4,-0.18 2.359,-0.507 2.796,-1.09c0.538,-0.719 0.789,-1.792 0.789,-3.195c0,-1.577 -0.226,-2.647 -0.678,-3.208c-0.452,-0.561 -1.285,-0.782 -2.766,-0.631l-1.86,0.187l0,8.11Zm-236.464,-16.668l0,11.893l-6.128,-2.261l0,-29.569l8.09,2.984c1.861,0.686 3.256,1.329 4.187,1.929c1.968,1.265 3.337,2.99 4.105,5.175c0.459,1.301 0.688,2.957 0.688,4.966c0,2.588 -0.273,4.382 -0.819,5.381c-0.546,0.998 -1.561,1.548 -3.044,1.648l5.613,14.428l-6.796,-2.507l-4.763,-13.649l-1.133,-0.418Zm361.254,4.161l5.602,-1.783c-0.067,2.799 -0.552,5.03 -1.456,6.693c-1.443,2.697 -3.843,4.58 -7.2,5.648c-3.357,1.068 -5.757,0.787 -7.2,-0.844c-1.025,-1.157 -1.537,-3.543 -1.537,-7.156l0,-8.879c0,-2.09 0.141,-3.78 0.425,-5.07c0.903,-4.157 3.62,-6.957 8.15,-8.398c3.573,-1.137 6.048,-0.65 7.423,1.461c0.647,0.981 1.004,2.613 1.072,4.897l-5.623,1.789c-0.121,-1.579 -0.367,-2.593 -0.738,-3.041c-0.371,-0.449 -1.015,-0.527 -1.931,-0.235c-1.052,0.334 -1.757,0.98 -2.114,1.936c-0.357,0.957 -0.536,2.682 -0.536,5.176l0,7.969c0,2.495 0.189,4.106 0.566,4.836c0.378,0.729 1.119,0.918 2.225,0.566c0.984,-0.313 1.699,-0.901 2.144,-1.764c0.445,-0.863 0.688,-2.13 0.728,-3.801Zm-320.017,-5.798c-0.537,-0.416 -1.223,-0.694 -1.933,-0.812c-1.376,-0.228 -2.372,0.283 -2.958,1.269c-0.348,0.585 -0.61,1.455 -0.633,3.819l0,8.787l5.524,-13.063Zm341.409,8.358l0,-29.569l6.129,-3.155l0,12.176l5.546,-3.448l0,-12.176l6.129,-3.886l0,29.569l-6.129,3.886l0,-12.377l-5.546,3.448l0,12.378l-6.129,3.154Zm-419.264,-11.275l0,-29.569l15.154,8.697l0,5.016l-9.025,-5.18l0,7.362l8.146,4.675l0,5.016l-8.146,-4.675l0,12.175l-6.129,-3.517Zm36.456,-0.177l1.72,0.634c1.648,0.615 2.378,0.607 2.796,0.222c0.526,-0.48 0.789,-1.421 0.789,-2.824c0,-1.577 -0.226,-2.753 -0.678,-3.526c-0.452,-0.773 -1.263,-1.38 -2.766,-1.93l-1.861,-0.687l0,8.111Zm181.552,-101.271c113.032,0 204.8,19.665 204.8,43.886c0,24.221 -91.768,43.886 -204.8,43.886c-113.032,0 -204.8,-19.665 -204.8,-43.886c0,-24.221 91.768,-43.886 204.8,-43.886Zm-114.656,24.301l86.234,37.944c-76.017,-1.84 -133.873,-11.029 -133.873,-22.074c0,-6.198 18.218,-11.812 47.639,-15.87Zm21.385,-2.483c26.3,-2.556 58.332,-4.057 92.877,-4.057c89.356,0 161.901,10.042 161.901,22.41c0,6.708 -21.342,12.732 -55.133,16.84l-199.645,-35.193Z" style="fill:#fff;"/></svg>