<?xml version="1.0" encoding="UTF-8" standalone="no"?><!DOCTYPE svg PUBLIC "-//W3C//DTD SVG 1.1//EN" "http://www.w3.org/Graphics/SVG/1.1/DTD/svg11.dtd"><svg width="100%" height="100%" viewBox="0 0 801 801" version="1.1" xmlns="http://www.w3.org/2000/svg" xmlns:xlink="http://www.w3.org/1999/xlink" xml:space="preserve" xmlns:serif="http://www.serif.com/" style="fill-rule:evenodd;clip-rule:evenodd;stroke-linejoin:round;stroke-miterlimit:2;"><rect id="w" x="0.652" y="0.873" width="800" height="800" style="fill:none;"/><clipPath id="_clip1"><rect x="0.652" y="0.873" width="800" height="800"/></clipPath><g clip-path="url(#_clip1)"><path d="M126.366,221.322c-56.892,-16.118 -91.429,-37.283 -91.429,-60.449l0,-68.707c0,-50.461 163.871,-91.293 365.715,-91.293c201.844,0 365.714,40.832 365.714,91.293l0,68.707c0,23.166 -34.536,44.33 -91.429,60.449l0,40.694c0,27.875 -66.673,51.887 -162.292,62.605c18.801,-14.114 19.77,-38.382 19.325,-48.114c79.37,-10.851 134.982,-31.227 142.175,-54.961c-67.014,18.863 -164.742,30.756 -273.493,30.756c-90.251,0 -172.91,-8.191 -236.722,-21.759c0.796,7.201 1.646,14.353 2.564,21.459c4.282,1.751 8.87,3.451 13.745,5.094l9.764,48.82c-5.631,-1.687 -10.944,-3.442 -15.916,-5.26c2.726,14.584 5.878,29.001 9.574,43.282c4.698,1.518 9.645,2.985 14.826,4.397l9.644,48.218c-3.008,-0.741 -5.947,-1.5 -8.815,-2.275c5.371,14.603 11.487,29.099 18.479,43.525c26.048,53.744 64.572,99.492 111.748,136.712c4.948,-11.25 9.724,-22.546 14.213,-33.979c18.358,0.97 37.39,1.48 56.896,1.48c93.368,0 175.902,-11.688 225.449,-29.527c4.223,13.511 8.724,26.983 13.634,40.281c-47.059,20.861 -136.537,34.96 -239.083,34.96c-18.997,0 -37.545,-0.484 -55.458,-1.405c14.446,10.425 29.608,20.103 45.387,29.022c7.917,4.474 16.086,8.563 24.461,12.29c107.113,-1.386 198.054,-18.166 238.076,-41.651c4.943,11.211 10.277,22.204 16.087,32.888c-14.052,16.905 -53.03,31.537 -106.878,41.382c7.528,0.418 15.022,0.682 22.456,0.805c48.9,0.812 87.705,-12.632 134.651,-26.274c-4.329,-10.648 -20.035,-20.602 -44.497,-29.3l0,-25.139c56.892,16.087 91.429,37.223 91.429,60.389l0,68.708c0,50.46 -163.871,91.428 -365.714,91.428c-201.843,0 -365.715,-40.968 -365.715,-91.428l0,-68.708c0,-23.165 34.537,-44.301 91.429,-60.389l0,-21.189l0.09,1.769c2.411,23.444 51.926,43.971 125.726,55.883l9.434,47.171c-80.913,-11.929 -135.248,-33.944 -135.25,-59.109l0,0.614c-29.017,10.318 -45.714,22.403 -45.714,35.318c0,37.846 143.387,68.571 320,68.571c96.58,0 183.224,-9.188 241.918,-23.704c-63.035,8.004 -126.528,4.694 -187.365,-13.586c-17.633,0.891 -35.876,1.359 -54.553,1.359c-40.299,0 -78.58,-2.178 -113.061,-6.088c6.383,-14.838 12.998,-29.348 19.608,-43.717c14.798,1.343 30.188,2.376 46.043,3.068c-60.623,-35.604 -111.497,-83.132 -148.029,-145.171c-48.751,-12.38 -78.847,-29.364 -78.847,-48.092l0,-45.715l0.09,1.769c1.472,14.312 20.499,27.537 51.889,38.378c-6.655,-15.429 -12.639,-31.149 -17.996,-47.082c-21.656,-9.807 -33.983,-21.079 -33.983,-33.065l0,-45.714l0.09,1.769c0.827,8.047 7.205,15.75 18.209,22.88c-3.914,-15.905 -7.282,-31.929 -10.145,-48.001c-5.326,-5.33 -8.154,-10.907 -8.154,-16.648l0,-40.694Zm117.538,354.1c-71.033,-12.397 -117.538,-32.983 -117.538,-56.263l0,-45.714l0.09,1.768c2.212,21.509 44.073,40.563 107.959,52.761l9.489,47.448Zm359.674,-141.577c3.831,13.889 7.692,28.032 11.735,42.269c-50.27,15.78 -127.775,25.902 -214.661,25.902c-14.614,0 -28.963,-0.286 -42.961,-0.838c4.573,-14.681 8.507,-29.73 11.582,-45.321c10.298,0.294 20.768,0.445 31.379,0.445c80.384,0 152.739,-8.664 202.926,-22.457Zm-336.256,-71.902c39.48,5.506 84.951,8.644 133.33,8.644c151.382,0 274.285,-30.725 274.285,-68.571l0,45.714c0,37.846 -122.903,68.572 -274.285,68.572c-59.148,0 -113.948,-4.691 -158.768,-12.664c13.014,-11.839 21.276,-25.788 25.438,-41.695Zm-7.551,-86.808c41.187,6.183 89.386,9.738 140.881,9.738c5.193,0 10.352,-0.036 15.474,-0.108c0.544,9.025 4.281,33.753 28.52,44.943c-14.325,0.579 -29.02,0.879 -43.994,0.879c-47.294,0 -91.808,-2.998 -130.664,-8.276c-1.323,-14.633 -4.831,-30.382 -10.217,-47.176Zm172.751,-45.073l8.754,-0.196c-0.106,4.342 -0.864,7.603 -2.276,9.784c-2.254,3.548 -6.004,5.381 -11.25,5.499c-5.246,0.118 -8.996,-1.431 -11.25,-4.646c-1.601,-2.281 -2.402,-6.245 -2.402,-11.891l0,-13.873c0,-3.266 0.221,-5.841 0.664,-7.726c1.411,-6.078 5.656,-9.197 12.735,-9.356c5.583,-0.126 9.449,1.779 11.598,5.712c1.011,1.831 1.57,4.547 1.675,8.147l-8.785,0.198c-0.19,-2.524 -0.574,-4.222 -1.154,-5.094c-0.579,-0.872 -1.585,-1.292 -3.018,-1.259c-1.643,0.037 -2.744,0.72 -3.302,2.049c-0.558,1.329 -0.838,3.943 -0.838,7.84l0,12.451c0,3.898 0.295,6.504 0.885,7.818c0.59,1.314 1.749,1.951 3.477,1.913c1.537,-0.035 2.654,-0.624 3.349,-1.766c0.696,-1.143 1.075,-3.011 1.138,-5.604Zm-83.208,-1.135l8.754,0.454c0.063,2.636 0.437,4.526 1.121,5.667c0.685,1.142 1.817,1.753 3.398,1.835c1.664,0.086 2.854,-0.321 3.571,-1.221c0.716,-0.901 1.074,-2.436 1.074,-4.606c0,-1.854 -0.4,-3.202 -1.201,-4.044c-0.463,-0.487 -0.937,-0.854 -1.422,-1.1c-0.484,-0.247 -1.907,-0.81 -4.266,-1.691c-3.371,-1.249 -5.868,-2.832 -7.49,-4.749c-1.854,-2.182 -2.781,-5.232 -2.781,-9.151c0,-9.248 4.119,-13.659 12.357,-13.233c5.393,0.28 9.122,2.464 11.187,6.553c0.969,1.904 1.495,4.659 1.58,8.266l-8.754,-0.453c-0.19,-2.559 -0.532,-4.289 -1.027,-5.189c-0.495,-0.9 -1.385,-1.383 -2.67,-1.449c-2.36,-0.123 -3.54,1.733 -3.54,5.568c0,1.643 0.416,2.923 1.248,3.841c0.833,0.917 2.386,1.814 4.662,2.69c2.317,0.879 3.945,1.558 4.882,2.039c0.938,0.48 1.838,1.091 2.702,1.83c2.444,2.065 3.666,5.51 3.666,10.335c0,2.38 -0.248,4.379 -0.743,5.997c-0.495,1.618 -1.301,3.009 -2.417,4.173c-2.276,2.452 -5.773,3.556 -10.492,3.312c-5.773,-0.299 -9.712,-2.61 -11.819,-6.933c-0.948,-1.945 -1.475,-4.859 -1.58,-8.741Zm144.626,-34.482c-1.113,0.006 -2.418,0.084 -3.918,0.235l-12.64,1.273l0,46.202l9.575,-0.964l0,-18.582l1.77,-0.179l7.442,17.833l10.619,-1.069l-8.77,-18.426c2.317,-1.245 3.903,-2.847 4.756,-4.808c0.853,-1.961 1.28,-4.964 1.28,-9.009c0,-3.139 -0.358,-5.558 -1.075,-7.255c-1.201,-2.85 -3.339,-4.541 -6.415,-5.074c-0.681,-0.119 -1.522,-0.178 -2.523,-0.177l-0.101,0Zm-268.042,38.742l0,-45.652l8.744,0.929l8.694,24.25l8.726,-22.397l8.744,0.929l0,45.652l-9.538,-1.014l0,-24.981l-4.903,13.534l-6.026,-0.641l-4.903,-14.576l0,24.981l-9.538,-1.014Zm337.703,-8.037l-9.685,1.178l-1.928,9.052l-10.334,1.257l13.075,-47.793l8.027,-0.976l13.107,44.608l-10.334,1.257l-1.928,-8.583Zm49.879,1.944l0,-38.074l-10.883,2.441l0,-7.93l31.454,-7.057l0,7.93l-10.882,2.442l0,38.074l-9.689,2.174Zm-450.537,-20.092l0,-16.053c0,-5.86 1.743,-8.697 3.556,-10.692c1.376,-1.516 3.516,-2.472 5.664,-2.789c1.665,-0.251 3.824,-0.156 6.479,0.285c3.708,0.615 6.567,1.615 8.501,3.117c1.599,1.242 2.928,2.359 4.204,4.539c1.461,2.495 2.959,5.708 2.962,10.744l0,16.054c-0.033,6.127 -1.87,8.633 -3.556,10.692c-1.285,1.599 -3.515,2.471 -5.664,2.789c-1.665,0.25 -3.814,0.157 -6.447,-0.28c-3.729,-0.619 -6.573,-1.659 -8.533,-3.122c-2.022,-1.494 -3.716,-2.978 -4.712,-4.948c-1.135,-2.246 -2.187,-4.229 -2.454,-10.336Zm399.529,10.701l-3.729,-16.58l-3.698,17.483l7.427,-0.903Zm-378.252,-19.935l-8.054,19.044c0.737,0.439 1.593,0.739 2.476,0.885c2.128,0.354 3.701,-0.427 4.59,-1.987c0.56,-0.982 1.092,-2.377 0.988,-5.967l0,-11.975Zm302.484,17.566l2.686,-0.27c2.188,-0.281 3.686,-0.793 4.37,-1.704c0.841,-1.123 1.232,-2.8 1.232,-4.991c0,-2.465 -0.353,-4.136 -1.059,-5.013c-0.705,-0.877 -2.008,-1.222 -4.321,-0.987l-2.908,0.293l0,12.672Zm-369.474,-26.044l0,18.582l-9.575,-3.531l0,-46.202l12.641,4.662c2.907,1.072 5.088,2.077 6.541,3.013c3.076,1.977 5.215,4.673 6.415,8.086c0.717,2.034 1.075,4.621 1.075,7.76c0,4.045 -0.427,6.848 -1.28,8.408c-0.853,1.56 -2.439,2.419 -4.756,2.575l8.77,22.543l-10.618,-3.916l-7.443,-21.327l-1.77,-0.653Zm564.459,6.501l8.754,-2.785c-0.105,4.373 -0.864,7.859 -2.275,10.457c-2.254,4.215 -6.005,7.156 -11.25,8.825c-5.246,1.67 -8.996,1.23 -11.251,-1.318c-1.601,-1.808 -2.401,-5.536 -2.401,-11.182l0,-13.873c0,-3.265 0.221,-5.906 0.663,-7.922c1.412,-6.495 5.657,-10.869 12.736,-13.122c5.583,-1.776 9.449,-1.015 11.598,2.283c1.011,1.532 1.569,4.083 1.675,7.652l-8.786,2.795c-0.189,-2.468 -0.574,-4.052 -1.153,-4.752c-0.58,-0.701 -1.586,-0.823 -3.018,-0.367c-1.644,0.522 -2.744,1.531 -3.303,3.025c-0.558,1.495 -0.837,4.191 -0.837,8.088l0,12.451c0,3.898 0.295,6.417 0.885,7.556c0.59,1.14 1.748,1.435 3.476,0.885c1.538,-0.489 2.655,-1.408 3.35,-2.756c0.695,-1.349 1.074,-3.329 1.137,-5.94Zm-500.026,-9.058c-0.839,-0.652 -1.911,-1.085 -3.021,-1.269c-2.149,-0.357 -3.705,0.441 -4.622,1.982c-0.544,0.914 -0.953,2.274 -0.988,5.967l0,13.729l8.631,-20.409Zm533.452,13.059l0,-46.202l9.575,-4.929l0,19.024l8.667,-5.388l0,-19.024l9.575,-6.072l0,46.202l-9.575,6.072l0,-19.34l-8.667,5.388l0,19.34l-9.575,4.929Zm-655.1,-17.617l0,-46.202l23.678,13.589l0,7.837l-14.103,-8.093l0,11.503l12.728,7.304l0,7.837l-12.728,-7.304l0,19.024l-9.575,-5.495Zm56.963,-0.278l2.686,0.991c2.575,0.961 3.716,0.949 4.369,0.347c0.821,-0.75 1.232,-2.221 1.232,-4.412c0,-2.465 -0.353,-4.301 -1.058,-5.51c-0.706,-1.208 -1.974,-2.156 -4.322,-3.016l-2.907,-1.072l0,12.672Zm283.674,-158.235c176.613,0 320,30.726 320,68.572c0,37.845 -143.387,68.571 -320,68.571c-176.613,0 -320,-30.726 -320,-68.571c0,-37.846 143.387,-68.572 320,-68.572Zm-179.15,37.97l134.74,59.287c-118.776,-2.874 -209.175,-17.232 -209.175,-34.49c0,-9.685 28.464,-18.456 74.435,-24.797Zm33.414,-3.88c41.093,-3.993 91.144,-6.338 145.12,-6.338c139.618,0 252.97,15.689 252.97,35.015c0,10.481 -33.347,19.894 -86.145,26.313l-311.945,-54.99Z" style="fill:#fff;"/></g></svg>