<?xml version="1.0" encoding="UTF-8" standalone="no"?>
<!DOCTYPE svg PUBLIC "-//W3C//DTD SVG 1.1//EN" "http://www.w3.org/Graphics/SVG/1.1/DTD/svg11.dtd">
<svg width="100%" height="100%" viewBox="0 0 800 346" version="1.1" xmlns="http://www.w3.org/2000/svg" xmlns:xlink="http://www.w3.org/1999/xlink" xml:space="preserve" xmlns:serif="http://www.serif.com/" style="fill-rule:evenodd;clip-rule:evenodd;stroke-linejoin:round;stroke-miterlimit:1.41421;">
    <g transform="matrix(1,0,0,1,-2829.55,-4673.26)">
        <g id="final-production" serif:id="final production" transform="matrix(0.687841,0,0,1.58777,891.6,-1135.73)">
            <rect x="2817.44" y="3658.58" width="1163.06" height="217.916" style="fill:none;"/>
            <clipPath id="_clip1">
                <rect x="2817.44" y="3658.58" width="1163.06" height="217.916"/>
            </clipPath>
            <g clip-path="url(#_clip1)">
                <g transform="matrix(1.68965,0,0,3.9067,-2254.69,-10901.8)">
                    <g transform="matrix(1.08,0,0,0.18425,-80.8284,3044.23)">
                        <g transform="matrix(1.2104,0,0,1.32933,-641.673,-1261.68)">
                            <path d="M2893.41,3828.26L2893.41,3738.31L2939.51,3738.31L2939.51,3753.57L2912.05,3753.57L2912.05,3775.96L2936.83,3775.96L2936.83,3791.22L2912.05,3791.22L2912.05,3828.26L2893.41,3828.26Z" style="fill-rule:nonzero;"/>
                        </g>
                        <g transform="matrix(1.2104,0,0,1.32933,-641.673,-1261.68)">
                            <path d="M2981.37,3792.08L2981.37,3828.26L2962.73,3828.26L2962.73,3738.31L2987.34,3738.31C2993,3738.31 2997.24,3738.7 3000.07,3739.48C3006.06,3741.12 3010.22,3744.83 3012.56,3750.62C3013.96,3754.06 3014.66,3758.84 3014.66,3764.95C3014.66,3772.83 3013.82,3778.59 3012.16,3782.24C3010.5,3785.89 3007.41,3788.7 3002.9,3790.67L3019.98,3828.26L2999.3,3828.26L2984.82,3792.08L2981.37,3792.08ZM2980.88,3777.87L2986.11,3777.87C2991.12,3777.89 2993.34,3777.05 2994.61,3775.41C2996.21,3773.36 2997.01,3770.2 2997.01,3765.94C2997.01,3761.14 2996.33,3757.81 2994.95,3755.97C2993.58,3754.12 2991.11,3753.19 2986.54,3753.2L2980.88,3753.2L2980.88,3777.87Z" style="fill-rule:nonzero;"/>
                        </g>
                        <g transform="matrix(1.2104,0,0,1.32933,-661.759,-2062.95)">
                            <path d="M3058.13,4401.67L3058.13,4370.42C3058.13,4359.01 3061.52,4352.92 3065.05,4348.45C3067.73,4345.06 3071.89,4342.51 3076.08,4341.19C3079.32,4340.17 3083.52,4339.66 3088.69,4339.66C3095.91,4339.66 3101.47,4340.68 3105.24,4342.98C3108.35,4344.88 3110.94,4346.62 3113.42,4350.46C3116.27,4354.84 3119.18,4360.61 3119.19,4370.42L3119.19,4401.67C3119.13,4413.61 3115.55,4419.08 3112.27,4423.64C3109.76,4427.16 3105.42,4429.58 3101.24,4430.9C3098,4431.92 3093.82,4432.43 3088.69,4432.43C3081.43,4432.43 3075.89,4431.33 3072.08,4429.11C3068.14,4426.86 3064.84,4424.52 3062.9,4421C3060.69,4417 3058.64,4413.48 3058.13,4401.67ZM3099.55,4376.82L3083.87,4416.5C3085.3,4417.11 3086.97,4417.42 3088.69,4417.42C3092.83,4417.42 3095.89,4415.39 3097.62,4412.07C3098.71,4409.98 3099.75,4407.09 3099.55,4400.13L3099.55,4376.82ZM3094.57,4356.16C3092.94,4355.17 3090.85,4354.67 3088.69,4354.67C3084.5,4354.67 3081.47,4356.72 3079.69,4360.02C3078.63,4361.98 3077.84,4364.76 3077.77,4371.96L3077.77,4398.69L3094.57,4356.16Z" style="fill-rule:nonzero;"/>
                        </g>
                        <g transform="matrix(1.2104,0,0,1.32933,-638.042,-1261.68)">
                            <path d="M3125.78,3828.26L3125.78,3739.38L3142.8,3739.38L3159.72,3784.79L3176.71,3739.38L3193.74,3739.38L3193.74,3828.26L3175.17,3828.26L3175.17,3779.63L3165.62,3806.99L3153.89,3806.99L3144.35,3779.63L3144.35,3828.26L3125.78,3828.26Z" style="fill-rule:nonzero;"/>
                        </g>
                    </g>
                    <g transform="matrix(1.08,0,0,0.18425,-562.187,3077.28)">
                        <g transform="matrix(1.2104,0,0,1.32933,-639.252,-1261.68)">
                            <path d="M3254.56,3800.51L3271.6,3800.51C3271.72,3805.64 3272.45,3809.28 3273.78,3811.43C3275.12,3813.59 3277.32,3814.66 3280.4,3814.66C3283.64,3814.66 3285.95,3813.75 3287.35,3811.92C3288.74,3810.1 3289.44,3807.07 3289.44,3802.85C3289.44,3799.24 3288.66,3796.66 3287.1,3795.1C3286.2,3794.2 3285.28,3793.53 3284.34,3793.1C3283.39,3792.67 3280.62,3791.71 3276.03,3790.24C3269.47,3788.15 3264.61,3785.32 3261.45,3781.75C3257.84,3777.69 3256.03,3771.84 3256.03,3764.21C3256.03,3746.21 3264.05,3737.2 3280.09,3737.2C3290.59,3737.2 3297.85,3741.08 3301.87,3748.83C3303.76,3752.44 3304.78,3757.75 3304.95,3764.77L3287.9,3764.77C3287.53,3759.8 3286.87,3756.47 3285.9,3754.77C3284.94,3753.07 3283.21,3752.22 3280.7,3752.22C3276.11,3752.22 3273.81,3755.95 3273.81,3763.41C3273.81,3766.61 3274.62,3769.06 3276.24,3770.76C3277.87,3772.47 3280.89,3774.06 3285.32,3775.53C3289.83,3777.01 3293,3778.17 3294.83,3779.01C3296.65,3779.85 3298.4,3780.95 3300.09,3782.3C3304.84,3786.07 3307.22,3792.66 3307.22,3802.05C3307.22,3806.68 3306.74,3810.6 3305.78,3813.8C3304.81,3817 3303.24,3819.79 3301.07,3822.17C3296.64,3827.17 3289.83,3829.67 3280.64,3829.67C3269.41,3829.67 3261.74,3825.57 3257.63,3817.37C3255.79,3813.68 3254.76,3808.06 3254.56,3800.51Z" style="fill-rule:nonzero;"/>
                        </g>
                        <g transform="matrix(1.2104,0,0,1.32933,-639.252,-1261.68)">
                            <path d="M3367.22,3800.51L3384.26,3800.51C3384.05,3808.96 3382.58,3815.28 3379.83,3819.46C3375.44,3826.27 3368.14,3829.67 3357.93,3829.67C3347.71,3829.67 3340.41,3826.49 3336.02,3820.14C3332.91,3815.63 3331.35,3807.87 3331.35,3796.88L3331.35,3769.87C3331.35,3763.52 3331.78,3758.51 3332.64,3754.86C3335.39,3743.09 3343.65,3737.2 3357.43,3737.2C3368.3,3737.2 3375.83,3741.08 3380.01,3748.83C3381.98,3752.44 3383.07,3757.75 3383.27,3764.77L3366.17,3764.77C3365.8,3759.85 3365.05,3756.52 3363.92,3754.8C3362.8,3753.08 3360.84,3752.22 3358.05,3752.22C3354.85,3752.22 3352.71,3753.5 3351.62,3756.06C3350.53,3758.62 3349.99,3763.7 3349.99,3771.29L3349.99,3795.53C3349.99,3803.12 3350.56,3808.2 3351.71,3810.79C3352.86,3813.37 3355.12,3814.66 3358.48,3814.66C3361.47,3814.66 3363.65,3813.57 3365,3811.37C3366.35,3809.18 3367.09,3805.56 3367.22,3800.51Z" style="fill-rule:nonzero;"/>
                        </g>
                        <g transform="matrix(1.2104,0,0,1.32933,-639.252,-1261.68)">
                            <path d="M3428.19,3792.08L3428.19,3828.26L3409.55,3828.26L3409.55,3778.61L3409.55,3738.31L3434.16,3738.31C3439.82,3738.31 3444.07,3738.7 3446.9,3739.48C3452.89,3741.12 3457.05,3744.83 3459.39,3750.62C3460.78,3754.06 3461.48,3758.84 3461.48,3764.95C3461.48,3772.83 3460.65,3778.59 3458.99,3782.24C3457.33,3785.89 3454.24,3788.7 3449.73,3790.67L3466.8,3828.26L3446.13,3828.26L3431.64,3792.08L3428.19,3792.08ZM3427.7,3777.87L3432.93,3777.87C3437.19,3777.75 3440.11,3777.05 3441.44,3775.41C3443.08,3773.39 3443.84,3770.2 3443.84,3765.94C3443.84,3761.14 3443.15,3757.81 3441.78,3755.97C3440.4,3754.12 3437.87,3753.2 3433.36,3753.2L3427.7,3753.2L3427.7,3777.87Z" style="fill-rule:nonzero;"/>
                        </g>
                        <g transform="matrix(1.2104,0,0,1.32933,-638.042,-1261.68)">
                            <path d="M3526.04,3811.09L3507.18,3811.09L3503.43,3828.26L3483.31,3828.26L3508.76,3738.31L3524.39,3738.31L3549.91,3828.26L3529.79,3828.26L3526.04,3811.09ZM3523.84,3796.33L3516.58,3763.17L3509.38,3796.33L3523.84,3796.33Z" style="fill-rule:nonzero;"/>
                        </g>
                        <g transform="matrix(1.2104,0,0,1.32933,-640.463,-1261.68)">
                            <path d="M3587.2,3827.8L3587.2,3753.68L3566.02,3753.68L3566.02,3738.24L3627.25,3738.24L3627.25,3753.68L3606.07,3753.68L3606.07,3827.8L3587.2,3827.8Z" style="fill-rule:nonzero;"/>
                        </g>
                        <g transform="matrix(1.2104,0,0,1.32933,-642.883,-1261.68)">
                            <path d="M3685.23,3800.51L3702.28,3800.51C3702.07,3808.96 3700.59,3815.28 3697.85,3819.46C3693.46,3826.27 3686.16,3829.67 3675.94,3829.67C3665.73,3829.67 3658.43,3826.49 3654.04,3820.14C3650.92,3815.63 3649.37,3807.87 3649.37,3796.88L3649.37,3769.87C3649.37,3763.52 3649.8,3758.51 3650.66,3754.86C3653.41,3743.09 3661.67,3737.2 3675.45,3737.2C3686.32,3737.2 3693.85,3741.08 3698.03,3748.83C3700,3752.44 3701.09,3757.75 3701.29,3764.77L3684.19,3764.77C3683.82,3759.85 3683.07,3756.52 3681.94,3754.8C3680.81,3753.08 3678.86,3752.22 3676.07,3752.22C3672.87,3752.22 3670.72,3753.5 3669.64,3756.06C3668.55,3758.62 3668.01,3763.7 3668.01,3771.29L3668.01,3795.53C3668.01,3803.12 3668.58,3808.2 3669.73,3810.79C3670.88,3813.37 3673.13,3814.66 3676.5,3814.66C3679.49,3814.66 3681.66,3813.57 3683.02,3811.37C3684.37,3809.18 3685.11,3805.56 3685.23,3800.51Z" style="fill-rule:nonzero;"/>
                        </g>
                        <g transform="matrix(1.2104,0,0,1.32933,-642.883,-1261.68)">
                            <path d="M3729.97,3828.26L3729.97,3738.31L3748.61,3738.31L3748.61,3775.35L3765.48,3775.35L3765.48,3738.31L3784.12,3738.31L3784.12,3828.26L3765.48,3828.26L3765.48,3790.61L3748.61,3790.61L3748.61,3828.26L3729.97,3828.26Z" style="fill-rule:nonzero;"/>
                        </g>
                    </g>
                </g>
            </g>
        </g>
    </g>
</svg>
